/* XPM */
static char *a478930bbc894d96c64608470072956aBLd0A1Qhk8PqiQ79[] = {
/* columns rows colors chars-per-pixel */
"64 64 79 1 ",
"  c #000001",
". c #000409",
"X c #2C4643",
"o c #394B4E",
"O c #3E5554",
"+ c #46545D",
"@ c #4E6365",
"# c #506667",
"$ c #57656E",
"% c #5E7275",
"& c #606E77",
"* c #637477",
"= c #6A7A7F",
"- c #6C7E82",
"; c #74858B",
": c #778990",
"> c #7E8C93",
", c #86939B",
"< c #8A959E",
"1 c #8C97A0",
"2 c #8E9AA5",
"3 c #919CA5",
"4 c #949DA8",
"5 c #96A4AD",
"6 c #9AA2AD",
"7 c #96A4B0",
"8 c #9AA6B3",
"9 c #9CA9B5",
"0 c #9EAAB8",
"q c #A4ABB7",
"w c #A3ADBA",
"e c #A8AFBE",
"r c #A6B2BD",
"t c #A9B3BE",
"y c #B4B9BE",
"u c #A6B2C0",
"i c #ADB5C3",
"p c #AEB9C5",
"a c #AFBBC8",
"s c #B1B7C5",
"d c #B3BAC6",
"f c #B9BEC5",
"g c #B5BDCA",
"h c #B9BECC",
"j c #B9BFCD",
"k c #BABFCE",
"l c #BAC0C7",
"z c #B6C0CA",
"x c #B4C0CC",
"c c #B4C0CD",
"v c #B7C0CF",
"b c #BBC1C8",
"n c #BCC2C9",
"m c #B8C0CD",
"M c #B8C2CD",
"N c #B9C3CE",
"B c #BAC3CF",
"V c #BCC1CE",
"C c #BFC5CC",
"Z c #B7C2D0",
"A c #B9C2D0",
"S c #BEC3D1",
"D c #BBC4D1",
"F c #BCC4D0",
"G c #BFC5D3",
"H c #C0C3CB",
"J c #C0C4CC",
"K c #C1C7CE",
"L c #C6C8CE",
"P c #C2C6D1",
"I c #C0C5D2",
"U c #C0C6D3",
"Y c #C1C8D2",
"T c #C4C9D5",
"R c #CACCD3",
"E c #C3C7D8",
"W c #C6CBD9",
"Q c #CACDDB",
"! c #CDD1DB",
/* pixels */
"                                                                ",
"                                                                ",
"                                                                ",
"                                                                ",
"                                                                ",
"                                                                ",
"                                                                ",
"                                                                ",
"                                                                ",
"                                                                ",
"                     .      .             ..                    ",
"blllllfdbffbbbnbfdfCKCldbddnCnbnllbbbbbnfnKKKKKKKKKHnnnHKKnnnnnn",
"jgddbbjdgdddjbbbbsdCYmggdssjmbjbbbbbmmmmjjVIInnIVVVjddjKVjjjjjjj",
"jgsgmDmmggjmmmmmmgsmFmvmgsgmmmmmmmmFFFAVmjmIIjjVjmjgddVIjgggjjmV",
"jgpsjmmvjjjjvvvAgggggjjvggjjvvvvvAAAAAAAmmASAjjjgjjgssgSggsggjjj",
"jgaggjvvjjjjjjjvsggggvmggjvjjjjvAAAAAAAAmFFAmSmggjjgssgjggsggjjj",
"gvvZAAmgAmvvvDmvgsgjggjvvvvvjvvvAAADDAZDFAmAAjjSmmmggssssssgmmjA",
"ggvvvmmvmmggvvvvgsggggggvvjjgggggggjjjvDvvmmmjmSggdgggssgggjSmjm",
"gggggvmmmjgggxvvgggggggpaaa6p,>##%==##vvgjmmmSFFggdgjjgsgjjmSmjm",
"apppgvmmmggdgxvgggggsppuX-igjgpsgggsgt%=sgjjjSFSmmbmmmjgggjjjggm",
"gpppgvvmmggggvvvgggspuX-0SsgppidjigjVFjg-@gsgmSjmFFFSSjgggggjjjS",
"gppdvvvggggggvvvgagpu#8mASjiwd0pgsggjgggp>;isgmjjFTFFSSmjjjjmjjS",
"dppgdddgggdggvvgpppuwijjjgie007up0qjjsjjjg>9igjjgFTTFIFSmmmmSmjm",
"spddsisdssddggdgrw<>ijjjjsjw0sis7gis0jjjjjj>=dsgmFTTIIIFSSmmSmgj",
"psssssdsbggvvvprr3%jVjjgIs77gs0q7giqjjjjjjjFdddggmFTIFSFFmjmmmmm",
"sddssdgdggggggrrX:gjjjjjjpjss7jjigjjsjjjjijddjddgmFFIIFTFSSSSmmm",
"dddsdgggggvvgpu0Xwjjjjjjjjsg7jjjjjjgVjjjgggSgdd-pgmFIITEFFSSSjjj",
"sssssdgbgmmvgu8,;0mjjjjjjjjjjjjjjjjjjjjjjgVdjdgw@sgmIFFTFFSmjggg",
"sssssdgggjvgpr,#sjimVjjjjjj99jjjjjVjVVSVjjjjsjdd#tsmFSmSSSSmjggs",
"dsssddgggggguwX7jjjgjjjjjsppVVjjjjjjjVVsjjjjVjdg3XsgAmjmmmmjjjjg",
"dssgggggjggpiXOjjjjjjjjjj79VjjjjjjjjjVqwijjjgsIFwXisjmmSSSmmmSmj",
"dssgggggggpir;%Sjjj7jjjwwijjVVVjjjjVVjsi0qjjsjVV-XtsjmSFFFSVVSSj",
"ddsddvvdgbsuq,%wwjVwgj0wjjgVjj0jpjsjjqjVjjjj8jgj-XtdmFTFISmVSSSS",
"ddddzvvvgvgiOXVjgjjpjsjjjj7jjjjiggSps0gsjjjjjjgj;XtdbmYITISSISSS",
"sdddxvxxsggiOXIIIswjjjjjjjjjjjjjjgpgi0sj7jjjwsjj7XwpgbFFTIIIISSF",
"sddgvxxxgggr1XIg70VjjVVjjjs7jjjSjj07ssjwVjjjwjIg2XwsggmSIIIIISSS",
"ddgvvvxgvggjX,IjIejjjjVjjjssqj0sisjjsi8jjjjpjjVj2XrsggVIIITIIFVm",
"dgbvvvvxggpiXIIIjs7jjjjjjjjgis0s7jjjjsjjVjjjjjjj-XtpsgVTITTIVjjg",
"dggvvvmvgsppIIIIjgjjjjjjjVjis9sgjjjjjjsjjjj7ijgj&XtisgCTTTIFjggs",
"dggggvmvmgpgXII78wjjjjjjVVVV7pp9jjjjjjjjjjjjgVVg$XisgjVIIIFjjggs",
"dddddvvvmDmpXXIgwp7jjjjjVjVVjpijVVjjjjjjjjj77VVd+XsdFbmTISjjjggg",
"dddddvvvDgdgg1VgjjwpjjjjqjjV97wjjjjjjjjjjjjjjgsiXXFgVITVIISjjggg",
"ggdddvvmjsgprXtgjSjgg9jgpgV7jpp7jjVggjjjjjSwwdjdXmFmFVVjIIImjggs",
"jvvvvvvvsjgpgawsjS88ggjijjsjjjpgiVi007jjgVVgjgIXXFbYEVVIIIIjjggg",
"vmvvvvvgggggvrpwjjj88707jjjjjjjgpd7sgijdgSggdgiXbFYWETEEIIIVjjgg",
"gvvvjvjggdggspt,Xggjj77jjjjjjjp7785jgiw7ijggIiXdmFEWEQEITTISjjgg",
"gjgggjjggjjdsmtid,sjgjj0jjjVj7tI779077gdggSIiXVICCITWQEETTIISmjj",
"mvgggjvmmmjjggdprXXdSjjjjjjjgI8777sjwwSggIiXXTSVmTQEEWEEWTIIISVS",
"mgssggvvgggvjgggppXXtjjjjjjSSIjjgg977SgdwXXmCFCVmIQWWQQQWWTIIIIF",
"vgggggggssgggggggptpXXjSIjgjjjjddgSISo*XXXbFFmmmFEWEWQQQQQWWWTTT",
"ggggvggggggmgggggjgppXXX#5VISgdddjs4,XXXdpvWWISjVIIVIQQQQQQWEIII",
"gdddbjgdggjbbdddgggjvgspXXXXOX16@qsqXgvvuiSQWWEjVIIKIQ!!!QQETIII",
"fddddffddddddfddgggmmggFFmggdppgpsssdgmVssgVSWWjnITKKR!!RRTKKKHn",
"fdddffffyydfffffdddjVCnfjddjfssdsddsdCVdddfITQRKKRRRLRRRRRTLLLKH",
"                 ..      .                                      ",
"                                                                ",
"                                                                ",
"                                                                ",
"                                                                ",
"                                                                ",
"                                                                ",
"                                                                ",
"                                                                ",
"                                                                "
};
