/* XPM */
static char *dc9df189ada74aa3993a187a71897220osvRRfsqtOtL3hHC[] = {
/* columns rows colors chars-per-pixel */
"64 64 243 2 ",
"   c #0E2229",
".  c #142431",
"X  c #0C1C40",
"o  c #0C2D4D",
"O  c #1B3247",
"+  c #14344A",
"@  c #093359",
"#  c #0B3659",
"$  c #163857",
"%  c #143A5B",
"&  c #0B3967",
"*  c #163A63",
"=  c #123E64",
"-  c #123F70",
";  c #1B445B",
":  c #28465A",
">  c #0A406C",
",  c #194568",
"<  c #0E4976",
"1  c #174B77",
"2  c #1C5377",
"3  c #244866",
"4  c #264D6C",
"5  c #31546D",
"6  c #244C74",
"7  c #275877",
"8  c #335878",
"9  c #2C647C",
"0  c #37647C",
"q  c #48697A",
"w  c #125582",
"e  c #245C85",
"r  c #345F82",
"t  c #326282",
"y  c #376789",
"u  c #37718B",
"i  c #2B6890",
"p  c #376B96",
"a  c #387196",
"s  c #3F7DA7",
"d  c #496A84",
"f  c #45738A",
"g  c #467995",
"h  c #447B9C",
"j  c #587790",
"k  c #627F97",
"l  c #447EA3",
"z  c #4C7EA2",
"x  c #4A7FB5",
"c  c #3E83AC",
"v  c #3586B8",
"b  c #4B849B",
"n  c #558399",
"m  c #678A9A",
"M  c #748A9F",
"N  c #4284A9",
"B  c #4A86A8",
"V  c #5788A5",
"C  c #5B8BA2",
"Z  c #5C94A5",
"A  c #5B94A9",
"S  c #468BB7",
"D  c #4D8DB5",
"F  c #538DB3",
"G  c #558FBD",
"H  c #4F93B5",
"J  c #5292B5",
"K  c #5C9CB3",
"L  c #5797BB",
"P  c #5A95BB",
"I  c #628CA3",
"U  c #6885AC",
"Y  c #6696AA",
"T  c #7595A8",
"R  c #6699B5",
"E  c #769BB6",
"W  c #59A6BC",
"Q  c #6CA3B8",
"!  c #73A3B5",
"~  c #71A9B7",
"^  c #74A6B8",
"/  c #7AABBC",
"(  c #478EC4",
")  c #4A97C4",
"_  c #589BC5",
"`  c #6295C4",
"'  c #59A7CF",
"]  c #5CB2DA",
"[  c #64A5C3",
"{  c #69A8C8",
"}  c #77ABC5",
"|  c #76B3CD",
" . c #7BB6C8",
".. c #69ABD1",
"X. c #76ADD2",
"o. c #66B2D6",
"O. c #79B7D7",
"+. c #779CE7",
"@. c #77A4ED",
"#. c #7CA5EE",
"$. c #7BBCE2",
"%. c #7DA6F0",
"&. c #7EAAF3",
"*. c #7EADF8",
"=. c #7ECCE7",
"-. c #8B9CB2",
";. c #8BA9B8",
":. c #98ADBA",
">. c #87B5BC",
",. c #92B1BA",
"<. c #91AFC1",
"1. c #84B7CB",
"2. c #86BAD6",
"3. c #93BBD5",
"4. c #A3BECC",
"5. c #82A6EE",
"6. c #94ADEE",
"7. c #8DBFE0",
"8. c #81A7F2",
"9. c #84ABF3",
"0. c #8AAEF4",
"q. c #84ADF9",
"w. c #89AEF8",
"e. c #93AEF3",
"r. c #9AAEF5",
"t. c #86B1F6",
"y. c #8CB1F6",
"u. c #86B0F9",
"i. c #8CB2F8",
"p. c #94B3F6",
"a. c #9AB5F6",
"s. c #93B3F8",
"d. c #9CB5F8",
"f. c #86C6D5",
"g. c #8AC4D2",
"h. c #89C6DC",
"j. c #8ECADB",
"k. c #93C4D3",
"l. c #99C7D5",
"z. c #96C9D1",
"x. c #94CAD6",
"c. c #92CBDC",
"v. c #9BCCDA",
"b. c #99D2DA",
"n. c #ACC6D4",
"m. c #A8CDD7",
"M. c #A3D3DD",
"N. c #A9D7DD",
"B. c #87C7E4",
"V. c #8ECDE2",
"C. c #95C6E5",
"Z. c #94CEE2",
"A. c #88D3E7",
"S. c #94D2E3",
"D. c #9CD4E4",
"F. c #9CD5EA",
"G. c #9AD8EA",
"H. c #89D8F2",
"J. c #93D9F5",
"K. c #A8CBE1",
"L. c #A3D4E4",
"P. c #AAD2E4",
"I. c #A4DBE5",
"U. c #ACDBE5",
"Y. c #A5D4EB",
"T. c #A5DCEB",
"R. c #ABDCEB",
"E. c #B2DCE4",
"W. c #B8D6E9",
"Q. c #B3DEEB",
"!. c #BADEEC",
"~. c #A3D7F4",
"^. c #ABDDF1",
"/. c #B6DBF2",
"(. c #ADE2E6",
"). c #A9E4EB",
"_. c #ADE2EE",
"`. c #B3E2E6",
"'. c #BAE4E7",
"]. c #B4E3ED",
"[. c #BBE5ED",
"{. c #B3E9ED",
"}. c #BCEAED",
"|. c #ACE3F2",
" X c #AAE6F6",
".X c #AEEAFB",
"XX c #B4E5F3",
"oX c #BBE6F3",
"OX c #B5EAF4",
"+X c #BCEBF4",
"@X c #B2E5FA",
"#X c #BDE6F8",
"$X c #B4ECFA",
"%X c #BBECF9",
"&X c #ADF1FD",
"*X c #BDF1F5",
"=X c #B3F3F8",
"-X c #BDF1FB",
";X c #C4DDEA",
":X c #C7E4E5",
">X c #C2E4EB",
",X c #CBE4EB",
"<X c #C3EBED",
"1X c #CCEAED",
"2X c #D6E8E9",
"3X c #D6EBEC",
"4X c #C4F1ED",
"5X c #DAF5EF",
"6X c #C3E5F1",
"7X c #CCE4F2",
"8X c #C3ECF4",
"9X c #CAEDF4",
"0X c #C2E7FB",
"qX c #C3EDFA",
"wX c #CBEDFA",
"eX c #D3EDF4",
"rX c #D9ECF6",
"tX c #D2EDFA",
"yX c #C4F2F6",
"uX c #CBF2F5",
"iX c #C4F3FB",
"pX c #CBF4FB",
"aX c #C6F9FD",
"sX c #CDFAFD",
"dX c #D3F3F5",
"fX c #DCF3F5",
"gX c #D8F9F6",
"hX c #D3F4FC",
"jX c #DBF5FB",
"kX c #D4FAFD",
"lX c #DBFBFD",
"zX c #E6F1ED",
"xX c #E3EEF5",
"cX c #E4F4F4",
"vX c #EAF9F6",
"bX c #E2F5FC",
"nX c #EBF6FC",
"mX c #E3FCFE",
"MX c #EBFCFD",
"NX c #F3FCF5",
"BX c #F6F7FA",
"VX c #F3FDFE",
"CX c #FDFDFD",
/* pixels */
". + : $ +   . ; 0 0 f f 0 y q g n n ~ / ^ E C Y V z n n n n m m n Y C I Y T E ! ^ ;.;.,.;.,.,.;.;.T m m j j q 5 4 ; 5 8 8 I + . ",
"+ 9 ~ T % 5 T ^ D.T.R.oX].OXOX$X8X8X1.! Y g 2 1 = # * # > > , @ o # % % # @ # , , 2 7 8 u B K K Z Z Z Y ! ~ / n n n n b 9 , % + ",
"m 2.MXmXb.1.V.M.k.b.R.oXoXXXU.].L.v.>.} ~ Q Y b u 7 4 3 7 t g C Y Y Y A h r 3 * @ @ o o 0 ! ;.Y / x.9X<XwX9X8XpX'.(.*X}.).Q 2 ; ",
"Y I.MX:XM.N.).I.D.x.S.c.F.D.K.U.^.~.^.-XaXpXaX[._.v.l.M.U.).OX+XpX8X%XyXwXOXU.P.b.z.z.<.n.n.>.>.m.U.N.N.E.m.`.`.m.N.+X<X+XOX} $ ",
"b {.S.| Y._.b.L.c.S.S.S.G.Z.T.OXOXOX#XOX*XaXpXqX8X%XiXsXtXpXuX9XXXoX+X}.+X<X<X'.pXyXpX:X9X>X[.}.[.Q.`._.M.l.k.L.!.+XL.R.].[./.7 ",
"g }.[ h.|.F.U.L.G.XXyXsXpXiX-X$X*X-X-X%XOX-X-XaXOXoX$X*XhXmXmXyXOX].|.+X%XOX+XaXiX8X%XoXE.E.].Q.E.E.}.iX%XU.x.G.I.Q.oXF.I.pXoXu ",
"V P.| T.M.b.L.G.XXpXMXMXdXkXyXqXXX%X%X$XOX).|.OXOXOXOXOX*XpXsX*XOX+XoX%XiXiXsXhXkXhXpXiXXXT._.U.1X>XyXyXyXaXqXU.j.x.R.$X X*XR.a ",
"Z c.f.c.x.b.U.].+XkXmXlXkXyXaX+X).|. X~.).$X$XOX$X$X$X-X+XOX-XwX+X%XqX%X%XyXpXkXgXkXhX%X+XL.[.tX6XQ.}.oXqX+X+X+XI.g.c.I.}.XX Xi ",
"Z Z.X.I.g.L.XX{.yXMXmXMXlXgXkXyX{. XG.R.oXoXoX-XyXsX+X$X-X$XoX].%XoX$XoX].OX%XiX9X%X*XoXOX-X[.>X[.[.}.].+X+XOX+X%X(.G.#X8XyXOX_ ",
"R | P ).b.Y.L.*XMXMXvXMXMXlXpXsX-X+XXX%X$XOX-X-XaXsXiXaXOX]._.XXXXXX$X$XXXOXOXOX$XyXuXuXqX%XiX+X}.+X+X].+XoX}.].}.'.0XjXuX+XwXF ",
"R [ L |.L.c.G.uXMXMXmXvXmXkXsXaXyXyXyX$X|. X$X-XaX*X+XaXu.9.%.#.@.@.8.q.q.$X$XXX&XkXMXmXqXXX%X}.+X+X+XXXOXoX8X8X8X%XqX}.8X+XjXF ",
"Q F [ ).b. .~.mXMXMXgXmXMXlXsX*XyXqXqXoX].{.).|.{.q.t.5.9.&.&.@.@.@.#.&.q.u.u.9.OX8XsXsXpXpXiX%X8X+XoXXXU._.}.%XoX|.yX4XiX0XtXF ",
"/ B B.N.f.j.%XlXMXMXVXmXlXhX+X8X%X%XiXaXsXsX&.&.&.*.q.&.iX|.|.F.S.S.@.T.$Xu.i.q.0.8.8.%X9X9XyX9XoX+XXX|.T.R.XXoXoX].rXVXjXpXiXb ",
"Q B O.b.j.D.pXyXlXmXMXkXsXyX+X}.XXXX-XsXkXp.%Xq.*.OX_.oXiX-X|.T.D.D.I.&.OXiXiX8X9.q.OX9.}.`.+X9XuX8X].R.I.T.T.T.XX].1XBXbXhX&Xa ",
"Q } ~ V.Z.U.yXN.`.kXpX*X+X%X+XoX+X*XsXs.p.p.y.*XOXoX{.+XoXpXqXOX].|.8.8.XX+XqXoXOX*X&.&.9.8.].`.+X8X].R.R.R._._.L.oX9XjXlXpX$Xa ",
"} x.W S.].].-XiXdXsXyX+XyXsX-XiXyXsXs.mXp.MXuX*X%X[.8XkXyXyXqXoX8X8Xw.OX&.XXOXXXXXoX+XU.%.OX&.R.].-XoX8X+X}.].oX+X9XnXlXbXpX.Xi ",
"} K F R.Q.OX*XpXgXpXaXaXkXpXiXiXkXp.p.p.mXaX-X8X].pXlXfXkX+XwX+X+XoXq.XX9._.].XX].oXR.Q.].&.9.8.].oX9X8X+XOXOXoX^.tXBXCXMX[.J.e ",
"f B D R.Q.oX+X[.pXyX-XsXsXuX8XyXs.y.kXkX'.}.yX8X*XlXdXkXyX9X+XmX8X9.#.%Xq.&.XX[.].].oXN.`.oX+X5.#.oX}.8X8X[.Q.].XXpXrXnXcX9XJ.e ",
"% u P v.].oX-XpXaXsXsXkXkXpXaXt.i.kXlXpX}.'.8XqXlXkXMXpXwX9XdXmXi.0.oX%XoXq.9.9.8X[.[.].[.R.}.pX5.8.XX%X8X8XoX[.9X9XtXmXuX$XA.w ",
"4 b l g.OXOX*XkXaXuXmXMXkXpXu.aXs.lXkXyX+X+X+Xs.d.s.s.e.0.s.a.s.y.yXsX[.+X%X+X9.9.8.].8X+X`.[.+X8.].&.%X+X[.8XXX}.8XqXwX<X-XB.< ",
"% K J x.[.XXiXkXwXuXMXmXdXsX0.p.vXMXkXuX+X%XyXp.MXmX8XpXhXkXgXlX9XpXkX8X+X[.[.oX{.#.9.8.9.+XXX&.0.9.9.$XqXoXXX^.9X0X$X9X1XqXZ.< ",
", J ` x.oX_.%X8XiXpXlXsXsXs.a.mXVXmXpXpXaXoXuXd.lXpX8XyXmXsXMXlXuXkXpXpX8X[.[.[.oX].XX+Xw.q.%.@.9.+X9.8.OX|.R.XXwXtXqXmXdX!.F.& ",
", u s v.XXx._.yXiXqXyXsXy.gXp.MXMXkX[.sXsXyXp.d.hXpXiXlXkXmXmXkXkXlXhXlX9X[.oXoXQ.oX[.oX8.9.#.D.|.XXw.%X&.^. XOX8XrXtXVXcXP.Y.< ",
", 7 z l.!.v.XX}.(.sXkXpXy.y.sX%XOXyX<XpXkXlXp.dXpXkXhXkXgXMXsXhXkX9XlXkX9X[.}.'.[.].8X5.9.XXR.Y.F.|.sXw.q. XR.%XtXMXcXNXnXP.c.< ",
"+ $ h v.{.L._.%XyXsXkXsXy.y.sXyX8X8XkXpXsXpXp.iXpXpXlXgXkXuXsXaXpX*XsXhXoXoX[.{.oXR.8.u.%X%XXXL.G.|.-X*.9.OXqX8XbXCXBXVXNXR.2.z ",
"$ O u 3.'.R.].pXsXkXhX0.y.yXaX9X[.oXwXqXsXdXy.}.sXlXpXsXaXpXdXyXlXsXkX<X].oXoXoX%X8.8.iXqXoX%XOX+X[.D.D.&.*.Z.^.mXVXjXCXCXP.X.B ",
"* O B 1.8X^.*XwXkXkXmXs.s.pXpXuX].8XqX=XsXpX9.9XgXuXyXkXwXsXpXhXmXkXkX+XXXXXXX#X_.#.|.+XOX0X%X%X-X$XT.|.8.q.j./.dXjXdXdXNXv.{ f ",
"1 8 l v.'.$XyXlXsXkXlX0.y.pXuXpX+X8X+XiXlX4X5.pXlXaXkXkXpXaX+XsXuXkXkX+X|.OXXX|.OX|.t.|.R.@XOXiX$XOX$X^.q.9.Q.wXbXbXcXkXNXW.G t ",
"* 7 E I.XX8XkXlXgXkXs.y.sXsXpXpX-XhXpX9XhXaX0.pXsXkXsXyX}.[.8X%XsXiXqX#XQ.XX^.Y.|.@Xq.$X X X.X&X-XaX+X-X].w.&.%X9XwXnXmXCX;Xs y ",
"+ 7 !.P.oX9XyXjXpXkXy.y.sXuXpXuXhXyX1X3XkX9X9.y.y.i.0.8.#.9.0.0.pXoX0XqXOXXXXX).|.|.&.T. X X X X=XkXaXaXiXw.9.OX9X9XeXmXbX2._ p ",
", R m.l.yXoXiXlXsXsXy.y.kXkXkXlXjXdX6.p.0.y.t.pXjXyXwX%XoXyX8Xp.s.sXpXwXOXOX|.^.T.|.q. X X X). X.XiX+X-XsX0.w.pXfXjXfXfXwXO.N i ",
"x 2.z V.<XOX%XkXlXkXy.y.kXlX9X1Xa.6.6.3X1X+XyXpX8XsX8XpXhXuXkXkXa.dX8X8X-XOXXX@XOX*. X$X$X@X$X&X$X*X-XaXuXi.w.hXmXtXMXlXR.F D p ",
"8 i a U.}.(.XX-XyXsXy.0.gXNXe.6.6.2X2XeX>X8XiX8X-XhXjXmXlXpXpXe.0.8X0X+X-XoX%XoXOX9.OX$X$X%X$X-XqXpXpXuX%X0.i.wX9XsXjXMXkXO.a s ",
"t 6 p L.[.}.[.wX4X=X5.0.p.a.6.rX5X,X5X<XoX%X%XyXpXkXdXkXkXw.0.w.9.9.0.%X-X8XpXpXi.qX$X%X%XiXiX%XqXpXpXkXiXw.0.mXMXuXdXgXkX} 2 1 ",
"0 r p L.[.[.8XpXMXyX9.6.r.2X3XxX3XfXuXpX+X-XyXuXpXkXlXhX0.q.%X%X%XoXq.9.w.a.a.y.i.pXwX%X+XqXqX%XiXsXhXiX-X0.p.BXCXMXlXMXjX} a & ",
"7 t i R.+X].+XsXlXuX6.0.rX3XyX:X>X-XpXhX$X8XVXmXkXlXdXuX0.pXqXoX8X%X$X%XjXmXnXdX0.pXyXwX8X8XwXiX%XiXyXsX[.p.d.CXCXCXnXnXbX2.l > ",
"; 4 a R.[.U.].kX5X9X6.6.dXeX1X[.8X$XqXlXU.uXMXlXpXkXlXlXs.tXpXpX8X8X*XyXjXnXmXkX0.pXuXpX8X8X8XiXoXyXyX+XsXp.p.VXnXcXnXcXtXC.S - ",
"3 3 B j.;X].`.rXdX3XdXp.0.,XeXhXyXyXqXiXoX8XsX+XaXyXe.r.r.lXwXuXuX9X%X%XhXbXmXhXi.yX8XpXyXyXiXwXpX8XyXsX0.s.hXpXjXjXsXhX6XF.{ & ",
"8 + b b.1X[.z.<X,X2XfXe.6.eXsXyX{.=X_.8X8XuX9X+XiX9Xi.lXjXjXhXpXpXyX8X8XhXjXjXsXpX0.0.pXyXpXyXiXwX+XyX}.0.s.lXjXfXmXfXgX^.Z.^ - ",
": : E ,X,X,X;X:X,X,X2X9.t.pXsXsXhX8XqXiXuXuX0X+XiX%Xy.hXdXhXhXwXiXwXyXyXsXjXhXpX0.yXy.0.pXpXaXiX*X*X%X].0.i.mXBXVXCXCXCX/.F.| & ",
"h ;.W.E.2X:X:XoXeX1X1XpXy.y.kXkXpXpXsX8XuX9XyX+X+Xq.0.pXiXsXqXoXyXyXiXyXpXhXhXpX0.9XwXy.t.0.-X-XuX%X%Xt.i.hXlXhXjXnXCXCXrXI.{ # ",
"A E :.>X,X;XW.2X}.9XpXkXp.p.MXVXgXpXyXaXyX9X8X+XoX8.8X9XwXqXyXiX*X8XiXyXaXpXkXs.0.sXpXpX8Xw.w.t.9.yXpXw.0.lXlX9X0XhXfXMX9XT...& ",
"q 1 Y zX;X[.N.E.[.iXkXmXp.mXd.CXkXsXyX8XyXpXyX8X8Xw.8XuXpXyXiX%XyX+XiXaX9.0.i.0.pXsXpXuXyXiX-X*X9.4Xy.pXy.MXlXgXhXdX9XuX[.G...& ",
"<.U E `.2X9XN.I.8XiXpXlXcXs.s.MXlXkXuX}.wX8X8X[.[.i.9X9X6XiXqX-X+X$X-Xu.w.yXsXpXpXwXyXyXaXiXaX=X-Xy.y.t.lXCXmXVXCXBXVXMXwX X{ # ",
"d m m.I.;X:Xc.x.%X%XiXsXmXMXp.s.lXlX9X8X+XpX8X8XM.0.9X6XqXwXXXXX$X$X9.u.%XiXqX8X8X8XiXiX-XaX-X*X-Xy.9.yXVXVXMXCXVXCXCXCXeX=X{ = ",
"n.0 ;.,X>X+Xv.h.%XyXyX{.yX3Xs.kXs.kXwX8X8XwX8X9X0.8X6XoX6X%X%XXX-X-Xu.%XiXiX8X%X%X-X$X-X+X-X-X-X9.wXt.gXCXlXnXCXCXCXCXVXtXiX} & ",
";.-.Y ].4X].N.g.8XyXsXiX*X}.9Xy.0.6X8X[.8X8X+XpX0.[.9X+X[.].%XOXOX9.q.%X%X%X@X%X+X$X-X-X-X-X-X-X*.u.-XmXVXdXcXMXCXVXjXhX6XaXX.> ",
">.M ^ }.}.,X_.M.uXwXhXlXyX-X*XeX0.9.8X8X'.8XE.[.9.8X}.}.oXoXOXoXw.9.OX@X$X%X%XOXOX-X-X%X-X-XaXq.9.-XyXlXkXcXjXfXdXMXbXvXrXaXO., ",
"-.T Y }.>X8X(.Q.pXpXuXkXpXOX{.uXuX0.5.5.<X<X[.5.eX'.<X+X'.8Xb.Z.u.oX+XXXOX-XoX#X-XqXpX%XyXy.t.q.OXiXjXbXfXMXVXCXVXzXcXmXhXiX..> ",
";.E Y +X9X+XU.L.Q.].8XuXpX+XOXU.+X%X9.].5.8X<X0.<X9XoX].I.`.!.^.q.#.oXiX*XoX0XpXjXkXpXpXw.OX&.+X+XiXjXjXuXyXgXBXCXCXnX7X%X$X_ 7 ",
"n N / yXpX9X}.Q.Y.v.).8X<X9XoXI.`.yX9X9.5.8.8.5.}.+X%X<X[.'.<XoX[.#.[.[.OX+X6XiX}.sXw.w.0.0.qX&XOXpXjXpX8XjXnXpXjXlXdX<XXX XH , ",
"7 S  .sXtXuX<X9X].S.S.OX8XE.M.iX[.>X[.yXpXi.[.9.0.`.8X8X9X<X}.'.9X9.9.8X8X+X>X8Xw.w.qXw.+X%XsXdXlXkXpX+X-XhXMXvXdXlXdXtXwX#XJ @ ",
"p h 1.tXeX8XyX+XyXv.V.XX].pXuX!.{.].T.I.yXhXe.0.0.0.e.0.].].8XrXhXE.'.0.oX0.9.8.5.#.#.%X*XuXbXCXVXdXpX6XqXuXjXcXrXbXeX9X%X%XL % ",
"Y u } lX>XiXwXqXuX$X).L.[.8X9X<X9X8X].I.`.fXhX8X+X0.0.0.9.#.0.p.e.0.0.5.+.#.5.5.].].].aXmXCXCXVXkXhXpXpXhXwXtXhX8XpXpXwX%X|._ y ",
"V A 3.lX9X_.'.jX9X+X%XpXkXpXuX8XdXeX9X%X>X9X>X_.[.[.<XnXe.q.0.d.e.0.#.+.#.!.6X[.oXoX9XlXmXMXdXlXjXjXyXsXhXwX8XnXjX9XsXwX7XsXo.1 ",
"f F K.dX`.*X<XpX8XyX<X9XfXdXpXyX<XjX1Xm.wXtX9X%XoX8XrXmX[.].:XBXwXU._.XX_.oX0X8XoX#X6XpX9XpXiXqXgXBXbXpX0XpXuXgXbX7XwXpX7XpXo.1 ",
"R B O.gX0X4X*XwXdXyX8X8XwXpXdXpXsXuXrX1X8XuX9XeXhX0XvXbX6XU.wXCXtX[.lXjXOX>X9X#X8X_.D.|.XXuXfXjXvXMXjXuXpX%XuXlXcXMXmXfXjX@X' e ",
"A P O.sX%X<XuXwXaXhXoX{.+XpXhXhXjX9XtXuX<X9XeXhXNXfXMXfXXXwXnXCXfX>XhXtX8X7X9X+X6XXX/.#XOXjXCXVXCXvXlXiXwXqXhXcXVXNXMXMX9X%X] t ",
"I | v iX1X9X`.yXwXyXyXwX9XhXhXdXdXpXhXjXtXdX8XwXCXmXfXmXyX9XnXmXkXwXhXlXhXpX+XyXdXpXyXsXhXhXcXCXCXMXhX0X|.yXbXCXVXBXBXnXhXXX] w ",
"V g.L j.9X7XT.+XdXpXkXsX<XdXlXhXhXuXiXpXpXpX8XnXBXjXdXjX6XmXxXeXdXhXpXdXdX8XoXqX9XhXuX9XjXmXmXmXBXlXhXqX-X8XnXCXVXmXnXMXmXtX..1 ",
"a g.1.k.Y.!.OXcXnXMXnXVXCXCXnXVXyXhXnXmX7XjXrXzXCXY.P.W.~.;XrXxX!.3.g.Y.Y.@XT.^.iXqX0X<XgXnXcX-XhX9XiX%XtXm.oXlXkXpXpXkXlXmX..1 ",
"0 R  .~ h.6XnX7XT.D.P.4.m.v.k.l.C.F./.wXC.K./.7Xm.{ X.L 3.3._ rXW.B c D ` F R W 2.h.S.0XnXhX/./. X^.K.Y.#XD.V.V.G.XX^.&X}.kX) & ",
"+ 8 B E <.P.7X/.Y.F.O.{ O.P.3.P ] o.R V ..$.S P R _ F O._ ..2.X.1.F ` G _ ' 7.{ S G D ..4.~.A.~.F.2.=.J.=.=.H.H.B.A.J.H.&XsXh O ",
". O X $ U F 7 y E C.V g p h f * t k U I V 8 i y g 7 2 F l N P g p h y a N _ 7...) G l s c G _ o.$.o.] _ _ _ ) ) ) ( ( v ) a + . "
};
