/* XPM */
static char *b2787024b2504aa2f5aa664a3359d371ncIfcRZFCcM9eHCE[] = {
/* columns rows colors chars-per-pixel */
"64 64 237 2 ",
"   c #0E2229",
".  c #142431",
"X  c #0C1C40",
"o  c #0C2E4D",
"O  c #1B3247",
"+  c #14344A",
"@  c #0A3359",
"#  c #0B3659",
"$  c #163857",
"%  c #143A5B",
"&  c #0B3967",
"*  c #163A63",
"=  c #123E64",
"-  c #123F70",
";  c #1B445B",
":  c #28465A",
">  c #0A406C",
",  c #1D4462",
"<  c #18456A",
"1  c #0E4976",
"2  c #174B77",
"3  c #1C5377",
"4  c #244866",
"5  c #264D6C",
"6  c #31546D",
"7  c #244C74",
"8  c #275877",
"9  c #335878",
"0  c #2B647C",
"q  c #37647C",
"w  c #48697A",
"e  c #125582",
"r  c #245C85",
"t  c #345F82",
"y  c #266287",
"u  c #326282",
"i  c #386789",
"p  c #37718C",
"a  c #2D6B94",
"s  c #376B96",
"d  c #387196",
"f  c #3F7DA7",
"g  c #496A84",
"h  c #45738A",
"j  c #58778F",
"k  c #467995",
"l  c #437B9C",
"z  c #627F97",
"x  c #447EA3",
"c  c #4C7EA2",
"v  c #4A7FB5",
"b  c #3E83AC",
"n  c #3586B8",
"m  c #4B839B",
"M  c #558398",
"N  c #678A9A",
"B  c #758A9F",
"V  c #4284A9",
"C  c #4A86A8",
"Z  c #5788A5",
"A  c #5B8BA2",
"S  c #5C94A5",
"D  c #5B94A9",
"F  c #468BB7",
"G  c #4D8DB5",
"H  c #538DB3",
"J  c #558FBD",
"K  c #4F93B5",
"L  c #5292B5",
"P  c #5C9BB3",
"I  c #5895BA",
"U  c #5A95BB",
"Y  c #559ABC",
"T  c #628CA3",
"R  c #6885AC",
"E  c #6393AC",
"W  c #6995A8",
"Q  c #659AAD",
"!  c #7495A8",
"~  c #649AB2",
"^  c #6699B6",
"/  c #769BB6",
"(  c #59A6BC",
")  c #6CA3B8",
"_  c #73A3B5",
"`  c #71A9B7",
"'  c #74A6B8",
"]  c #7AABBC",
"[  c #3F9AC6",
"{  c #478EC4",
"}  c #4A97C4",
"|  c #589BC5",
" . c #6295C4",
".. c #58A3C7",
"X. c #5AABD8",
"o. c #5CB2DA",
"O. c #64A5C3",
"+. c #69A8C8",
"@. c #77ABC5",
"#. c #76B3CD",
"$. c #7BB6C8",
"%. c #69ABD1",
"&. c #76ADD2",
"*. c #66B2D6",
"=. c #79B7D7",
"-. c #7BBCE2",
";. c #7ECCE7",
":. c #8B9CB2",
">. c #8BA9B8",
",. c #98ADBB",
"<. c #87B5BC",
"1. c #92B2BA",
"2. c #91AFC1",
"3. c #84B7CB",
"4. c #84B9D3",
"5. c #8ABCDA",
"6. c #93BBD5",
"7. c #A3BECC",
"8. c #8DBFE0",
"9. c #9CC6CD",
"0. c #86C6D5",
"q. c #8AC4D2",
"w. c #89C6DC",
"e. c #8ECADB",
"r. c #93C4D3",
"t. c #99C7D5",
"y. c #94CAD6",
"u. c #93CBDC",
"i. c #9BCCDA",
"p. c #8CD0DB",
"a. c #99D2DA",
"s. c #ACC6D4",
"d. c #A7CDD8",
"f. c #A3D3DD",
"g. c #A9D7DD",
"h. c #87C7E4",
"j. c #8ECDE2",
"k. c #95C6E5",
"l. c #94CEE2",
"z. c #9BCDE2",
"x. c #88D3E7",
"c. c #94D2E3",
"v. c #9CD4E4",
"b. c #99D7E9",
"n. c #9CD5EB",
"m. c #9DD9EA",
"M. c #89D8F2",
"N. c #93D9F6",
"B. c #A8CBE1",
"V. c #A3D4E4",
"C. c #ABD2E4",
"Z. c #A4DAE5",
"A. c #ABDBE5",
"S. c #A3D4EB",
"D. c #AFD5E8",
"F. c #A5DCEB",
"G. c #ABDDEB",
"H. c #B2DCE4",
"J. c #B8D6E8",
"K. c #B3DEEB",
"L. c #BADEEC",
"P. c #A3D7F4",
"I. c #ABDDF1",
"U. c #B2DCF2",
"Y. c #BBD9F3",
"T. c #ADE2E6",
"R. c #A9E4EB",
"E. c #ADE2ED",
"W. c #B3E2E6",
"Q. c #BAE4E7",
"!. c #B4E3ED",
"~. c #BBE5ED",
"^. c #B3E9EE",
"/. c #BCE9ED",
"(. c #ACE3F2",
"). c #AAE6F6",
"_. c #AEEAFB",
"`. c #B4E5F2",
"'. c #BBE6F2",
"]. c #B5EAF4",
"[. c #BCEBF4",
"{. c #B5E6F9",
"}. c #BDE6F9",
"|. c #B4ECFA",
" X c #BBECF9",
".X c #ADF1FD",
"XX c #B4F3F4",
"oX c #BDF1F5",
"OX c #B3F1FA",
"+X c #BDF2FB",
"@X c #C4DDEA",
"#X c #C7E4E5",
"$X c #C2E4EB",
"%X c #CBE4EB",
"&X c #C3EBEE",
"*X c #CCEAED",
"=X c #D4E6E7",
"-X c #D6EBED",
";X c #DAEDED",
":X c #C5F1ED",
">X c #DAF5EF",
",X c #C3E5F2",
"<X c #CCE4F2",
"1X c #C3ECF4",
"2X c #CAECF4",
"3X c #C3E7FB",
"4X c #C3EDFA",
"5X c #CBEEFA",
"6X c #D2EDF4",
"7X c #DBEFF3",
"8X c #D7E9F9",
"9X c #D3EDFA",
"0X c #C4F2F6",
"qX c #CBF2F5",
"wX c #C4F3FB",
"eX c #CBF4FB",
"rX c #C6F9FD",
"tX c #CDF9FD",
"yX c #D3F3F5",
"uX c #DBF4F5",
"iX c #D8F9F6",
"pX c #D3F4FC",
"aX c #DBF5FB",
"sX c #D4FAFD",
"dX c #DBFBFD",
"fX c #E6F1EC",
"gX c #E3EEF3",
"hX c #E4F4F5",
"jX c #EAF9F6",
"kX c #E2F5FC",
"lX c #EBF5FC",
"zX c #E3FCFD",
"xX c #EBFCFD",
"cX c #F3FCF5",
"vX c #F6F7FA",
"bX c #F3FDFE",
"nX c #FDFDFD",
/* pixels */
". + : $ +   . ; q q h h q i q M M M ' ] _ _ A D Z C M j k A T N A A A N W W / _ _ >.:.>.>.1.1.,.>.! N z j j w 6 5 ; 5 9 9 A + . ",
"+ 0 ` ! $ 6 ! ' v.G.G.[.!.`.`.|.4X1X3._ E k 8 2 & % % # % > , @ + # % = # @ & 4 2 5 8 q p S P P S S S Q _ ' ] M M M S m 8 5 $ + ",
"N 4.xXzXa.3.p.a.r.a.G.'.~.~.A.!.V.i.] $.] _ E m p 6 5 3 8 u m A E Q Q A k u < * # # o o 9 / 2.E ] 9.:X1X5X2X1XeXW.W.oX/.R.) 5 ; ",
"Q Z.xX#Xf.C.R.Z.v.y.c.u.n.v.V.D.I.I.I.+XwXrXwX/.E.a.r.d.A.R.].[.eX1X1X4XeX'.D.f.a.y.r.1.d.9.<.<.d.A.g.g.H.d.!.W.d.g./.&X[.(.#.% ",
"M T.b.#.m.I.f.V.c.c.v.c.n.l.F.`.].].|.`.[.rXeXwX}.wXwXtX5X9XqX1X!.'.[.'.1X1X/.Q.eXeXeX$X2X$X/./.`.K.!.G.f.r.r.V.~.}.V.G.!.~.`.7 ",
"k [.) -.`.m.F.f.v.E.0XrXrXwX+X|.[.4XwX[.[.OXwXwX`.]. XoXpXzXzX0X].E.`. X X].[.rX0X X[.].H.H.K.K.H.H./.0X4XA.y.v.Z.H.}.c.Z.qX[.p ",
"Z C.#.R.f.v.f.m.`.eXxXxXyXsXwX4X(. X X|.|.R.E.].|.].].].oXqXtXwX].[.[. XwXwXtXpXaXpXeXrX`.F.E.A.*X$X0X0XwXrXwXA.e.y.G.|.^.oXG.d ",
"S u.0.u.r.a.A.E.[.tXzXdXsX0XrX[.).(.).F.R.|.|.|. X|.|.OX X].oX4X[. X X[.1X0XeXsXyXdXtX[.[.V.~.9X,XL.[./.[.[.[. XV.0.u.G.^.`.).a ",
"D j.&.Z.q.f.~.(.qXxXxXxXdXsXsX0X|.(.v.E.'.'.[. X0XtX]. X+X|.'.`. X[. X`.`.]. X4XeX'.+X]. X+X/.$X~././.!.[.[.].[. XT.n.}.1XwX}.| ",
"~ #.I R.V.F.v.oXxXxXhXjXxXdXpXrXoX[.]. X].].+X XrXtXwXwX].!.E.^.`.`. X X`.].].].[.rXqXqX X}.0X[.'.'.[.!.[.[.^.~./.Q.3XpXqX/.qXH ",
"^ +.I R.i.p.b.qXxXxXdXxXxXsXtXrX0X0X4X X(.^.|.+XrX+X XrXwX].E.G.V.Z.(.].|.|.|.`..XsXxXdX0X`. X'./.'.[.`.^.,X[.0X4X[.4X/.2X}.pXH ",
") H O.G.y.q.P.zXxXxXhXzXzXsXtXoX4X0X X[.`.(.R.).].].0X^.[.E.(.Z.v.n.R.(.+X+XwX].].1XyXtXeXeXwX4X4X[.[.`.G.G.~.4X'.(.wX:X0X3XyXH ",
"] C w.Z.0.e. XdXxXxXxXzXdXeX&X4X}. X+XrXsXrX(.(.).|.+X^. X`.I.n.b.c.n.(.].+XrX'.5X].].[.1X2X0X1X/.'.`.E.F.G.(.].`.!.yXbXaXeX0XV ",
") C 0.a.e.v.rXqXsXxXxXsXtXqX'./.{.E.oXsXsXsX4X|.|.].E.}.rX4X(.F.v.v.Z.E.{.wXeX4X].|.{.3X[.W./.2XeX1X`.G.V.G.G.F.`.~.%XvXdXpXOXd ",
") $.) e.z.A.0Xg.Q.sXeX0X[.[.oX].[.oXsXdXdXzXtXoX].[.^.'.'.rX+X}.(.`.`.`.`. X X[.[.+X`.^./.~.!.E./.[.!.K.A.G.E.R.V.'.5XaXaX5X|.d ",
"+.e.Y c.G.!.+XrXyXtXoX[.0XtXwX4X0XsXsXdXzXzXqXoX'.`.2XsX0X0X4X'.1X1X X'.!.`.].`.`.'./.Z.R.}.G.G.^.4X[.[.[.'.^.'.[.6XlXdXkXeX_.a ",
"] ~ H G.!.].+XeXsXeXwXeXsXsXwXwXiXsXsXiXzXrX4X1X`.eXdXaXsXoXeX[.[.[.{.`.].(.!.`.!.'.A.K.`.!.^.!.K.[.2X0X[.`.`.'.E.9XvXnXxX/.N.r ",
"h C G Z.K.'.[.~.tX0X0XrXtXwX4XwXsXsXsXsXQ./.wX4XoXdXyXpX2X1X[.dX4X'.!. X X`.`.^.!.`.'.g.G.'.1X~.D.'.~.1X4X~.!.!.`.5XuXlXhX,XN.r ",
"% i I i.!.[.oXeXrXtXtXsXsXrXrX0XrXeXdXeX/.W.1X4XiXdXxXqX5X5XyXxXtX1X'. X X X'.'.1X~.~.!.~.H.'.eXK.`.`. X1X1X~.~.1XqX9XkXqX Xx.e ",
"5 C x r.'.^.+XsXrXqXzXxXsXeXwXwXaXdXsXqX4X[./.sXzXzXdXpX0XsXdXaXeX4XtX'.[.[.'.1X'.~.!.1X[.K.^.4X'.!.(. X[.[.[.`./.1X5X5X/.+Xh.1 ",
"= P I y.!.`.wXsX4XyXxXdXyXsXeXqXxXxXsXqX[.oX1XdXzXkX1XeXpXsXiXdX2XeXsX1X1X/.'.'.^.K.'.].4X X!.G.2X[.]. X X[.`.U.1X2X|.2X2X4Xl.1 ",
"% H | y.[.G.[.2XwXeXdXsXtXdXzXzXbXzXeXeXrX'.qXxXdXpX1XqXzXsXxXdXqXsXqXeX,X~.~.~.'.!.`.[.+X XE.Z.'.'.[.'.`.(.G.`.5X9X3XzXuXK.S.& ",
"< d x i.'.y.(.0XwX0XwXtXtXiXdXxXxXsX/.eX0XtXyXxXpXrXrXdXsXzXzXsXdXsXpXsX1X~.'.~.K.'.!.'.}.`.G.v.).`.rX4X(.I.).{.4X6X9XbXhXB.S.> ",
"5 8 c t.K.i.(./.T.eXsXeXeXeXtX[.`.0X$XtXsXdXdXyX9XtXpXsXuXzXtXsXsX2XdXdX2X~./.~./.W.[.~. X`.G.Z.b.(.tX}.OX).I.4X9XbXkXcXxXC.l.1 ",
"+ ; k z.^.V.E.4X1XsXsXtXtXrXeX4X4X4XeXpXqXtXdXwXeXtXdXsXsXqXtX0XeX[.tXpX}.'.!./.}.A.`.}. X}.`.V.b.`.OX|.|.{.wX&XhXnXlXbXvXK.5.l ",
"o O i 6.!.G.!.rXeXsXyXeXeX0XeXqX~./.4X0XtXyXqX[.qXdXqXtXeXtXpX0XdXtXsX&X!.[.'.`. X`.`.rXwX[. X`.|.~.V.v.(.|.j.I.zXbXaXnXnXC.#.C ",
"* O C 3.&XG.oX2XsXsXdXsXsXrXqX2X!.1X4XoXtXtX1X2XsXqX0XsXeXrXwXpXdXdXsX[.`.`.`.}.!.Z.E.].{.4X X X+X XZ.(.{.|.e.Y.yXaXyXyXcXi.+.h ",
"2 9 x i.!.}.rXdXtXsXdX2XqXtXeXeX].1X[.wXsX&X~.eXdXtXsXsXeXwX[.tXyXtXsX[.E.|.`.E.].(.+X(.G.`.`.+X|.].|.(.}. XG.eXkXkXuXdXcXJ.J t ",
"= 8 ) Z.`.4XtXdXsXsXsX0XtXeXeXeX0XtXeX2XpXrX0XeXrXdXsX0X/.~.,X+XtX0XeX{.K.`.`.n.(.{.|.|.).)..X_.OXrX[.+X^.}.`.}.2X9XlXzXnXJ.x i ",
"+ 8 @Xg.~.2XwXdXeXsXtXtXsXqXeXeXpX0X*X-XsX2X[.eXeXpX4X`.E.~.2XeXrX'.}.4X`.`.`.(.(.E.).I.(.).).).+XtXrXrXrX}.{.[.2X2X6XdXkX5...s ",
"< ~ d.t.2X].4XdXtXtXtXqXsXsXsXdXaXyX;XuXqXwX0XeXyXeX4X[.'.0X1XdXaXtXeX5X[.].(.F.F.(.|.).(.).).)._.oX[.wXtXeX4XeXaXaXaXuX5X=.V a ",
"v 4.c k.1X]. XiXdXiXsXqXsXdX2X*XgX;X;X;X*X[.0XeX0XeX1XeXeXqXsXsXxXyX2X[. X|.`.{._.|.).|.|.|.|..X|.+XoXrXqXwXrXpXzX9XxXdXD.J C s ",
"8 a d C./.T.].4XeXrXeXwXsXcXyX=XuX-X-X6X$X1X4X4X XsXaXdXiX5XeXpX0X4X4X}. X].[.}.].].]. X|.|. X+X4X5XeXqX4XwXrX5X2XrXyXxXsX=.d f ",
"q 7 d V.~./.~.4X0XXX^.-XlXhXfX7X;X=X-X*X/.+X X0XtXsXyXdXsXrX0XwX[.}. X}.oXeX5XeXwX4X X X X X+X+X5XeXeXtX0X4XeXkXxXyXyXdXsX@.3 7 ",
"q 9 s V.~.~.1XeXzX0X/.*XgX=X-XgX-XuXqX0X[.+XoXeXeXyXsXpXwX[. X}.[.[. X XtXaXaXyXeXeXwX4X4X4X0X4X4XtXsXrX+X4XhXvXnXxXdXxXaX@.s & ",
"8 u a G.'.^.[.tXdXyX7X*X7X-X0X#X/.+XwXpX|.2XbXxXsXdXyX6XeXtX4X'.4X[.|. XaXxXxXyXeX5XeX4X1X1X4X4X[.4XwXrX!.sXbXnXnXnXlXlXkX4.f > ",
", 5 d G.~.A.!.aXyX*XfX-XyX-X2X/.2X|.4XaXA.5XxXiXrXsXdXdXaXpX5XeX4X4XoX0XpXlXzXdXwX2XeXqX1X4X2XwX[.0XwXoXtXpXkXxXxXhXkXhXaXk.F - ",
"4 4 C e.L.!.^.-XuX-XyXyXqX%X6X9X0X0X XrX/.4XqXoXrX5XyXkXkXaX9XqXqX2X[.[.pXkXzXpXeX0X2XwX0XwX0XwXwX2X0XeXeXpXpXpXaXaXpXsX}.z.+.& ",
"9 + m a.*XQ.9.*X@X;XuX6X-X6XtXqX^.oXE.4X1XqX2X[.wX4XpXaXuXpXpXeXeX0X4X1XpXdXaXeXrX2X2XwX0XeXrX4X2X[.wX/.2XpXdXaXuXkXaXuXK.c.@.& ",
": 4 / %X%X*X@XQ.=X%X;X&X0XeXrXtXtX1X1XwXqX2X4X1X4X0XeXeXpXsXpX5XwX2X4X0XtXiXpXeX2XeXeXqXeXeXrX0XoXoXoX!.0XpXzXxXbXbXnXnXU.b.#.& ",
"k >.J.H.=X#X=X'.6X%X*XeX4XyXsXsXeXqXtX1XqX2X2X[.}.[.4XrXwXeX5X`.0XrX1X0XtXpXpXpXeX0X2XeXrXoX+X+X0X XoXoXeXtXsXpXkXlXnXnX6XF.+.# ",
"D / ,.#X%X@XC.=X/.2XtXsXsXdXxXbXsXeXrX0X2X0X4X[.'.'.2X2X4X4XwX0X0X[.0XrXwXtXsXpXeXeXtXeX2X[.[.wX[.wXeX4X5XzXdX2X3XyXdXxX<XZ.&.& ",
"w 2 E gX%X~.g.Q./.wXsXzXzXzXxXnXsXqXeX4XqXqX0X[.4X1X2X2XeX2X+X XoX[.0XrX'.0XpXqXeXeXeXqXwXwX+X+X+X&XeXeXeXbXdXiXpXyX1XqX!.m.%.& ",
"2.B ^ ~.=X2Xf.Z.1X0XeXdXuXzXdXzXdXsX0X/.4X1X1X/.~.eX0X2X2XwX4X+X X|.+XwX[.0XtXeXqXwX2XwXrXrXwXXX0X0XqXrXdXbXzXvXnXnXvXxX5X_.O.# ",
"g N d.Z.@X%Xe.y. XoX0XtXzXxXzXsXdXdX1X1X[.eX2X2Xd.5X2X,X5XwX`.(. X|.|. X0XwXwX1X4X1X[.wXwX+X+X+X+X2X[.eXbXbXxXnXnXnXnXnX6XOX+.= ",
"s.q >.#X$X[.a.w. X1XoX].4X-XdXsXdXsX5X1X1XqX[.2X4X1X1X'.,X4X X`. X+X X X+XwX X4X XoX+X+X+X+X+X+XXX4X+XiXnXdXlXnXnXnXbXbX6XwX@.& ",
">.:.E !.:X!.g.q.1XqXtX0XoX/.eX2X2X,X1X~.1X1X[.eX1X'.1X1X!.!. X].`.|. X X X|. X X[.|. X X+X+X+XoXoX X+XzXbXyXkXxXnXbXaXyX5X+X#.- ",
"<.B ] /./.%XG.f.eXwXpXdXwXoXoXyX'.1X2X&X/.1XA.~.1X1X/.~./.'.'. X X X X{. X X{.`.|.+X+X+X+X+XrX+X X+XwXdXsXaXhXuXyXxXkXkXuXrX$.- ",
":.! Q /.&X1XA.K.5XeX:XsXrX`.'.qXqX1X!.'.&X&X~.$X6XQ./.[.~.1Xa.j.wX}.}.`. X'.}.}.+X4XwX4XwXrX4X X].wXpXkXuXxXbXnXbXfXhXzXpXwX%.& ",
">./ Q 1X2X'.T.V.K.^.1XqXeX[.].A./.oX[.K./.&X/.2X&X<X1X!.g.W.K.K.4XG.^.0X[.].1XeXaXpXtXeXeX].R.]. X5XpXaXqXqXaXxXnXnXzX2X3X|...r ",
"A V ] 1XeXqX1XK.V.y.E.4X&X1X'.Z.!.1X2X/.K.}.!.!./.1X[.[.~.!.&X~.^.K.~.'.^.[.,XwX/.tX X X4X2X4XOX].eXdXeX4XyXkXpXaXuXyX,X{.(.K < ",
"8 b 3.eXpX*X&X1X`.c.c.'.1XH.g.wX~.$X/.0XrX5X~.'./.^./.2X2X&X/.$X1X~./.1X4X[.~.0X X0X5XwX}.4XtXyXdXtXeX1X4XpXxXjXyXdXyXuX5X|.H o ",
"s d 3.pX6X1X0X[.wXy.e.`.!.0XqX~.^.!.Z.Z.wXpX9X5X4X2X9X2X!.!.4X6XyXQ.~.$X}.[.1X~.}.K.G.[.oXqXzXnXvXsXqX2X4X2XaXhXuXkX6X2X}.|.Y % ",
"^ h @.dX$X4X2X4XqX[.).S.~.2X2X$X2X4X!.Z.H.uXyX1X[.5X2X6X~.E.1XhX9X5X4XH.d.D.~.H.!.!.G.rXxXbXnXbXpXpXeXeXeX5XpXyX1XeXrX5X X(.| i ",
"Z D 6.aX2XE.$XpXqX[.[.tXaXqXqX0X6X9X2X[.&X2X$XE.~.~.&XlX9X`.2XxXuX'.K.f.V.~.~.~.'.'.5XzXxXxXiXiXdXpXqXeXpX4XeXlX9X<XpX5X,XtX*.2 ",
"h H f.yX^./.&XeX2X0X&X2XyXyXeXwX&XaX*Xd.5X9X5XoX'.1X7XdX/.!.$XvX5XA.E.`.E.'.3X2X}.}.,XeX,XtXwX XuXvXkXrX5X5XqXyXkX6X5X5X2XrX&.2 ",
"~ C 4.sX3XoX[.eXqX0X4X1X2XeXpXeXtXqX6X&X1XqX2X6XqX5XjXkX/.A.eXnX9X/.aXsX].$X2X}.1XG.v.(.'.eXaXkXhXxXaX6XeX[.0XzXjXxXzXaXaX{.*.8 ",
"D U =.tX[.&XyX2XrXpX~.^.[.eXpXyXaX2X8XpX[.;X9XyXcXaXlXuX}.eXlXnXuX$XaX9X1X<X2X[.}.!.K.}.].aXnXcXnXcXsXwX5X4XpXhXvXcXxXzX*X}.o.y ",
"A #.n wX*X2XH.wX5X5X0X5X2XpXpXyXqXeXpXpXpXyX2X5XnXhXuXzX0X2XlXzXyX5XpXaXpXqX[.wXyXtXrXpXpXpXkXnXnXxXpX3X`.5XxXbXvXcXbXlXpX{.X.e ",
"Z q.U y.1X<XF.~.yXrXsXtX0XyXaXpXaXqXwXeX9XqXoXkXnXdXpXaX,XkXgX9XaXeXtXyXpX2X'.4X5XyX2X&XaXzXkXzXlXdXtX4X+X XhXnXxXzXxXbXzX9X%.2 ",
"d q.3.t.D.U.3XkXlXxXxXxXnXnXlXvXwXpXlXzX<XaXuXfXnXG.D.D.I.@X8XgXL.t.4.V.V.{.S.I.3X5X4X1XuXlXaXwXsXqX4X}.9Xd.}.dXpXtXrXdXdXzX%.2 ",
"u ^ $._ w.,XxX%XR.V.B.7.d.i.r.t.k.n.Y.5Xw.S.Y.,Xt. .&.U 6.4.U 8XJ.c V H | H ^ ( 5.w.l.3XlXyXY.U.(.U.V.S.}.v.j.j.m.`.I..X/.sXY & ",
"+ 9 m / 4.B.<XY.S.n.=.+.4.B.6.I o.*.^ Z &.-.F U ^ { L =.| %.-.&.@.U  .| } %.h.+.F } H +.B.S.c.n.S.-.h.N.;.;.M.M.x.j.N.;..XsXd + ",
". + X % B F 3 g ^ k.Z k s l d , 8 N R T R 7 i s k 6 8 L x c U k s c t d V ..5.%.} J x b b F ..*.=.*.o.| | | { } { } { n } d + . "
};
