/* XPM */
static char *_63c37c5bdfd4403bb528b97e34462da8qEA9TlxnpjbgxHb[] = {
/* columns rows colors chars-per-pixel */
"64 64 31 1 ",
"  c #CED7E6",
". c #CFD8E7",
"X c #D0D9E8",
"o c #D1DAE9",
"O c #D2DBEA",
"+ c #D3DCEB",
"@ c #D4DDEC",
"# c #D5DEED",
"$ c #D6DFEE",
"% c #D7E0EF",
"& c #D8E1F0",
"* c #D9E2F1",
"= c #DAE3F2",
"- c #DBE4F3",
"; c #DCE5F4",
": c #DDE6F5",
"> c #DEE7F6",
", c #DFE8F7",
"< c #E0E9F8",
"1 c #E1EAF9",
"2 c #E2EBFA",
"3 c #E3ECFB",
"4 c #E4EDFC",
"5 c #E5EEFD",
"6 c #E6EFFE",
"7 c #E7F0FF",
"8 c #E8F1FF",
"9 c #E9F2FF",
"0 c #EAF3FF",
"q c #EBF4FF",
"w c #EDF6FF",
/* pixels */
";<;;,-*,*;<;;,,;<4<;47<;&@X@;,-***-,,-*;-;<<44743;;-**;7;3;;<;;<",
";;;<33,334<;,,;--48<<43;;;*XX&*+;***-;;-@@**;<<<,;-*-;,<<3<;-,3<",
";,;;<<<<47443<<-@,<<<8q4,;;@.@-*@*-%%;;*@@@**;;;,;;--***;%;<*;3,",
"<<;-;;;-;,<443;*@%***3884,44%+***<4<;<<,***%@@@%-;;-;-@@*@*<;*;<",
"43<;;,;-%-,444<;%%;;@@,4<;<7,*;-;<74<<34-;,***-*@*;;-;;;;<;*;;,4",
"433<;;<;;<344444;*;<;@%;%*;<<47<;;,;;,<4-<3;;;<<;;;;***;@<;%;434",
"4<4<-*;,;;343<<3<;;;,-;;;;;;,<<;<<<,<<48-;,<;--;<;;;@@@*@--*;34<",
"8443*@-;*;<44<<<34,***;4<-*-,;;<-<4<,,374<374*-3*+X@**-<4**<;,47",
"<7<34-**%-<444<-*<44<-*,3<;-*;<<4;;<*@;34<4743,;;;;;;;*%<<;@@**,",
"<7<3877<X+;883;;;<777<,<44<;;-<3<;;,-*;;<<48q73<34<;<<,;34<**;<3",
";4444477,&X@-;;;@*;,<<;,%;<4<<;;<<,,<;;;;-;<<<<4444<<<<;;<<,<;;<",
"%;<4<;<4<,*%;33;%***-**;*-;**&%*,4<;<<;;<,<3<,,<<44<<4<;;;;44<-;",
"*;3<<<;*&;;;;34<,<;**@%*;-*%%%*;;<,*--*;*;<47<;;;<443443,*@<4;@%",
"@;4,;4<*<;;-**;3;<<<;-*;*-*-;,<<;<<;-***+@-<3<;;*;,<<<<34-@*<;@*",
".X;;*44473;<<;-&;<<34<<443<-*;<3<<43,;;@&*;,,,<4-;;<,;;,83;;<3<3",
"4@&-**@&&;,**;;**;;;;;;<;;<<;-;,;;<4<<;+*<4<;;;<<<<473,;<3,*,43<",
"38w<<;;@X%-**,;*-;;-%%%%@%*;,,;***%@%;,&;;<,;;-,<;,<34444,;*%-<,",
"*<8<3<4<&&&-,<<3;<<;*&%%&@&***;--&&;;&&&&*344<;,;;*;<<<<<,;*@*-@",
"@&<,<;<3<;;;,<<3<<<<;;;;***;-;;;<,;;;;;,&-<<<<;;---;<447<<<;-;,*",
"@@*<4;;;44<;;33;434<<<34,;;<<,;-;<3,,444<;,-*;-;<<444<343;,;;;,;",
";&%;3<;;;<3,,44<<<<4433<;-;<<,;&@;44;<<<3,;&@**;,<474,,<4<,4<;;;",
"<;@*-,-&&*-;<<<3;;<<4<;**@@;,,,;;-;<<,;;;;<;;;;<@*;43<<34<<87<<<",
";,@%@;&@****;;,<;*-;<<;;;%*;;,<34;;;<<;;-;4<;;-,,,<4<;-*;;<44<,*",
"@,;-&<;*;;-&*<<;<,;<34884<<3;*-;%<84;<<<;,<;%&&;4<<<<;%+;,3<;;;@",
"*<43<443-;;-*@&-;;*%*<3844,,<;;3;&*;;;;,*-;;-%&<<*-<3,-*@--,,;<,",
";;;<<3<33<<;*&@%&**@@*;<74<;;;**;&&*-;,;%%-34<;&,---;3<;,,*;,<74",
"*-<33,<4<,;344,;;;;;-*-<444<,;%*,;,<<44<<;;<4<-&<<;-;34,<<;,<<44",
"%*,3<;,33<;<3<,;;<<<;*%*;374,**,%&;;;,;%;,,;&&;;3,;,,,<;,,-;,<<;",
"***-;<;*<,&@&;,<34444<*%*-,<<-*4<444,;,-;34<,;;;-*;;;,,;<,@%;47<",
"<<;;-;*&****-<44444444-%***;4<<4<<<,&%&%+&;;;;-%-;;-*<<<<4<<<<74",
"3444;&*;;<<<<<<,,<<;<<;%**%*<4<,<;;;*&*&@&;<3888<<,-&;33;444,;<3",
";;<44;;3<<<-*;;;<43,384<@*@X@;*@*%&<<,;*@;;;;34<4-*;**;43<&@;<4;",
",*;;<4;4774<<3<;*<7<<47<<;*@.*;+%-*@%&--+X%-**;;;<;**;;;,,;*%-34",
"<;,;;3;;<4443<;*@-;;<884<;<;XX;;&;<;;;;;@%**@*;;;<<;;*%+*%-,,;;-",
"<<<--,***;<43<<-@*-**;384,34;@*&-<43<<34-;;%+%*@@%*;;;;;-**%+%;3",
"44<,;;;-%;3444<,*;;;@@*<;%;47<<;;<3<,<44;<<,*;;-;--;**;;*-;*X@<4",
"44<<;;<3;<444333<;;;,-*;***;<<34<;<<;;<3-;<<;;<<<,;,-@@&@*<<-*;4",
"84,<*@-<-;<433<44<;;;*;<<;-;;<;;<-,3<<44<;<4;&;,*@@@&*-;<%%,,;<7",
"47<<;%-*@*<44<<,<<4<*@;4<;**<<<;<*,3;;3374783;<<**@%**;;3-*;3<<,",
";43743<*@-<884;--,887<;;44<;*@-4<;,,@+;;<<4884<;<<<3<<;&44<**<4-",
"444<4848@%*;,;;<;,343<,<;<4<<;<<3<;;,;-*;;<84443344;;<;%;44;*;44",
"*;444438<*+@;<;-%%*--*;,-;<-;*-*,<3<<,;<;;,<<,<,444<<43<,<<,--;;",
"*;4<<<;;<;*-,<43;;**&&&***-@;**%;4<,;;;;,;<443<<;<4<<4<4<<<4<*@%",
"@;4,;4<*&;;;-*<3<<<,-***---*;;;,<<;*-;*&&&;<<<,;;<4334<34<<43-*&",
"X@<<;<444<-**---;<44,,,,<,,*,;<4<4<;<,-**&;<<<<;;;;;;3<3<3<<<<<;",
"*X&;**;<74,;<<;**<443<343<3;;*;<;<444<;,%+@@&**&@%***;;*<4<,,<4<",
"4@@*%**%-;<<33<;;,3<3444444;,@*;-;3783;<;**;;;,;@*;*;<;*;,<;;,<3",
"<-;*@,3;<,;,4874**--;<<4447<<***<;;<44<<<;;343<;@**+@;;-*;;;**;<",
";,<<;*,<3<;&%;34,*;4,%;<,4878;*;<;&-,;;<;;;,3444<*%;;@%,%;<,<;%*",
";*&;-&*,<3<;*;;;;-;<;-<43*;<;,3-<<;<3,;;-*@*;<484,;<4<<3;<<<3<&*",
";&@-,;-*33<*@%**;*;;;;33q4<;333<;;**;;-;;,;;<<;;43;;;<<<<<474<*;",
",,;;<7<*;<;*%*;;<<;;*&;<7w4<4<*;;-&*;<,<,<<<47<;,<<;**;;,,4774,,",
"<<;;<44;*;,,<43<3<<;%X@<<<44,,<@****;;;;<<,;<3<<*;<44,,<<,<<<7<;",
"4;&*--;<,<<<<44<,348<@X@,<<<<4<-&-*&-;;;,,;;<3<<,--,<,<<,<4<;<<3",
"4-%&&%*<343;;<<<;3447;@+*<;%<<;<<4,-;<<<*;;<44444;@@*;,<;;48,;<7",
"3<-***;,*,4<<<3344;-<3;*&;<,*;84<84<<<-%3<,;;;;4,;-**;<4<@;8q8<<",
";;;<;;,,;;;<;<434<;;,<,@<;<;@%<<444;<34*;343;;;;4<-;;*<34<;;47<;",
"<;;,;;<<<-*-;<,*;-,<;,,;-;<4<*%,;<<-;;<;;*;;;,<7<3;-**;;34<,;,,<",
"73<<;;<<<3;@%--;-;<<,<3<**;4q<X%*;,;***-@+@<44<47q4,*@*@<,;;<<44",
"4333;-;<<4<&@@*<;;;;;<<<44<<44*@-,,3--@****-<444<44<,;;;;;--<444",
"**,3,-;<,3;-;<*%<;-*;,,<;,<<*;;;;,;4;<*-;,;;;<4<488q4;;;;;,;;;,;",
"@@;<<;,<<<,;<4,*<<<,;;;4%X-<;;<;;,;<<<<<*,<;-;;*<<388<48;;;;,<<;",
"-%-<3<;;<3<,;<43<4344<;<<;;<3<-*;,3<<;<<*;-*@&-;34<3<,4<4,-*<74;",
";@%,<<;-;;<;-<4,,<;<4<%%@;*&,3;;*;4<<*-*+@*;,;<<,3;--,4<74<;*;<<"
};
