/* XPM */
static char *_320a470374b4f78a262375c5dcbfd4eaZPPCYL0oX2SWpus[] = {
/* columns rows colors chars-per-pixel */
"64 64 241 2 ",
"   c #0E2229",
".  c #142431",
"X  c #172B3C",
"o  c #192D3E",
"O  c #0C1C40",
"+  c #0C2E4D",
"@  c #1C3244",
"#  c #14344A",
"$  c #0A3359",
"%  c #0B3659",
"&  c #163857",
"*  c #143A5B",
"=  c #0B3967",
"-  c #163A63",
";  c #123E64",
":  c #123F70",
">  c #1B445B",
",  c #28465A",
"<  c #194468",
"1  c #0D4673",
"2  c #174B77",
"3  c #1C5377",
"4  c #214566",
"5  c #264D66",
"6  c #264E69",
"7  c #294E6A",
"8  c #2C526C",
"9  c #31546D",
"0  c #244C74",
"q  c #2C5674",
"w  c #275878",
"e  c #335878",
"r  c #2B647C",
"t  c #37647C",
"y  c #486675",
"u  c #125582",
"i  c #255C85",
"p  c #355F82",
"a  c #326282",
"s  c #386789",
"d  c #37718C",
"f  c #2B6890",
"g  c #376B96",
"h  c #387196",
"j  c #3F7DA7",
"k  c #496A84",
"l  c #45738A",
"z  c #58778F",
"x  c #467995",
"c  c #447B9C",
"v  c #627F97",
"b  c #447EA3",
"n  c #4C7EA2",
"m  c #4A7FB5",
"M  c #3E83AC",
"N  c #3586B8",
"B  c #4A839C",
"V  c #558398",
"C  c #678A9A",
"Z  c #758A9E",
"A  c #4683A3",
"S  c #4986A6",
"D  c #4B89A7",
"F  c #4284A9",
"G  c #4B86AB",
"H  c #4D8BAA",
"J  c #5B8BA2",
"K  c #5888A4",
"L  c #518DAB",
"P  c #5C94A5",
"I  c #5591AE",
"U  c #5B94A9",
"Y  c #468BB7",
"T  c #4D8DB5",
"R  c #538DB3",
"E  c #558FBD",
"W  c #4F93B5",
"Q  c #5292B5",
"!  c #5C9BB3",
"~  c #5797BB",
"^  c #5A95BB",
"/  c #628CA3",
"(  c #6885AC",
")  c #6696AA",
"_  c #7495A8",
"`  c #6699B5",
"'  c #769BB6",
"]  c #59A6BC",
"[  c #6CA3B8",
"{  c #73A3B5",
"}  c #71A9B7",
"|  c #74A6B8",
" . c #7AABBC",
".. c #3F9AC6",
"X. c #478EC4",
"o. c #4A98C4",
"O. c #589BC5",
"+. c #6295C4",
"@. c #5CB2DA",
"#. c #64A5C3",
"$. c #69A8C8",
"%. c #77ABC5",
"&. c #76B3CD",
"*. c #7BB6C8",
"=. c #69ABD1",
"-. c #76ADD2",
";. c #66B2D6",
":. c #78B4D4",
">. c #7BBCD6",
",. c #7CBED9",
"<. c #7CBCE2",
"1. c #7FC1DA",
"2. c #7DCCE7",
"3. c #8B9CB2",
"4. c #8BA9B8",
"5. c #98AEBB",
"6. c #87B5BC",
"7. c #92B2BA",
"8. c #85B7CB",
"9. c #92B5CB",
"0. c #86BAD6",
"q. c #A3BECC",
"w. c #8DBFE0",
"e. c #8AC3D3",
"r. c #88C7D4",
"t. c #82C3DB",
"y. c #89C6DC",
"u. c #8ECBDB",
"i. c #93C4D3",
"p. c #99C7D5",
"a. c #96C9D2",
"s. c #94CAD6",
"d. c #92CBDC",
"f. c #9BCCDA",
"g. c #99D2DA",
"h. c #ACC6D4",
"j. c #A7CDD8",
"k. c #A3D3DD",
"l. c #A9D7DD",
"z. c #87C7E4",
"x. c #8ECDE2",
"c. c #95C6E5",
"v. c #94CDE2",
"b. c #9BCDE1",
"n. c #88D3E7",
"m. c #94D2E3",
"M. c #9DD4E4",
"N. c #9CD5EB",
"B. c #9BD9E9",
"V. c #9AD9EC",
"C. c #89D8F2",
"Z. c #92D9F6",
"A. c #9EDEF3",
"S. c #A8CBE1",
"D. c #A3D4E4",
"F. c #ABD2E4",
"G. c #A4DAE5",
"H. c #ACDBE5",
"J. c #A5D4EB",
"K. c #A5DCEB",
"L. c #ABDCEB",
"P. c #B2DBE3",
"I. c #B8D5E8",
"U. c #B3DDEB",
"Y. c #BADEEC",
"T. c #A2DAF3",
"R. c #ABDDF1",
"E. c #B3DDF2",
"W. c #BBD9F2",
"Q. c #9FE0F4",
"!. c #ABE3E8",
"~. c #ACE2ED",
"^. c #B3E2E5",
"/. c #BAE4E7",
"(. c #B4E3ED",
"). c #BBE4ED",
"_. c #B4E9EF",
"`. c #BCE9ED",
"'. c #A2E3F6",
"]. c #ACE4F3",
"[. c #ACE8F8",
"{. c #B4E5F2",
"}. c #BBE6F3",
"|. c #B5EAF4",
" X c #BCEBF4",
".X c #B7E6F8",
"XX c #BDE6F8",
"oX c #B5EBFA",
"OX c #BBECF9",
"+X c #ADF1FD",
"@X c #B4F2F6",
"#X c #BDF1F5",
"$X c #BDF2FB",
"%X c #C6DDEB",
"&X c #CAE3E5",
"*X c #C3E4EB",
"=X c #CBE4EB",
"-X c #C3EBED",
";X c #CCEAED",
":X c #D7E7EA",
">X c #D5ECED",
",X c #C5F1ED",
"<X c #DAF5EF",
"1X c #C3E5F1",
"2X c #CBE4F1",
"3X c #C3ECF4",
"4X c #CBECF4",
"5X c #C3E7FB",
"6X c #CEE7F9",
"7X c #C3EDFA",
"8X c #CBEEFA",
"9X c #D3EDF4",
"0X c #DBEDF4",
"qX c #D7E9F9",
"wX c #D3EDFA",
"eX c #C4F2F6",
"rX c #CBF2F5",
"tX c #C4F2FB",
"yX c #CBF4FB",
"uX c #C6F9FD",
"iX c #CDF9FD",
"pX c #D4F3F5",
"aX c #DBF3F5",
"sX c #D8F9F6",
"dX c #D3F4FC",
"fX c #DBF5FB",
"gX c #D4FAFD",
"hX c #DCFBFD",
"jX c #E5F0EB",
"kX c #E4EEF1",
"lX c #E4F4F5",
"zX c #EAF9F6",
"xX c #E2F5FC",
"cX c #EBF5FC",
"vX c #E3FCFD",
"bX c #EBFCFD",
"nX c #F6F7F5",
"mX c #F3FCF6",
"MX c #F3F6FA",
"NX c #F4FCFD",
"BX c #FDFDFE",
/* pixels */
". # , & #   . > t t l l t s s x V V [ %.| { J ) K V V n n J V C J / / C / _ ' { { 4.4.4.4.7.7.5.4._ C v z z k 9 7 < 7 e e J # . ",
"# r } ) & 9 _ { M.K.L.}.(.}.{.oX7X X8.` ) x w 2 ; % - % = ; - % + % * * % $ = < 2 0 q a d H ! ! P P P [ { }  .V V l J V q 6 & # ",
"C 0.vXvXg.8.x.k.i.f.L. X).}.H.(.F.f. .*.| { ) B d q 6 < w a x J ) ` ` U x a < = % $ + + e ' %.`  .i. X1X8X8X1XyX/.H.$X X~.[ 3 > ",
") D.bX*Xk.H.!.G.M.s.v.d.N.M.k.H.R.K.R.tXtXiXtX`.].f.i.k.H.~.{. XyX3X1XtXtX XH.F.j.p.a.7.h.h.6.6.j.H.H.l.P.l.^.^.j.H. X`. X].*.& ",
"V (.M.&.J.E.k.D.m.m.M.m.B.d.K.|.|.|.OX|. XyXyXtX7XtXuXyX9XyXyX4X(. XOX}. X1X*X).yXyXyX`.4X*X*X`.}.U.(.U.k.i.i.D.). XD.L.(.).{.w ",
"x  X[ t.].N.K.D.M.].3XyXyXtX$XOX#XeXtXOX|.OXtXtX{.OXOX XgXvXvXeX{.(.{.OX$X|.OXuX7X X X XH.H.(.(.P.P.`.eXOXH.s.M.K.U.}.m.G.rX Xd ",
"K F.&.K.k.M.D.B.{.yXvXvXsXgXtX7X{.OXOXoX|.~.~.|.|.{.|.|.eXrXiXeX X XOX XtXyXiXdXfXdXyXtX{.K.~.H.4X*X4XeXeXtXeXH.u.i.K.oX~.#XL.h ",
"P b.t.v.s.g.H.(. XgXvXhXgXtXuX X~.].].K.K.oXoXoXOXoXoXOXOX|.$X7XOXOXOX X X3XyXgXsXgXdX XOXk.).wX3XY. X X#X XOXOXD.e.v.L.).(.'.f ",
"P x.-.G.e.D.).].rXbXvXbXhXgXdXeX].].M.~.OX XOXOXeXiX_.OXOXOX|.{.OXOXOX|.{.|.OXeXyX XOXOXOX$X`.*X).`. X(. XOX|.OX7X!.N.}.eX7X{.O.",
"` &.^ ~.D.K.D. XbXbXvXbXbXvXdXiXtXOX{.OX|.|.$X$XL uX XeXOX(.~.(.{.{.OXoX|.|.|.{.OXtXrX8X}.(.OX X}. X X(. X X).(.`.`.5XdXrX XyXR ",
"` #.~ ].k.d.N.rXbXbXvXbXvXgXiXuXeX7X7XOX].].oX$XBXL L L OX{.L.L.D.G.].|.oXOXoX{.+XgXxXpXB @ S (.(.{.|.{.{. X3X3X7XOX7X`.7X XdXR ",
"[ R #.K.f.>.T.vXbXbXsXvXvXhXiX#X7X7X7XOX{.~.K.|.{.BXBXL I H H G.M.M.K.].oX$Xy.t.A.1.7 o yXX X A A S {.~.L.L.).3X}.].eX,X7X5XdX^ ",
"%.G y.k.e.r.OXhXbXbXNXvXhXdX X7X7XOX$XuXiXyX{.{.'.'.'.BXBXdXdXH S m.N.].t.t.Q.Q.Q.5 X X @ @ y X A H L.L.D.K.{.|.OX(.9XNXfXyXtXA ",
"[ H 0.g.u.M.yXeXsXvXbXgXiXyX X}.{.].#XgXsXhXeX'.BXBXBX'.iXiXT.L L D t.t.'.A.t.'.'.5 X X X o y o 5 '.H H H M.K.L.{.(.=XNXfXdX@Xh ",
"[ *.[ u.b.H.eXl.P.gXrXeX X X$X XOX XiXhXhXhXiXBX'.'.'.BX'.'.H H >.'.'.'.yXt.'.'.'.m.X X X X X 6 5 Q.'.'.'.H G.L.D. X4XhXfX8XoXh ",
"%.r.! m.L.(.$XtX9XiXeX XeXiX$X7XeXiXsXhXvXvXrX3XBXBXiX'.'.H ,.>.,.'.iX'.'.iX'.'.V.V.5 5 X 5 6 6 yX'.'.'.'.'.S L {.9XcXhXaXrX[.f ",
"%.! Q G.(.OXOXyXgXyXtXtXgXdXtXtXgXgXgXfXvXyXOX-XH H H '.H >.Q.Q.iX'.'.'.'.'.t.'.'.'.V.5 5 m.}.yX'.'.'.'.A.H >.>.L.wXMXBXbX`.Z.i ",
"l D T G.U.OXOX).iX7XeXuXiXyX3XeXgXiXgXgX/.`.tX}.`.dXS H >.Q.'.'.BXBX'.'.'.A.A.'.A.A.'.V.'.'.'.'.'.'.'.'.'.>.,.H (.yX0XcXxX2XZ.i ",
"* s ^ f.(.|.eXyXuXyXgXgXgXyXuXtXiXyXhXyX`.^.3X7XsXL H S >.Q.'.iXA.L A.L BXBX>.L L L A.'.'.'.'.'.'.'.'.'.'.A.H D `.8XwXxX4XOXn.u ",
"0 A F e.{.|.7XgXuXrXvXvXgXyXtXtXgXhXgXrX7X X XgXlXS H >.Q.I '.'.D BXH BXBXBXBXBXBXBXA.A.iX'.'.'.'.'.'.'.'.A.>.,.H 1X7X8X`.$Xz.1 ",
"< ^ ~ s.(.{.uXgXeXpXbXvXdXiXyXrXbXvXgXyX XOX3XsXS ,.A.A.'.H H NXBXBX'.'.'.Q.BXBXy.A.H H Q.iX'.'.'.'.'.'.'.A.H >.>. XoX3X4X5Xv.1 ",
"< L O.s.OXL.OX4XtXyXhXgXyXhXvXbXBXvXyXyXtXOX4XS ,.'.'.'.H BXBXBXBXBXBXBXBXt.NXt.'.t.Q.'.'.iXiX'.'.'.'.'.'.1.H H S 4X7XvXpXU.B.1 ",
"< d c f.{.f.~.eXtXeXtXiXiXsXsXvXvXhX`.yXyXeX4XD ,.A.H L MX'.BXBXy.t.t.'.'.'.'.'.'.'.'.'.'.iX'.'.'.'.'.'.Q.1.>.H }.9XdXNXlXS.J.: ",
"4 w n p.(.f.].`.^.uXgXyX8XrXuXOX{.eX-XiXdXdXD 1.,.H L MXBXBX'.'.y.1.1.'.'.'.'.iXt.A.'.'.'.'.'.Q.1X'.'.1X6 ,.,.H 2XbXvXnXbXF.u.1 ",
"+ > c b._.D.~.7X XgXgXiXyXiXyX8X7X7XdX4XD 1.1.1.H A.BXBXBXBX1.1.1.1.Q.'.'.'.'.'.'.t.Q.'.'.'.'.Q.q 9 X o 6 ,.H `.zXBXMXBXnXU.0.b ",
"# @ s 9./.L.(.yXyXgXdXyXyXtXyX8X). X8X XD 1.D H MXBX'.BX1.1.t.'.'.'.'.'.'.iX'.yXiX1.'.'.'.'.'.Q.6 `.o y X A v.K.vXNXfXNXBXK.:.S ",
"- @ G 8.-XR.#X8XgXgXhXgXgXyXyX8X(.3X7X|.D 1.D MXBXBXt.'.1.t.'.'.'.'.'.'.'.yX'.'.'.t.'.'.'.'.A.7 6 X X X o 5 e.E.pXfXrXpXmXf.#.l ",
"< e b d.(.OXuXhXgXgXhX4XyXiXyXyXOX1XD D 1.1.D MXBXBXt.1.'.t.'.'.'.'.'.'.'.'.'.'.'.'.L '.t.1.>.X X X X X o 5 D.8XxXxXaXhXmXI.R a ",
"< 3 ' G.{.7XiXhXgXgXgX4XiXiXyXyX$XyXD 1.D D MXBXy.t.t.'.'.iX'.'.'.'.'.'.'.'.'.'.t.'.,.1.1.1.1.7 X X 7 8 5 {.{.OX3XwXcXbXBXI.j s ",
"# w Y.l.).3XtXfXrXgXiXyXiXrXyXyXdX3XD 1.D MXBXy.1.1.'.'.iXiXiX'.'.'.'.'.'.'.t.t.1.1.>.,.1.1.1.>.7 7 S #X X}..XOX8XyX9XvXxX0.O.g ",
"< ` S.p.3X XtXhXgXiXiXyXgXgXgXgX0X;XD 1.D MXBXy.1.'.'.'.'.'.'.'.1.1.t.1.1.1.1.1.1.1.H ,.1.,.H H >.A (.OXiXyX7XyXxXfXfXsX4X>.G f ",
"m 8.n x.3X|.OXsXhXgXgXrXgXvX4X*XD 1.D D MXy.y.1.1.'.'.'.'.'.iXQ.t.1.1.1.1.1.1.,.1.1.,.H L L ].oX].{.tXuXrXtXtXgXvXdXbXvXL.T H g ",
"w d h H.`.!.{.7XtXyXyXtXgXzXpX&XD 1.D >.1.y.1.1.'.'.'.'.'.t.t.'.t.1.'.t.1.1.1.D D ,.,.H oX|.OXOX7XyXrXrX7X7XiX7X4XiXdXbXgX:.j g ",
"a 0 g D.).`.).8X4X@X_.>XcXlXjX0XD 1.,.1.1.1.1.1.t.'.'.t.'.1.1.'.t.t.Q.1.1.1.1.D S S OXOXOXOX$XOX8XyXrXgXtXeXyXvXbXpXdXhXgX%.3 3 ",
"t e g D.).`.1XyXvXeX`.;XkX;X>X1.1.1.1.1.1.1.1.1.t.t.1.1.t.t.T.t.'.t.,.H 1.S D yXS tXtX7X X7XtX7XtXiXdXtX$X7XlXBXBXbXhXvXsX%.h = ",
"w a g K.}.(. XiXhXpX0X4X>X>X XS ,.1.1.1.1.Q.1.1.1.1.1.1.1.1.t.1.t.1.H OXS '.BX'.D H yX7X3X7X7X7X XeXtXuX(.dXNXBXBXBXcXzXxX0.j : ",
"< 6 h K.).H.(.hXpX4XkX>XrX:X*XS ,.1.1.1.1.t.'.'.1.1.,.,.,.H 1X X1.H |.7XS Q.BX'.H H 3XyX7X7X7XtX XeXtX XiXgXxXbXbXlXxXxXfXc.T : ",
"4 7 S s.).(.(.9X0X>XpXaXrX%X;XH ,.A.1.A.Q.t.1.1.1.1.,.H H fX3XrXrX3X XH Q.BXBX'.iXH 3XyXeXtXtXtX8X3XeXyXrXgXdXpXfXfXdXgX XN.%.= ",
"e & B g.4X).p.=X=X:XaX9X>XwXH >.1.1.t.1.t.Q.'.,.1.D yXfXdXfXdXyXyX3XH H MX'.'.BXH rXrXrXtXyXtXeX3X1XtX`.tXdXhXfXfXvXfXsX(.m.} = ",
", 5 ' =X=X=X%X/.=X=X:X,XeXyXH >.1.t.t.t.1.1.,.H H  XyXyXdXgXdXrXtX7XD NX'.BX'.BXH yXyXyXrXyXtXeX#X#X X(.eXgXbXNXNXBXBXBXU.V.*.= ",
"x 4.h.^.:X&X=XOX4X;X;XyXeXrXiXL 1.1.Q.,.1.,.D  XOX X7XyXtXyX7X).eXtX7XNX'.BX'.MXL L rXyXtXeX$XtX3XOX7X#XyXiXgXdXfXbXBXBX9XG.$.% ",
"P ' 5.*X=X*XF.:X`.4XgXgXgXhXbXL >.1.1.,.H L 3X X}.}.7X3XyX7XeXeXeX7XeX'.BX'.MXMXH yXiXyX7X XOX$X XeXyX7XyXvXhX8X7XdXfXbX4XK.-.= ",
"y 3 ) kX&X).l.).`.tXgXvXhXfXI ,.1.1.1.,.H 3XtX3X7X1X3XrXyXeXeXOX X XuXuX`.'.MXH yXyXyXyXtXeX$X$XOX3XyXyXyXNXhXdXwXpX3XrXU.B.$.= ",
"9.Z [ (.:X4Xk.G.3X7XyXsXaXvXL ,.1.,.S H 7X3X3X).).yX8X3X1XyXeXtXOXOXtXtX XMXH H yXrXeXtXyXiXtXOXtXeXyXtXhXNXvXNXNXBXbXbX6X[.$.= ",
"k C j.G.%X*Xd.s.OX XeXiXvXbXL >.1.1.>.S 3XyX8X4Xl.3X3X1X8XyX{.{.OXoX|.OXeXtX7X3XeX7XeXeXtXtX$X$X$XyX XuXNXNXbXBXBXBXBXBX9X@X$.= ",
"q.t 7.*X1X Xg.y.7X7XtX_.7X;XL >.1.1.t.H L L H 8X7X3X3X1X3X7XOX{.OX$XOXOXtXtX X XOX$X$X$X$X$X$X$X@X5X$XgXBXhXcXBXBXBXBXNXwXtX%.- ",
"4.3.) (.,X/.G.e.3X8XgXtXL S yX1.'.yXtXS S S S yX3X`.3X1X(.(.OX{.{.OXOXOXOXOXOXOXOXOXOXOX$X$X$X$X@X7XtXvXNXpXlXbXBXNXfXpX8XtX&.; ",
"6._ | }.`.=X~.k.rXrXdXhXH S yX'.dXiX'.tXtXtXS L 1X1X`.`.`. X XOXOXOXOXOXOXOXOX{.|.OX$XOX$X$X$X X XOXeXhXgXxXvXfXpXvXxXbXaXuX>.< ",
"3._ `  X;X7XH.U.iXtXk.gXL S iX'.iXdXiX'.dXdXtXS L ^.`. X).3Xg.x.7XOX X}.oXOX}. XeX7XtXtXeXyX7XOX|.tXdXxXfXvXNXBXNXjXlXvXdXeX=.; ",
"4.' ) 7X3X`.!.D.U.(.7XS S S iXiX'.BXBX'.'.'.tXtXeXI 1X(.G.^.Y.R.7XL.(.eXOX X3XyXfXgXyXyXyX|.~.OXOXtXgXfXrXrXfXbXBXBXbX4X7XoXO.w ",
"V F  .1XyXrX1XU.D.d.~.L iXBXBX].BXBXBXBXBXBXBXBXMXI  X X`.`.-X}.).~.(.}._. X3XtX`.yX7X X8X4X7X+XoXyXfXyX3XdXxXdXfXsXpX1X{.[.W - ",
"w F *.iXyXrX-X3X(.M.m.L yXBXBX'.BXBXBXBXBX'.BXBXI H 3X1X4X-X`.`.4X). X3X7X X).7X7X7X7XtXOX XyXdXhXiXyX3X7XgXbXzXdXhXpXdX8XoXW + ",
"h c 8.dX9X3XuX3X3Xs.u.[.yXBXBX].BXBXBXBXBXBXBXBXMXMXwX1X/.(.7XqXdX/.).1X X3X3X).}.U.L. X XrXbXBXbXdXrX1X7XyXfXlXqXxXpX4XOXoX~ * ",
"` l  .hX=XeX3X8XrX XK.BXBXBXBXBXBXBXBXBX^.aXdX7X7X8Xt.t.`.~.3XfXwX8X3XP.j.H.Y.P.(.{.{.tXvXBXBXNXgXdXyXyXdX8XdXdX3XyXiXtXOX].~ s ",
"J L i.fX3XU.*XdXrX X XL L BXBX'.BXBX3X X`.4X*X(.).).-XxX9X|.3XbXdX`.L.D.D.(.).).}. X4XvXbXvXsXsXfXdXrXiXdX7X8XcXdX4XdX6X2XiX=.2 ",
"l Q S.dX(. X-XrX3XtX-X*X4Xy.BX'.'.fX4Xj.yXwX8X X X1XfXvX`.(.*XNX4XH.~.{.~.}.8X3X X}.7XyX1XyXtX7X<XMXxXyX8X8XrXfXxX;XyXyX4XrX;.2 ",
"` S 0.sX5X3X#X8XrXeX7X1X8X8Xy.BXBXrX9X-X1XrX8XpXrX5XcXvX`.H.8XBXdX`.fXfX|.*XrXXX3X~.M.].|.rXfXxXzXbXfXrXyX XrXvXzXbXbXfXdX.X@.i ",
"U ` :.gXOX-XrX3XtXdX)._. XyX3XBXBXBXqXyX X4X9XdXmXfXzXaX{.yXbXBXfX*XgXwX X=X8X X5X{.E.XX|.fXBXNXBXzXgXtX7X7XdXlXNXmXzXvX;XOX@.i ",
"/ &.N tX;X3X^.eXwXyXeXrX4XyXy.y.y.rXgXgXdXpX3X8XBXvXaXvXeX4XcXvXgX8XdXfXdX4X X7XpXuXyXdXwXdXxXBXBXbXdX5X{.tXbXNXNXmXNXcXdX{.@.2 ",
"K e.~ u.-X6XK.`.dXyXiXiX,XpXdXyXdXrX7XyXdXrX7XxXBXfXdXfX3XxXlXpXdXyXiXrXdX3X|.7X4XgXrX4XfXbXvXvXMXvXdX7X$X7XlXBXbXvXbXNXvXdX=.2 ",
"h r.8.i.L.U.}.aXbXbXbXNXBXBXcXNXtXy.xXxX2XfX0XlXBXD.F.I.K.%XqXkXY.p.0.D.D.[.G.R.7X7X3X-XsXcXxXtXgX4XOXOXwXj.}.hXdXyX8XhXhXvX=.2 ",
"t ` *.{ y.1XbX2XK.M.F.q.j.f.i.p.c.M.W.8Xu.M.W.2Xf.$.-.~ 0.0.` qXI.n F T +.R ` ] 0.y.m.5XcXwXY.E.].E.b.D.XXD.n.x.V.{.R.[.`.gXo.= ",
"# q B ' 8.F.2XW.F.N.,.#.0.F.w.~ ;.;.` K =.<.Y ^ ` o.R :.O.$.<.-.%.^ +.E O.=.c.$.Y E T $.S.J.m.J.J.<.z.A.2.2.C.Z.z.x.Z.C.+XiXc # ",
". # O & / ( w k ' c.K c g c s < r v ( ) J q s s x q 3 Q b A ! x h c p x F ] w.=.o.Q j M M T O.;.,.;.@.O.~ O.o.o.o.X.X.N ..d # . "
};
