/* XPM */
static char *e4ea41113f2c41e780ab22a3b5623132eXw4bLWMe0HHme1v[] = {
/* columns rows colors chars-per-pixel */
"64 64 239 2 ",
"   c #0F2328",
".  c #152531",
"X  c #0D1C40",
"o  c #0C2E4D",
"O  c #1A3246",
"+  c #14344B",
"@  c #0B3559",
"#  c #163857",
"$  c #143A5A",
"%  c #0B3967",
"&  c #143B63",
"*  c #123E70",
"=  c #1B445A",
"-  c #27465A",
";  c #1A4568",
":  c #0D4672",
">  c #174B77",
",  c #1D5377",
"<  c #244966",
"1  c #254D6B",
"2  c #31536D",
"3  c #244D74",
"4  c #275877",
"5  c #335878",
"6  c #2B637C",
"7  c #38647C",
"8  c #49697A",
"9  c #125583",
"0  c #255C85",
"q  c #355F82",
"w  c #366687",
"e  c #37728B",
"r  c #2B6790",
"t  c #366B96",
"y  c #387196",
"u  c #3F7EA6",
"i  c #486A84",
"p  c #45738B",
"a  c #58778F",
"s  c #467995",
"d  c #437B9C",
"f  c #487EA3",
"g  c #4B7FB4",
"h  c #4D6EF5",
"j  c #4E6EF9",
"k  c #516EF5",
"l  c #4D71F5",
"z  c #4E71F8",
"x  c #5374F5",
"c  c #5976F5",
"v  c #557AF5",
"b  c #5B7BF5",
"n  c #5274F9",
"m  c #557BF9",
"M  c #5A7CF9",
"N  c #617DF6",
"B  c #3985B2",
"V  c #4B849C",
"C  c #558399",
"Z  c #678A9A",
"A  c #758B9F",
"S  c #4886A8",
"D  c #5788A5",
"F  c #5C8BA2",
"G  c #5C94A4",
"H  c #5B93A9",
"J  c #468BB7",
"K  c #4D8DB5",
"L  c #538CB3",
"P  c #548EBC",
"I  c #4F94B6",
"U  c #5797B8",
"Y  c #5A95BB",
"T  c #628CA3",
"R  c #6885AC",
"E  c #6696AA",
"W  c #7595A8",
"Q  c #6699B5",
"!  c #769BB7",
"~  c #59A6BC",
"^  c #6CA4B8",
"/  c #74A5B7",
"(  c #72AAB7",
")  c #7AABBD",
"_  c #3F9AC6",
"`  c #468FC4",
"'  c #4A97C4",
"]  c #599BC5",
"[  c #6295C4",
"{  c #5AAAD3",
"}  c #67A8C7",
"|  c #78ABC5",
" . c #76B3CD",
".. c #7CB6C8",
"X. c #68ABD2",
"o. c #76ADD2",
"O. c #66B3D6",
"+. c #79B7D7",
"@. c #5E83F5",
"#. c #5E81F8",
"$. c #6283F5",
"%. c #648AF5",
"&. c #6A8CF5",
"*. c #6887F8",
"=. c #728AF8",
"-. c #6B91F5",
";. c #7295F4",
":. c #749AF4",
">. c #7899F9",
",. c #7BBBE2",
"<. c #7CA2F3",
"1. c #7BA6F7",
"2. c #7DCCE6",
"3. c #8B9CB2",
"4. c #8BA9B8",
"5. c #94AFBB",
"6. c #87B5BC",
"7. c #85B7CB",
"8. c #92B6CB",
"9. c #86BAD5",
"0. c #A4BECD",
"q. c #839BF9",
"w. c #8DBEE0",
"e. c #8AABF3",
"r. c #88A8F7",
"t. c #93ABF7",
"y. c #8BB4F6",
"u. c #96B8F6",
"i. c #A5BBF7",
"p. c #8AC4D2",
"a. c #88C6D8",
"s. c #8ECADB",
"d. c #93C4D2",
"f. c #9AC7D5",
"g. c #97C9D2",
"h. c #94CAD6",
"j. c #92CBDC",
"k. c #9BCCDA",
"l. c #99D2DA",
"z. c #ACC6D5",
"x. c #A7CDD8",
"c. c #A3D3DC",
"v. c #A9D8DC",
"b. c #8ACAE3",
"n. c #94CDE2",
"m. c #98CAE3",
"M. c #89D6EC",
"N. c #94D2E3",
"B. c #9CD4E4",
"V. c #9BD5EB",
"C. c #9BD9EA",
"Z. c #9CC6F5",
"A. c #93DAF6",
"S. c #A8CBE1",
"D. c #A3D4E4",
"F. c #ABD2E4",
"G. c #A4DBE5",
"H. c #ACDBE5",
"J. c #A6D4EB",
"K. c #A5DBEB",
"L. c #ABDCEB",
"P. c #B3DCE3",
"I. c #B7D5E9",
"U. c #B3DDEC",
"Y. c #BADEED",
"T. c #A7C6F6",
"R. c #B7C9F9",
"E. c #B4CCFA",
"W. c #A7D5F4",
"Q. c #ABDCF1",
"!. c #B3DCF2",
"~. c #BBDDF3",
"^. c #B9D6F8",
"/. c #ABE3E8",
"(. c #ADE2ED",
"). c #B3E2E5",
"_. c #B5E7EB",
"`. c #B4E3ED",
"'. c #BBE4ED",
"]. c #BCEAED",
"[. c #ACE3F2",
"{. c #ABE7F8",
"}. c #B4E4F2",
"|. c #BAE5F3",
" X c #B5EAF4",
".X c #BCEBF4",
"XX c #B4E4F9",
"oX c #BCE4F9",
"OX c #B5EBFB",
"+X c #BCECFA",
"@X c #ACF0FD",
"#X c #B4F2F6",
"$X c #BEF1F5",
"%X c #BDF2FB",
"&X c #C4DCE9",
"*X c #C3D9F7",
"=X c #C8E3E6",
"-X c #C3E4EB",
";X c #CBE4EB",
":X c #C3ECED",
">X c #CCEAED",
",X c #D7E7E9",
"<X c #C4F1EE",
"1X c #C4E4F2",
"2X c #CCE4F4",
"3X c #C3ECF4",
"4X c #CBECF4",
"5X c #C3E7FA",
"6X c #C3EDFB",
"7X c #CCEDFA",
"8X c #D3EDF3",
"9X c #DAEEF5",
"0X c #D3E6F9",
"qX c #D3EDFA",
"wX c #DBEDFB",
"eX c #C4F2F5",
"rX c #CBF2F5",
"tX c #C4F3FB",
"yX c #CBF3FB",
"uX c #C6FAFE",
"iX c #CDFAFC",
"pX c #D4F2F5",
"aX c #DCF3F6",
"sX c #D8F9F6",
"dX c #D3F3FC",
"fX c #DCF4FB",
"gX c #D3FAFD",
"hX c #DCFBFC",
"jX c #E6F1ED",
"kX c #E2EBF5",
"lX c #E3F4F5",
"zX c #EAF9F6",
"xX c #E2F5FB",
"cX c #EBF5FC",
"vX c #E3FBFD",
"bX c #EBFCFD",
"nX c #F4F9F8",
"mX c #F3FDFE",
"MX c #FDFDFD",
/* pixels */
". + - # +   . = 7 7 p p 7 w 8 s C C ( | / / F H D C V a V C F Z F F F Z E W ! / / 4.4.4.4.5.5.5.4.W Z Z a a 8 2 1 - 2 5 4 T + . ",
"+ 6 ( W $ 2 ! / B.H.L.|.`. X XOXeX3X7.! E s 4 > & $ & @ @ ; ; @ o @ $ $ @ @ % ; ; , 3 7 e H U H E G G E / ( ) C C s C V 6 < # + ",
"Z 9.vXvXl.7.s.c.d.k.H.|.'.|.H.`.D.k.) ../ ^ E V e 2 1 , 4 w s F E E E H s w ; & @ @ o o 5 ! ) E ) h.<X3X7X4X1XyX).P.$X].(.^ 1 = ",
"E G.bX=Xl.H./.G.B.h.N.j.V.B.D.H.Q.L.Q.%XtXiXtX|.(.l.g.x.L./. X+XyX3X3XtXrX|.H.S.l.g.g.5.x.z.6.6.c.v.H.v.v.v._.P.x.).$X]..X[. .$ ",
"C _.C. .G.!.l.D.j.B.B.N.V.j.K. X X}.OX X+XiXyXtX+X+XtXyX7XyXyX4X`..X.X|.|.:X].'.rXyXiX].4X;X-X'.`.P.`.(.v.d.d.G.'..XD.K.`.'.}.1 ",
"y .X] a.(.C.K.c.C.[.3XgXyXtX%XOX$XtX6X|..X#X%XtX X|.+X$XgXvXhX<X X(.}. X%X X.XuX6X3X|.|.H.H.`.(.P.P.].$X6XG.h.C.G.U..XB.G.rX+Xy ",
"G F. .K.c.B.D.G.}.yXvXvXpXgXtXtX[.OX+XOX X(.(. XOX X X XtXeXiXtX|. X|.%XtXtXyXgXgXdXyXuX}.K.(.H.4X-XeXrXeXrXtXH.s.h.K.OX[.$XL.y ",
"G j.p.j.h.l.H.(.+XiXvXhXgXtXtX.X[.{.[.K.(.@X XOX+XOX@X+X.X XeX6X.X+X6X+X.XeXyXgXsXgXdX+X Xv.'.qX1XY.].|.+X+X.X.XD.p.N.H._.}.{.r ",
"G n. .C.p.c.].(.rXbXvXbXhXgXgXeX[.[.B.(.|..XOX+XrXuX|.OXOX+X X|.+XOX|.OX[. X+X%XrX.X$X|.+X%X_.-X'.'.]._..X.X XOX6X/.C.|.3X6X|.] ",
"Q  .U (.D.K.B.$XvXbXzXbXvXvXpXiX%X+X X+XOX X%X%XuXiXtXuX#X`.(.`.|. X+XOX X X|. X+XtXrXrX+X+X6X3X|..X.X`..X|.].'.:X_.5XdXrX$XrXL ",
"Q } U [.c.s.A.rXbXbXvXzXvXgXiXtXeXeX6X+X[.{. X%XuXeX3XuXtX|.`.U.H.`..X.X+X%XOX X@XgXbXvXtX}.+X.X]..X.X|.].|..X3X1X.X6X].eX1XdXL ",
"^ L } (.k...W.vXmXbXsXvXvXhXuX$X3XeX6X X}.(./. X|.yXyX4XyX4XyX1XK.L.L.}.}.yXtX.X+X.XiXiXyX7XrX+X3X.X.X(.L.(.].3X|.[.tX<X6X5XdXL ",
"( S a.c.a.s.+XhXbXbXbXvXhXdX.X3X6X+X%XuXiXuX}.+XrX|. X'.|.|._.}.`.0X0XpXfX|.|.|.|.+X.X+XeX4X3X4X.X.X|.(.K.K.}.XX|.(.pXMXhXyXtXS ",
"Q L p.B.s.l.yXeXhXvXbXgXiXrX.X|.XX[.$XgXgXhX}.}.XX|.aXlXvXxXfX9X8X8X9XfXfXvXvXxX|.`.U.7X3X).].4X6X3X|.L.G.K.K.L._.|.;XcXfXdX#Xe ",
"^ ..^ s.m.).tXv.).gXrXeX#X+X$X|.|.$XiXhX|..X|.vXxXxXaXlXlXbXxXxXaXlXfXfXaXxXvXxXfXsX}.}.`.:X`.(..X.X`.L./.L.(.(.D.|.4XfXfX7X@Xt ",
"} h.U M.L._.%XtXpXgXeX.X3XgX%X6XeXgX X|.1XmXzXxX9X9XfXvXxXfXwXwX9XaXwX9XaXlXfXaXaXxXaX8X}.[.|.L.'.$X.X.X|.|._.|..XqXcXhXfXrX@Xt ",
") ^ L K.U..X+XuXgXyXuXeXgXdXtXtX]. X|.bXmXbXfX0X*X*XR.*XR.i.T.T.T.R.E.^.2X0X9XlXxXaX9X9XqX`.[.'.`.1X3X3X+X|.|.|.(.qXnXMXcX'.A.0 ",
"e S L J.`.|.|._.yXeX%XiXiXtX3X}.|.hXbXbXaX8X^.i.r.q.>.=.*.N @.@.$.%.-.;.t.u.E.2X9XlXlX8XpXpX|.(.L.|.].1X3X|.(.`.|.rXaXcXlX3XA.0 ",
"# w Q k._.|.tXyXuXiXgXgXgXiX[.XXvXbXbXvX2Xi.r.=.$.b c c c l l h j h l x M %.;.t.R.0XwXlXlX8X9X}.L.}.|.%X3X.X|.'.3XrXqXfXrXOXM., ",
"1 S S p.|. X$XgXuXrXvXvXgX}. XhXbXmXxXR.r.=.$.c v v j h h h h h h l h h h h @.@.;.u.R.8XwX9XaXqX(.|.(.+X|.:X.X`.].+X6XqX'.+XM.: ",
"; H P h._.}.tXgX6XpXbXhX}.XXvXcXmXxXi.=.@.b c x h h h h h h h h h h h h h h l h b %.:.i.*X0XfX4X4XQ.XX+X+X|.}.}.3X6XOX4X4X6Xm.: ",
"; L ] h.+XL.|.eX6XyXhXgX XbXmXmXkXt.@.v v x x l h h h h h h k x h k h z l l l h k h b ;.u.E.*X8X4X(.[. X}.[.Q.Q.7X0X6XvXpXU.D.: ",
"; e f k.|.h.`.tXtXeXeXgX XzXbXkXq.$.x l j k h h l h k x k k l h h k k x l h h h l h h b -.<.T.*X7X.X}..X{.{.[.+X6X9XdXmXlXF.D.* ",
"; 4 f f.`.k.[.]./.iXgXXXfXvXfXt.$.c h h k k j k j h x x k c n x x x k x x x x x h h h h v -.r.T.1X5X X[.%X[.K.+XqXbXxXnXzXF.b.: ",
"+ = d m._.D.(.+X$XgXgX|.vXvXE.&.M x h h l h h h h k c n c c m m v v x v c c c v x h h l x @.-.e.^.0XuX[.OXoX6X].lXMXmXmXnXL.9.f ",
"o O e 8._.L.`.yXyXgXgX|.bX^.>.$.n n h l h h l x n c c l j h c v v c c v v N b b v l h h h x $.:.u.9X-XC.[.@XN.L.vXmXxXmXMXF. .D ",
"& O L 7.:XQ.$X6XiXhXvX.X0Xt.%.x k h h x z n z h l l h l h h l x n x v v x c b b $.x l l h x c &.1.2X4XQ.oXOXs.oXaXfXpXpXnXk.} y ",
"* 5 f j.`.+XrXhXgXgXvX!.E.:.v h h h j l c x x x l h h h l l l x v v l x c x x v M v v x x j l #.-.y.5X(.3XXXL.7XfXxXaXhXnXI.P 5 ",
"; 3 ^ H.`.3XiXvXgXgXhX6Xu.-.h h l h h h c x x x z z h z h h x c v v c x v x l v x c l b v k l x *.e.|.tXL.+X}.+X3X7XzXvXMX&Xu w ",
"+ 6 *Xv.'.6XtXhXyXgXgX^.>.l h h h h k x z l k l z h h h h h h k v v c b c x x x x x x x v x k l b 1.W.uX[.+XXX|.4X7XpXxXxXa.] t ",
"; Q S.f.3X.X6XhXgXiXiX~.>.M l h l k h l k l l l x h h h h h z n l z M *.c m c l v v v @.M x l z z &.V.[.iXyX6XyXlXfXdXaX7X+.S r ",
"g 7.f j.3X X+XsXhXiXyXZ.-.#.x x x l x l l x l x x h h h h h l x x l n @.c v l l v v #.%.%.v l h z #.y.[.4XuXtXgXxXdXbXvXL.P S t ",
"4 t y G.]./.}.tXtXiXoXr.&.c x x c c v c x c x l m h l l v x x v l x x l x l h x x v v %.-.#.h h h l e.1X6X6XyX6X4XiXpXbXgX .B t ",
"w 3 t D.'..X`.rX3X#XQ.e.*.x x c x c c b M v x x k h l l l x v x x l x l k h h x x c b @.%.c h h h l >.6XtXtXiXvXbXpXpXvXgX| , 3 ",
"7 5 t c.'.'..XyXvXrXL.e.N k x k l c b @.@.c c l l h h l l l x h x v l l k l x n x n b @.@.$.h h h x >.oX+X3XlXnXMXbXhXvXqX| y % ",
"4 6 t K.|.'.1XiXfXpXjXi.$.x h k l x v b M N M l h h l h l l k h h x x x h k h k n c c M b b h h h M r.6X`.gXmXMXMXMXcXcXxX9.f : ",
"; 1 t L.Y.H._.gXsX4XjX~.;.b x l l l l x x N $.c l h h l h k h h h k h h k l l n b b v b @.x l h x b Z.|.iXgXxXbXbXlXxXlX9Xm.J * ",
"- 1 S l.'.`.`.8XpX,XpX*Xr.b x k l l l h x x b N c x l h h h h h h h h h h l l v x x c @.@.c l h x >.W.6X7XdXdXdXwXfXgXgX|.V.} % ",
"2 # V l.4X'.g.;X;X,XaX;Xe.b x k h h h l l x v c v v v l h h l l h l h h h h z l x x c $.$.x h x N r.}.|.rXdXhXfXfXxXfXaXQ.N.) % ",
"- < ! =X;X,X&X'.;X;X,X:XZ.*.x x h x h l l k x x v v l h h k l l h h h h h x l x x v M b c x h x $.y.}.`.6XgXxXmXmXmXMXMX~.V. .% ",
"s 4.I.P.,X&X=X].8X;X>XyXoXy.N n l l x c c c x v b b v l x x c l h h l k x n c x v v c m l x l m 1.Z.+X$XiXdXsXdXxXmXMXMXqXG.} % ",
"H ! 5.:X,X&XF.,X:X3XiXgXgX0Xr.M l k k c @.v c @.b c v v @.b c x h l l x v v m c c v c h h l v ;.u.3XtXtX7XhXhX4X5XdXlXbX>XK.X.% ",
"8 > T kX=X'.v.-X].tXgXvXfXvX^.=.c l l x b $.$.c @.v v v v v x c l l c v v v M v x l h h h l #.u.OX.XyXyXtXmXhXsXqXpX3XrX`.K.} % ",
"8.A Q '.,X>Xc.G.3XtXyXsXaXvXvXE.$.x c l c $.b v v v v c v l l l l x v M v #.M m l h h h j #.y.+XtXeXrXtXhXmXvXmXnXMXmXbX2X{.} @ ",
"i Z x.G.Y.-Xj.h.+X%XeXiXvXbXvXgXi.*.x l l c c c x c @.v c k l h l x v v v x l l h h j l m 1.OX#X$XrX+XrXmXmXbXMXmXMXMXMX8X#X} % ",
"0.7 4.-X1X.Xk.a.+XeX%X X3X>XhXgXhXT.$.x l l k x k x c c c c l h l x h h h h l l h h z #.r.XX%X%X#X5X$XsXMXhXcXMXMXMXmXmXqXuXo.& ",
"5.3.E |.<X`.v.p.3X4XgXtXeX].rXrXrX1Xu.@.c c l h l h x l l l l h h l h h j h h h h l #.y.XX%X%XtX#XtX%XvXmXpXkXbXMXmXfXpX7X%X .% ",
"6.W / :X].;X(.c.rXtXdXhXyX#X+XpX].+X:Xu.%.b l k h h h l h h k h h h h h h h l l v %.y.OX%X%XtX#X+XOXtXhXgXfXxXfXaXvXxXvXaXuX .; ",
"3.W E  X;X3XH.U.yX6XrXgXyX]. XeXpX.X`.'.T.<.$.x x k l h l h h h h h l l n v *.:.1.T.6X%XtXtX6X+X XyXdXxXaXvXmXMXmXjXlXvXdXtXX.; ",
"4.W E 3X3X.X).D.!._.3XeXyX+X|.H.].3X.X`.|.I.T.r.-.;.-.$.c c c v x l x n $.>.Z.T.^.gXiX7XyX X(.#X+X6XgXfXrX4XaXmXMXMXbX2X+XOX] , ",
"C S | 3X7XrX.XU.D.h.(.3X:X3X XD.`.3X3X'.`.|.`.J.J.T.u.e.e.e.1.>.<.;.<.e.Z.!.!.+X].yXtX+X6XqX6X#X XiXfXyX3XdXxXdXfXhXpX:XXX[.I : ",
"4 B 7.yXdXrX:X3X}.B.N. X3XP.c.uX_.'.:XtXyXtX'.|.1X_.}.I.^.!.J.I.!.L.~.~.|..X~.eX%X6X6XtX+X.XyXdXfXiXyX3X6XgXbXlXdXfXpXpX7XOXK + ",
"y d 7.qX8X3XeX3XeXj.b.{.Y.tXrX)._._.G.G.eXfXqXuX3XrXdX'.`.U.3X8XdX`.'.1X1X3X1X|.oXU.H..XeXrXvXMXmXgXtX3X5XrXfXlXfXxXqX4X+X%XU $ ",
"Q e | hX=XtX6XyX4X.X[.K.'.4XrX;X4X3X`.G.P.aXdX1X.X7X4X0X'.(.4XaX9X4X3XP.c.F.U.P.`.}.}.tXvXMXMXmXdXdXyXrXyXqXdXdX3XyXyXtXoX[.] w ",
"F D d.hX3XP.-XdXrX.X3XrXfXyXrX6XqXqX4X.X].4X'.`.'.'.:XxXqX|.3XbXdX:XL.D.D.`.'.'.}.1X4XxXvXvXdXsXfXdXrXiXgX6X4XcXdX2XiX0X2XiXO.> ",
"p L S.dX`.#X:XrX4XtX:X>XdXyXrXrX:XgX>Xx.7XqX4X$X|..XfXvX'.`.-XMX4XH.(.}.(.oX2X4X+X|.6XyX3XyXrXtXsXnXxXyX7X7XrXpXxX>XrX4X4XyXO.> ",
"Q S 7.gX+X:X$XyXrXeXtX1XeXpXdXiXiXpX9X:X3XrX4X8XrX5XcXvX-XL.7XMXqX'.fXfX X-XrXoX3X(.B.}.|.rXfXfXzXbXfXpXyX+XrXvXzXbXvXaXdX+X{ 0 ",
"H ] +.iX6X:XrX3XtXdX|._..XyXyXdXdX4X0XyX1X>XqXdXnXfXbXaX XyXzXMXaX-XgXdX3X2X4X.X|.}.!.oX XdXMXmXMXzXgXtX6X6XdXlXMXzXbXvX8X|.O.0 ",
"T o.B %X>X3X).tX7XtXrXyX4XdXpXdXqXrXdXhXdXdX3XqXMXzXaXxXeX4XcXvXfX4XfXfXgX4X.XtXqXyXrXdXdXqXxXMXMXbXdX5X}.6XbXmXmXmXnXcXdX}.{ 9 ",
"D p.Y h.:X0XL..XpXyXiXiX<XpXfXdXgXrXtXyXyXrX3XxXMXsXqXgX4XxXxXqXdXyXiXrXpX3X.X6X4XgXrX3XhXvXvXxXcXvXiX6X%X3XxXMXbXxXbXmXvXgXX.> ",
"y p.7.d.L.Y.oXlXxXbXcXbXMXmXcXmXtXdXcXvX*XfX9XjXMXJ.F.I.F.&X0XkXU.0.9.G.D.OXJ.Q.6XtX6X:XsXcXfXuXgX4X6X+XqXx.oXhXdXiXiXgXfXhXX., ",
"7 Q ..( a.-XcX2XQ.D.F.0.x.k.p.z.w.B.~.7Xj.D.~.2Xk.} o.Y w.9.Q 0XI.S S K [ L Q ~ 9.s.n.5XcXqXY.!.[.Q.D.D.~.B.N.b.C.XXQ.@X].gX' % ",
"+ 5 V ! 7.S.*X^.F.V.9.} 9.S.w.U O.O.Q D o.,.J ] Q ' L +.] X.+.o.| Y ] P ] X.w.} J P L } 0.W.M.W.W.2.w.A.2.2.M.A.b.b.A.2.@XiXd + ",
". + X # R L 4 i Q m.f d t d p = 0 Z R T D 5 w w s 3 4 L f S Y s t f q s B ] w.{ ' K f B J J ' O.+.O.{ ] ] ] ' ' _ ' ` B ' y + . "
};
