/* XPM */
static char *_becd0a1fea949f094aba226806e7d439D4UHmHotBnU0KI8[] = {
/* columns rows colors chars-per-pixel */
"64 64 181 2 ",
"   c #000001",
".  c #000208",
"X  c #263C3C",
"o  c #2A3C3D",
"O  c #27413E",
"+  c #2A413F",
"@  c #2C3F40",
"#  c #274442",
"$  c #2D4543",
"%  c #2E4846",
"&  c #2F4A49",
"*  c #314645",
"=  c #324947",
"-  c #344749",
";  c #344C4B",
":  c #394D4C",
">  c #33504D",
",  c #39514E",
"<  c #344E51",
"1  c #3B4E51",
"2  c #355252",
"3  c #3A5454",
"4  c #385857",
"5  c #3C565A",
"6  c #3D5A5B",
"7  c #404F52",
"8  c #415657",
"9  c #44545B",
"0  c #425C5F",
"q  c #495A5E",
"w  c #435E62",
"e  c #4B5E64",
"r  c #505F64",
"t  c #466265",
"y  c #4A6166",
"u  c #4C666A",
"i  c #4E6A6D",
"p  c #526166",
"a  c #55656D",
"s  c #52696F",
"d  c #556C73",
"f  c #5C6E75",
"g  c #5B6F78",
"h  c #597277",
"j  c #5D747A",
"k  c #5F787D",
"l  c #606E77",
"z  c #657477",
"x  c #62757D",
"c  c #61797E",
"v  c #657B83",
"b  c #6B7C84",
"n  c #6C7F89",
"m  c #698086",
"M  c #6C818A",
"N  c #71858E",
"B  c #74888F",
"V  c #7B8A8D",
"C  c #758693",
"Z  c #768A93",
"A  c #7A8C95",
"S  c #7C8F99",
"D  c #7D919A",
"F  c #808F96",
"G  c #859497",
"H  c #82949E",
"J  c #88979E",
"K  c #8496A1",
"L  c #8698A3",
"P  c #8A9BA6",
"I  c #8D9DAA",
"U  c #919DA6",
"Y  c #939EAB",
"T  c #8FA0A9",
"R  c #93A1AD",
"E  c #9AA5AF",
"W  c #95A4B1",
"Q  c #99A6B3",
"!  c #9CA9B5",
"~  c #9EABB9",
"^  c #A1ABB6",
"/  c #A2AEBA",
"(  c #A1B0B5",
")  c #A5B2BD",
"_  c #A9B4BD",
"`  c #ACB9BE",
"'  c #B5BABF",
"]  c #A6B2C0",
"[  c #ABB6C2",
"{  c #AEBAC4",
"}  c #AFBBC9",
"|  c #B1B7C6",
" . c #B3BBC6",
".. c #B9BDC5",
"X. c #B5BDCA",
"o. c #BBBFC8",
"O. c #B9BCCB",
"+. c #BBBFCA",
"@. c #B8BEC9",
"#. c #B8BECC",
"$. c #B9BFCD",
"%. c #BBBECD",
"&. c #B8BFCF",
"*. c #BABDCC",
"=. c #BCBFCE",
"-. c #B9BECC",
";. c #B4C1C7",
":. c #B6C0CA",
">. c #B7C1CB",
",. c #B7C0C9",
"<. c #B5C1CD",
"1. c #B6C0CC",
"2. c #B7C1CD",
"3. c #B5C1CF",
"4. c #B4C0CE",
"5. c #B7C0CF",
"6. c #B7C3CF",
"7. c #B6C1CB",
"8. c #B9C0C8",
"9. c #BAC1C9",
"0. c #B8C0CB",
"q. c #B9C1CA",
"w. c #BAC1CB",
"e. c #B9C2CB",
"r. c #BBC2CA",
"t. c #BCC0C9",
"y. c #BDC0C9",
"u. c #BDC1CB",
"i. c #BEC1CA",
"p. c #BFC2CB",
"a. c #B9C1CC",
"s. c #B8C0CD",
"d. c #BAC2CD",
"f. c #B9C1CE",
"g. c #BAC0CE",
"h. c #BBC1CF",
"j. c #B9C3CF",
"k. c #B8C2CE",
"l. c #BAC2CF",
"z. c #BBC3CE",
"x. c #B9C3CD",
"c. c #BDC1CC",
"v. c #BEC2CD",
"b. c #BEC2CE",
"n. c #BBC4CD",
"m. c #BCC4CF",
"M. c #BEC5CD",
"N. c #BAC1CD",
"B. c #B7C3D1",
"V. c #B8C1D0",
"C. c #B9C0D0",
"Z. c #BAC0D0",
"A. c #BAC1D1",
"S. c #B9C2D1",
"D. c #BBC3D0",
"F. c #BAC3D2",
"G. c #BCC2D0",
"H. c #BDC3D1",
"J. c #BCC3D3",
"K. c #B9C5D1",
"L. c #BAC4D0",
"P. c #BDC5D0",
"I. c #BFC5D3",
"U. c #BEC7D2",
"Y. c #BEC4D1",
"T. c #C0C3CC",
"R. c #C1C4CD",
"E. c #C3C6CF",
"W. c #C2C5CE",
"Q. c #C5C8CE",
"!. c #C2C6D2",
"~. c #C0C6D4",
"^. c #C2C6D4",
"/. c #C0C8D3",
"(. c #C1C9D4",
"). c #C4C9D5",
"_. c #CACCD4",
"`. c #C4C7D8",
"'. c #C6CAD9",
"]. c #C9CDDA",
"[. c #CDD1DB",
/* pixels */
"                                                                                                                                ",
"                                                                                                                                ",
"                                                                                                                                ",
"                                                                                                                                ",
"                                                                                                                                ",
"                                                                                                                                ",
"                                                                                                                                ",
"                                                                                                                                ",
"                    .       .       . .             .   .   .                       .           .   .       .       .       .   ",
". . . . . . . . . . .   .   .     . .     . . . . .         .   . . . . . . . . .   .   .   .       .   . .           . .   .   ",
".   . . .   .   . . . . . . .   .   . . . . .   .   . . . . . . . . .   .   . . .   . . . . . . .   . . .   . . . . .   . . .   ",
"o.o...8.o.o...X.........o.8.i.8...X...m.W.R...X.o.X...8.T.8.i.8.....i.8.o.+.o.+.+.i.T.W.W.T.T.!.W.T.T.T.i.i.i.i.Q.W.T.T.y.i.i.T.",
"X.X.X.X.o.6.o.X.X. . . .o.a.8.a.#.| | L.(.x.X. .X. . ...B.#.#.:.8.8.a.a.8.a.8.a.o.o.=.!.!.+.O.!.T.c.c.o.O.O.O.W.+.O.O.O.o.o.+.+.",
"8.X. . .6.6.a.#.:.X.6.<.a.a.D.m.&.X. .a.P.a.6.6.X. .X.8.B.&.B.6.P.a.D.G.P.P.D.D.D.o.D.^.!.+.O.a.=.=.O...|  .%.!.+.O.O. .O.+.=.+.",
"X.} { | &.B.B.6.#.<.&.4.#.6.D.6.} X.}  .#. .&.<.X. .X.6.B.B.&.B.D.D.B.B.D.D.B.D.&.D.&.D.G.O.&.O.} X.O.O.} | O.&.O.| | | #.O.=.=.",
"&. . .| X.#.#.B.X.#.&.&.X.#.#.6.| X.X.} X.B.B.&.&.#.6.#.&.&.B.B.B.B.D.F.D.F.F.F.&.F.F.F.&.J.D.O.} O.&.X.| | } O.O. .} } O.O.&.D.",
"B.} B.B.B.D.B.X.L.a.#.6.a.L.L.x. .}  .6. .<.<.6.3.3.3.B.3.3.B.B.K.K.6.K.K.B.K.K.L.D.#.D.D.&.a.G.=.a.#.#. .| | | |  .}  .&.&.&.G.",
"} B.<.<.6.B.a.6.D.a.#.X.6.L.a.:. . .}  .X.X.X. .3.} 3.} } } } } <. . .<.6.6.B.K.6.B.a.D.&.O.D.G.O.#. . . .O. .| X.O.X.&.=.G.O.G.",
"} <.} }  .6.D.6.a.O. . .X.:.:.:.<. . .<.<. .} } } } } } } ] ] ] [ ] [ } { } <.<. .6.L.D.a.G.I.I.X.X. .#.#.#.O.| O.&.O.&.D.O.O.D.",
"} } } }  .#.6.D.8.X.X.X.X.:.:.:.<. .<.<.} } [ [ ] ] ] ] ] ] ] ] ) ) ) ) [ [ ] [ {  .O.a.O.J.I.J.8.8.6.6.&.D.#. .X.X.O.O.O.#.O.D.",
" .{ } }  .6.:.8.8.:.X.X.;.:.:.;.X.X. .} [ ] ] ] ~ ~ ~ ~ ~ ~ ~ ~ ) ~ ] / ] / ] ] ] {  .} X.D.D.a.a.P.P.P.P.G.#.O.#.#.#.#.#.#.#.D.",
"<.} {  .6.:.:.X.;.X.X.X.X.:.:.<.X. .} } ] ) ) ~ ~ ~ ~ ~ ~ W ~ ~ ! ! ~ ~ ~ / / ] ) ] [ [ | #.O.O.a.P.(.U.I.P.D.D.#.O.#.O.D.#.O.G.",
"}  . . . . .| X.<.X. .;. .:.;.} } ] ] ] ~ ~ ! Q W ~ W W W W W W Q W W Q ! ! ! / / / ) ] [ O.O.O.o.P.(.!.^.I.I.I.D.D.G.O.D.D.D.D.",
"{ {  . .| `  .X. . . . . .<.;.<.] ] ] ~ ! Q Q W W W W W W D I W W I R W W W Q Q ! ^ / / ] [  .o.6.P.(.(.I.^.^.I.D.D.&.&.G.&. .O.",
"'  . .{  . . . .o.X.:.:.7.7.} ] ] ~ ~ ! W W R I I I I P D D W W P I W D W W W W R E ! ! ^ ) [  .X.P.P.(.`.I.P.I.G.O.O.D.D.O.D.O.",
"|  . . . . . . . .X.X.:.<.} ` ( ! Q W W R I I L D L P D D D D D D D D D D D I D I R E Q ! ^ / _ X.a.P.P.U.^.I.(.I.G.G.G.G.D.D.G.",
" . .|  .X.X.o.X.X.X.;.:.<.{ ) ~ W W R I I L L D Z S D Z v m M M D S Z Z C C D D L I T R ! ! ^ / { X.D.P.`.U.`.`.I.I.G.G.D.&.O.#.",
" . . . .| | O.X.8.6.a.8.X.[ / Q W R I I L D D Z N N N n v v v v C M M M n n C D H K L P R ! ! ^ _  .a.L.U.I.I.^.I.I.J.G.O. .O. .",
"| |  . . .| O.X.X.a.&.X.} / Q R T I T D D S N m v v v v d d v v v v v v v v v v B Z F J I R W ^ ^ _ ..8.G.G.G.G.G.G.G.D.#.#. . .",
" . .| | |  .#.O.#.X.X. .[ ~ W I T D D D Z N m v h d d i u i i i u u w i i i i d v N C S J I Y E ^ /  .X.D.&.O.D.&.D.D.O.&.&.#.O.",
" . . ..... .O.O.#. .X.} ] ! R I D D S N m m h i i t w w 5 5 6 4 6 6 6 6 6 6 t i d j v n Z J I R E ^ `  .O.D.O.D.G.G.G.O.D.D.&.&.",
" . . .| O.| | X.X. .} [ ] Q I L D D M v v h i t 6 6 6 6 < < < < 2 2 < 4 4 4 6 t w u a g b Z J Y E ^ _ | O.D.D.^.I.^.G.&.D.I.G.O.",
" . . . . .:.;.;.#.#.| [ ~ Y P S S n j h i t 4 4 4 4 4 4 > > > > < : ; 2 > > 2 4 5 5 w s v n C K Y ^ _  .a.P.!.P.^.D.=.=.^.=.J.J.",
"'  . .} <.:.:.;.#.&. .[ ! I P S N v d t t 4 4 4 4 > > > > & & % % - = = = % & ; 5 2 5 y d v n S U ^ _  .a.x.(.!.^.I.=.=.=.^.G.G.",
" . . .;.<.7.7.7. .X. .[ W P K C v v i 6 4 4 4 > & & & + + + % + $ * % $ # # % % < & < 5 w d v n J E / | X.a.P.P.`.~.^.^.^.=.^.G.",
" . . .;.7.7.7.7.X.X.O.[ R L H n g u w 4 4 4 2 & > O + & + & & + * * % $ % % % % & & < < 5 e d v A R / | o.X.c.P.(.(.~.^.H.^.G.J.",
" . .X.;.7.7.7.;.X.X.X.] R J Z j i t 5 2 4 > % # O & + & + + > & % % % % % $ $ % % = ; - < 5 y j V U _ | ..O.c.^.^.^.`.^.H.H.%.H.",
" .X.o.;.7.7.7.7.X.X.} } W H C h y w 4 < > O O % O & > + + O O & + + + > ; % $ $ * ; < - - < 5 e b Y / [ |  .G.(.^.`.`.^.H.%.O.O.",
" ...X.:.7.7.6.7.<.{ [ } ~ D v d w 6 2 & + O + > + > + + + > + + % + $ % = % $ $ = 3 5 1 < ; 2 w l U _ '  .O.a.^.`.`.^.=.O.O. . .",
" .X.X.X.;.7.6.6.6.4.{ 4.~ S v u 6 4 & % O > + + + + + > + + > > = % + + + * * $ $ : 8 3 ; & : 3 a U _ ..o.o.a.P.^.^.=.O.O.O.O.| ",
" . . .<. .7.7.7.L.L.{ [ [ K d e w > o $ % $ $ + + + + + 7 + + > % % $ % = = + * * + 7 + * $ < 1 9 U  .X.P.O.a.^.^.%.=.=.*.O. .O.",
"O... . .;.<.6.7.L. . .} ) W x t 2 > % # O O * * + , , + + , > + $ ; % $ = : : + * o + , - - 1 - a / m.:.m.!.^.G.^.^.=.=.*.O.|  .",
"O...X. .;.;.7.7.X. .X.{ ] { D 5 2 # $ $ + = o + + , + + + + , + + % % + + = + + * + : + @ : - - E i.P.a.!.c.c.o.`.^.=.=.O.} O.| ",
"X.X.:.X.7.6.n.7.X.X.X.| <.;.~ i $ - X $ * + = + + + + , , , + , = + % % = + = + * 7 * * @ : @ z P.c.a.U.'.a.T.!.^.^.^.*.O.O.O.O.",
"#.#.<.6.7.6.6.:. .X. .X.;._ { T * @ * * = * X : > + , , : + + : * = = * * , 3 ; o : * - p q l ;.a.P.(.'.).).).).^.^.^.=.O.#.X.| ",
" .#.6.X.<.7.:.X.O.X.X. .{ { ` { F o o ; o = * O + > , + + = = + = = = * * , , , 7 * * b 8.'  .X.a.P.).'.'.'.).R.^.^.^.=.&.O.X.O.",
"6.#.<.X. .6.6.X.o.O.8. .{ r._ [  .H 7 o * O = = , , , , : : : : , = * = = % % = - * - ^ r.(.U.(.m.m.(.(.'._.'.'.`.`.^.^.G.&.O.&.",
"6.6.<. . .#.a.a.x.a.O.o.:. . .{ _ ;.( r o > * , , + + + : = = : : , : = = = * = - - z _ U.(.m.M.c.(.].)._.'.).`.`.^.^.^.^.G.&.F.",
"a. . .} X.6.6.6. .#.6.a.#. .<.:.` [ ;.( A p = * * - : : : = : : , : = = = - = = q V ` n.m.U.P.c.a.^.'.'.'.].].].].`.`.`.!.!.H.=.",
"6.#.X. . .:. .<.X. .X.X. .<. . .<.[ _ { ;.` G z 8 + o + * * + : * * = = + : z P ` { 7.U.P.a.c.=.!.'.'.`.'.].[.].].].].'.'.'.`.`.",
"6.:. .X.X.8...X. . .X.6.:.X. . .#.#.X.{ ` ;.;.{ ! J z q 8 q e q a p e a F ) 6.7.;.` B.'.'.(.G.O.=.!.!.T.!._._.'.].].].'.).!.E.!.",
"X.:. . .o.8.;. .X.:.:.8.8.6. . .#.|  .6.n.:.} { ;.8. ._ _ { ;._  .{ ` {  .X.X.6._ [ I.'.'.'.`.=.T.!.!.^.).[.[.[.[.].].`.Q.!.`.Q.",
" . ...' ......X.'  . ...X. ... .X. . .O.O...i.Q.m.8.:.X. .{ { ;.`  .' {  .:.a.i.| |  .i.R.).'.+.+.!._.W.W._.[.[._._.).W.!.E.T.i.",
"' ' ..' ..' ....' ' ' ' ..' ' ' .. . .o.T.T.i.T.i.....8.X. . . . .X. .' ..R.m. ... .o.W.).[.'.W.R._._.Q.Q._._._._._.Q.Q.Q.Q.W.T.",
"          .     .   .   . . . . . . . . . .   . . . .     . .   . . .   .     . .     .   . .       .   . .   . .   .   .       ",
". . . . .   .   .     .                                                                           .   .     .     .   .     . . ",
"                            .                                                                                               .   ",
"                                                                                                                                ",
"                                                                                                                                ",
"                                                                                                                                ",
"                                      . .   .     .                                     .   .                                   ",
"                                                                                                                                ",
"                                                                                                                                ",
"                                                                                                                                "
};
