/* XPM */
static char *f4c4dc9c19134083c37840b657f8b811vcHZQhdGcf2sR3dV[] = {
/* columns rows colors chars-per-pixel */
"64 64 229 2 ",
"   c black",
".  c #142431",
"X  c #0C1C40",
"o  c #062C4B",
"O  c #132F4F",
"+  c #1B3247",
"@  c #14344A",
"#  c #0A3359",
"$  c #0B3659",
"%  c #163857",
"&  c #143A5B",
"*  c #0C3C65",
"=  c #0B3768",
"-  c #163A63",
";  c #123E64",
":  c #123F70",
">  c #1B445B",
",  c #28465A",
"<  c #0A406C",
"1  c #1D4462",
"2  c #18456A",
"3  c #0E4976",
"4  c #174B77",
"5  c #1C5377",
"6  c #244866",
"7  c #264D6C",
"8  c #31546D",
"9  c #244C74",
"0  c #275877",
"q  c #335878",
"w  c #2B647C",
"e  c #37647C",
"r  c #464646",
"t  c #48697A",
"y  c #FFC20E",
"u  c #125582",
"i  c #245C85",
"p  c #345F82",
"a  c #266287",
"s  c #326282",
"d  c #386789",
"f  c #37718C",
"g  c #2D6B94",
"h  c #376B96",
"j  c #387196",
"k  c #3F7DA7",
"l  c #496A84",
"z  c #45738A",
"x  c #58778F",
"c  c #467995",
"v  c #437B9C",
"b  c #627F97",
"n  c #447EA3",
"m  c #4C7EA2",
"M  c #4A7FB5",
"N  c #3E83AC",
"B  c #3586B8",
"V  c #4B839B",
"C  c #558398",
"Z  c #678A9A",
"A  c #758A9F",
"S  c #4284A9",
"D  c #4A86A8",
"F  c #5788A5",
"G  c #5B8BA2",
"H  c #5C94A5",
"J  c #5B94A9",
"K  c #468BB7",
"L  c #4D8DB5",
"P  c #538DB3",
"I  c #558FBD",
"U  c #4F93B5",
"Y  c #5292B5",
"T  c #5C9BB3",
"R  c #5895BA",
"E  c #5A95BB",
"W  c #559ABC",
"Q  c #628CA3",
"!  c #6885AC",
"~  c #6393AC",
"^  c #6995A8",
"/  c #659AAD",
"(  c #7495A8",
")  c #649AB2",
"_  c #6699B6",
"`  c #769BB6",
"'  c #59A6BC",
"]  c #6CA3B8",
"[  c #73A3B5",
"{  c #71A9B7",
"}  c #74A6B8",
"|  c #7AABBC",
" . c #478EC4",
".. c #4A97C4",
"X. c #589BC5",
"o. c #6295C4",
"O. c #58A3C7",
"+. c #5AABD8",
"@. c #5CB2DA",
"#. c #64A5C3",
"$. c #69A8C8",
"%. c #77ABC5",
"&. c #76B3CD",
"*. c #7BB6C8",
"=. c #69ABD1",
"-. c #76ADD2",
";. c #66B2D6",
":. c #79B7D7",
">. c #7BBCE2",
",. c #7ECCE7",
"<. c #8B9CB2",
"1. c #8BA9B8",
"2. c #98ADBB",
"3. c #87B5BC",
"4. c #92B2BA",
"5. c #B4B4B4",
"6. c #91AFC1",
"7. c #84B7CB",
"8. c #84B9D3",
"9. c #8ABCDA",
"0. c #93BBD5",
"q. c #A3BECC",
"w. c #8DBFE0",
"e. c #9CC6CD",
"r. c #86C6D5",
"t. c #8AC4D2",
"y. c #89C6DC",
"u. c #8ECADB",
"i. c #93C4D3",
"p. c #99C7D5",
"a. c #94CAD6",
"s. c #93CBDC",
"d. c #9BCCDA",
"f. c #8CD0DB",
"g. c #99D2DA",
"h. c #ACC6D4",
"j. c #A8CDD8",
"k. c #A3D3DD",
"l. c #A9D8DD",
"z. c #87C7E4",
"x. c #8ECEE2",
"c. c #95C6E5",
"v. c #94CEE2",
"b. c #9BCDE2",
"n. c #88D3E7",
"m. c #94D2E3",
"M. c #9CD4E4",
"N. c #9BD5EB",
"B. c #99D8EA",
"V. c #89D8F2",
"C. c #93D9F6",
"Z. c #A8CBE1",
"A. c #A3D4E4",
"S. c #AAD2E4",
"D. c #A4DAE5",
"F. c #ACDBE5",
"G. c #A3D4EB",
"H. c #AFD5E8",
"J. c #A5DCEB",
"K. c #ABDCEB",
"L. c #B3DBE2",
"P. c #B8D6E8",
"I. c #B3DEEB",
"U. c #BADEED",
"Y. c #A3D7F4",
"T. c #AADDF1",
"R. c #B6DBF3",
"E. c #ABE3E8",
"W. c #ACE2ED",
"Q. c #B3E1E6",
"!. c #B5E7EA",
"~. c #B4E3ED",
"^. c #BAE4ED",
"/. c #BCEAEE",
"(. c #ACE3F2",
"). c #ACE7F8",
"_. c #B4E5F3",
"`. c #BBE6F2",
"'. c #B4E9F4",
"]. c #BCEBF4",
"[. c #BAE5F8",
"{. c #B5ECFC",
"}. c #BCECFA",
"|. c #ADF1FE",
" X c #BEF1F5",
".X c #B4F3F8",
"XX c #BDF1FC",
"oX c #C4DDEA",
"OX c #C9E3E5",
"+X c #C3E4EB",
"@X c #CAE5EA",
"#X c #C3ECEE",
"$X c #CCEAEC",
"%X c #D3E4E7",
"&X c #C4F1ED",
"*X c #C4E5F1",
"=X c #CCE3F0",
"-X c #C3ECF4",
";X c #CAECF3",
":X c #C3E7FB",
">X c #CEE7F9",
",X c #C3EDFA",
"<X c #CCEEFA",
"1X c #D3EDF4",
"2X c #D3EDFA",
"3X c #D8EBF8",
"4X c #C4F2F6",
"5X c #CBF2F5",
"6X c #C4F3FB",
"7X c #CBF4FB",
"8X c #C7F8FD",
"9X c #CDFAFD",
"0X c #D4F3F5",
"qX c #DBF3F6",
"wX c #D9F9F6",
"eX c #D3F3FC",
"rX c #DBF5FB",
"tX c #D3FAFD",
"yX c #DCFBFD",
"uX c #E6F0F0",
"iX c #E4F4F4",
"pX c #EBF8F6",
"aX c #E2F5FC",
"sX c #EBF5FC",
"dX c #E3FCFD",
"fX c #EBFCFE",
"gX c #F5F9F8",
"hX c #F3FDFE",
"jX c #FFFFFF",
/* pixels */
". @ , % @ . . > e e z z e d e C C C { | } ` G ~ F m C x V G C Z G Q Q Q ^ ( [ [ [ 1.1.4.1.4.4.1.1.( Z Z x x t 8 7 > 7 q q G @ . ",
"@ w { ( & 8 ( [ A.J.J.'.^.`.'.{.-X}.7.[ / c 0 4 ; $ - $ $ 2 1 $ O $ $ ; $ # - - 2 5 0 q f F T T ^ H H ^ [ { | C C C G C w 1 & @ ",
"Z 8.dXdXg.7.x.k.i.d.J.`.^.`.F.I.S.d.| *.| ] ~ V f 8 7 7 0 s c G / / / G c s 2 - # $ o o e ` 6.~ | i./.-X5X;X-X7XQ.l.XX/.W.] 7 > ",
"/ F.fXOXg.l.E.D.M.s.g.v.N.M.A.F.T.J.T.XX6X8X6X/.W.g.a.k.J.E.'.}.5X,X*X6X8X`.F.S.k.a.e.4.h.e.3.3.j.F.l.l.L.j.I.Q.j.L. X/./.).&.& ",
"C E.M.*.G._.g.A.m.m.M.m.N.s.J.'.'.'.'._.-X8X8X6X                                5X8X7X+X;X@X+X/.^.Q.!.K.k.i.i.D.^.].A.F.~.^._.0 ",
"c ].' >.W.N.F.A.N.~.4X9X7X6XXX{. XXX6X}.'..X6X                                    }.}.`.F.F.~.K.L.L./.4X6XF.a.M.D.I.`.N.D.5X].f ",
"F S.&.W.k.M.A.M._.5XdXdX0X9X6X,X(.XX}.).'.W.    r r r r r r r r r r r r r r r r     5X8X_.W.W.F.;X*X-X4X6X7XXXF.x.i.K.{.(.}.K.h ",
"H s.r.s.a.g.F.W.}.9XdXdXtX4X8X].(.(.(.(.W.      r r r r r r r r r r r r r r r r       }.'.A.^.1X*XQ.`.].}.].].].D.t.s.J.!.!.).g ",
"H v.-.D.t.k.!.).5XfXdXpXdXtXwX4X(.(.M.W.    r r r r r r r r r r r r r r r r r r r r     }.XX^.+X^./.`.Q.`.}.'.}.}.Q.N.`.4X6X_.X.",
") &.R W.A.J.A. XdXfXdXfXfXyXeX8XXX}.'.      r r r r r r r r r r r r r r r r r r r r       }.6X].`.`.-X^.].'./.~./.!.:XeX5X-X5XP ",
") #.W (.k.u.N.5XfXfXyXpXfXtX9X8X4X-X    r r r r r r r r r r r r r r r r r r r r r r r r     6X`./.`.].'./.`.-X-X-X`.,X/.-X-XeXP ",
"] Y #.K.g.*.Y.dXhXfXwXdXdXtX9X X4X,X    r r r r r r r r r r r r r r r r r r r r r r r r     6X}.-X}.'._.F.W.^.-X`.(.6X&X,X:X2XP ",
"%.D y.l.t.u.}.yXfXfXhXdXyX7X/.-X:X}.    r r 5.5.5.5.5.5.r r r r r r r r 5.5.5.5.5.5.r r     -X-X/.`.`.W.J.J._.'.'.Q.3XhXrX7X6XV ",
"] D r.g.u.M.8X4XyXdXdXtX9X7X`.`._.      r 5.5.jXjXjXjX5.5.r r r r r r 5.5.jXjXjXjX5.5.r       ;X6X-X_.W.J.J.J.J._.~.$XhXyXeX.Xj ",
"] *.#.u.v.F.6Xl.Q.tX7X X].]. X].    r r 5.5.jXjXjXjXjXjX5.5.r r r r 5.5.jXjXjXjXjXjX5.5.r r     `.`.Q.K.K.Q.K.W.F.`.;XrXrX<X|.h ",
"$.a.R m.I.Q.XX8X0XtX4X`.4X9XXX6X    r r 5.jXjXjXjXjXjXjXjX5.r r r r 5.jXjXjXjXjXjXjXjX5.r r     /.6X'.-X].~.`.`.'.1XsXrXaX7X|.g ",
"| ' P J.I.]. X8XwX7X6X7XtXtX5X6X    r r 5.jXjXjXjXjXjXjXjXjXr r r r jXjXjXjXjXjXjXjXjX5.r r     ~.`.;X4X}.`._._._.2XgXjXfX^.C.i ",
"f F L F.I.`.'.^.8X4XXX8X8X5X,X4X    r 5.5.jXjXjXjXjXjXjXjXjXr r r r jXjXjXjXjXjXjXjXjX5.5.r     J.`.^.-X-X/.Q.~._.5XqXsXiX*XC.a ",
"% f _ p.~.`.6X7X8X9XtXtXtX9X7X6X    5.5.jXjX        jXjXjXjXjXjXjXjXjXjXjXjX        jXjX5.5.    U.~.'.}.-X].`.^.-X5X2XaX5X}.n.u ",
"7 v M t.'.'.-XtX9X5XdXdXtX8X6XXX    5.jXjXjX        jXjXjXjXjXjXjXjXjXjXjXjX        jXjXjX5.    `._.I.}.`.`.-X^.`.-X,X<X/.XXz.3 ",
"1 R R a.~.'.6XtX,X0XfXyXeXtX7X5X    5.jXjXjX        jXjXjXjXy y y y jXjXjXjX        jXjXjX5.    `.-X`.}.}.'._.T.-X,X[.;X$X:Xv.3 ",
"< F X.a.].K.}.;X6X7XyXtX9XyXdXfX    5.jXjXjX        jXjXjXjXy y y y jXjXjXjX        jXjXjX5.    '.`.].'._.(.T._.<X2X:XdX0XU.B.: ",
"1 f v d._.a.W.4X6X,X5X8X9XwXwXdX    5.jXjXjXjXjXjXjXjXjXy y y y y y y y jXjXjXjXjXjXjXjXjX5.    )._.6XXX_.(.(.'.,X3X0XhXqXS.G.: ",
"7 0 D i.U.d._./.E.8XtX7X5X5X9X}.    5.jXjXjXjXjXjXjXjXjXy y y y y y y y jXjXjXjXjXjXjXjXjX5.    B.(.9X-X{.).T.}.;XhXaXgXpXS.u.3 ",
"O > v d.!.A.K.,X-XtXtX9X9X9X6X5X    5.jXjXjXjXjXjXjXjXjXjXjXjXjXjXjXjXjXjXjXjXjXjXjXjXjXjX5.    B.'.}.|.{.`.,X-XpXjXsXjXgXI.9.n ",
"O + d 0.!.K.!.8X7XtXeX7X9X4X4X      5.5.jXjXjXjXjXjXjXjXjXjXjXjXjXjXjXjXjXjXjXjXjXjXjXjX5.5.      ^.M.A.).).m.T.dXhXrXhXgXH.&.D ",
"- + D 7.-XT. X-XtXtXyXtXtX7X    r r r 5.5.jXjXjXjXjXjXjXjXjXjXjXjXjXjXjXjXjXjXjXjXjXjX5.5.r r r     J.(._.{.s.R.0XaX5X0XgXd.#.z ",
"4 q n s.Q.}.7XyX9XtXyX;X7X      r r r r 5.5.jXjXjXjXjXjXjXjXjXjXjXjXjXjXjXjXjXjXjXjX5.5.r r r r       T.}.}.K.<XrXaXiXyXgXP.I p ",
"- 0 ` D._.,XtXyXtXtXtX5X    r r r r r r r 5.5.jXjXjXjXjXjXjXjXjXjXjXjXjXjXjXjXjXjX5.5.r r r r r r r     ~.'._.,X-X2XsXdXjXP.n d ",
"@ 0 U.l.^.;X6XtX5XtX9X      r r r r r r r r 5.jXjXjXjXjXjXjXjXjXjXjXjXjXjXjXjXjXjX5.r r r r r r r r       }.[.'.;X-X0XaXaX9.O.g ",
"2 ^ Z.p.4X`.6XyXtX9X    r r r r r r r r r r 5.jXjXjXjXjXjXjXjXjXjXjXjXjXjXjXjXjXjX5.r r r r r r r r r r     ,X7XaXrXqXqX<X:.D g ",
"K 8.m c.-X'.}.wXyXtX    r r r r r r r r r 5.5.jXjXjXjXjXjXjXjXjXjXjXjXjXjXjXjXjXjX5.5.r r r r r r r r r     8XeXdX2XsXdXJ.I D h ",
"0 g j F./.E.'.,X7X8X    r r r r     r r 5.5.jXjXjXjXjXjXjXjXjXjXjXjXjXjXjXjXjXjXjXjX5.5.r r     r r r r     9X6X;X9X0XfXtX&.k h ",
"e 9 h A.^./.^.-X-X      r r r r     r r 5.jXjXjXjXjXjXjXjXjXjXjXjXjXjXjXjXjXjXjXjXjXjX5.r r     r r r r       aXfX0XeXaXtX%.5 5 ",
"e q h A.^.^.-X7X    r r r r r r     r r 5.jXjXjXjXjXjXjXjXjXjXjXjXjXjXjXjXjXjXjXjXjXjX5.r r     r r r r r r     jXfXyXfX3X%.h * ",
"0 s h J.`.~.].9X    r r r r r r     r r 5.jXjXjXjXjXjXjXjXjXjXjXjXjXjXjXjXjXjXjXjXjXjX5.r r     r r r r r r     hXjXsXpXaX8.k 3 ",
"1 7 j K.`.F.~.yX    r r r r     r r r r 5.jXjXjXjXjXjXjXjXjXjXjXjXjXjXjXjXjXjXjXjXjXjX5.r r r r     r r r r     fXiXaXaXrXc.K : ",
"6 6 D f.oX~.~.1X    r r r r     r r r 5.5.jXjXjXjXjXjXjXjXjXjXjXjXjXjXjXjXjXjXjXjXjXjX5.5.r r r     r r r r     rXrXeXwX`.N.%.= ",
"q @ V g.;X!.e.$X    r r r r     r r 5.5.jXjXjXjXjXjXjXjXjXjXjXjXjXjXjXjXjXjXjXjXjXjXjXjX5.5.r r     r r r r     rXaXrXqX~.v.} = ",
", 6 ` %X@X@XoX^.    r r r r     r r 5.jXjXjXjXjXjXjXjXjXjXjXjXjXjXjXjXjXjXjXjXjXjXjXjXjXjX5.r r     r r r r     hXhXgXjXR.C.&.= ",
"c 1.P.L.%XOX@X`.    r r r r     r r 5.jXjXjXjXjXjXjXjXjXjXjXjXjXjXjXjXjXjXjXjXjXjXjXjXjXjX5.r r     r r r r     aXhXjXgX1XD.$.* ",
"J _ 6.+X%XoXH.%X    r r r r     r r 5.jXjXjXjXjXjXjXjXjXjXjXjXjXjXjXjXjXjXjXjXjXjXjXjXjXjX5.r r     r r r r     [.eXyXfX=XJ.-.= ",
"t 4 ^ uX%X^.l.^.    r r r r     r r 5.jXjXjXjXjXjXjXjXjXjXjXjXjXjXjXjXjXjXjXjXjXjXjXjXjXjX5.r r     r r r r     2X0X;X5XQ.B.$.= ",
"6.A ` ~.%X$Xk.D.    r r r r     r r 5.jXjXjXjXjXjXjXjXjXjXjXjXjXjXjXjXjXjXjXjXjXjXjXjXjXjX5.r r     r r r r     jXgXfXhX<X).$.$ ",
"l Z j.D.U.@Xu.a.{.              r r 5.jXjXjXjXjXjXjXjXjXjXjXjXjXjXjXjXjXjXjXjXjXjXjXjXjXjX5.r r               jXgXjXjXjX1X.X$.* ",
"q.e 4.+X+X}.g.y.,X X            r r 5.jXjXjXjXjXjXjXjXjXjXjXjXjXjXjXjXjXjXjXjXjXjXjXjXjXjX5.r r             sXjXjXjXhXfX2X8X$.- ",
"2.<.~ ^.&XQ.l.t.-X5XtX6X X/.    r r 5.jXjXjXjXjXjXjXjXjXjXjXjXjXjXjXjXjXjXjXjXjXjXjXjXjXjX5.r r     6XdXhX0XiXfXjXhXrX0X:X6X-.2 ",
"3.A } /.-X@XK.k.5X,XeXtX5XXX    r r 5.5.jXjXjXjXjXjXjXjXjXjXjXjXjXjXjXjXjXjXjXjXjXjXjXjX5.5.r r     6XyXtXaXrXqXqXaXaXfXqX8X*.: ",
"<.A / '.@X-XF.I.7X5X5XwX8X'.    r r r 5.5.jXjXjXjXjXjXjXjXjXjXjXjXjXjXjXjXjXjXjXjXjXjX5.5.r r r     eXaXqXdXhXjXhXuXiXaXeX6X=.* ",
"1.` / 4X-X/.W.A.T.~.-X5X8X].    r r r r 5.jXjXjXjXjXjXjXjXjXjXjXjXjXjXjXjXjXjXjXjXjXjX5.r r r r     tXrX5X;XrXhXjXjXdX;X:X.XO.i ",
"C S | -X<X5X#XI.A.s.E.,X#X-X`.      r r 5.jXjXjXjXjXjXjXjXjXjXjXjXjXjXjXjXjXjXjXjXjXjX5.r r       7XrXeX-XrXaX7X0XqX5X*X_.).U ; ",
"0 K *.9XeX;X#X-X~.M.m.'.-XQ.k.6X    r r 5.5.jXjXjXjXjXjXjXjXjXjXjXjXjXjXjXjXjXjXjXjX5.5.r r     yX9X7X-X6XeXfXpX0XdX0XqX<X[.U O ",
"h v 7.eX1X-X4X-X5Xa.u.).Q.5X5XQ.    r r r 5.5.jXjXjXjXjXjXjXjXjXjXjXjXjXjXjXjXjXjX5.5.r r r     hX0X;X-X:X5XrXiX3XaX1X;X[.}.W & ",
"~ f %.yX+X6X,X6X;X.X(.G.`.;X;X-X    r r r r 5.jXjXjXjXjXjXjXjXjXjXjXjXjXjXjXjXjXjX5.r r r r     eXeX7X7XeX<X7XeX,X5X9X6X}.).X.d ",
"G J 0.rX-XW.+XeX5X].-X7XrX7X5X;X0X      r r             jXjXjXjXjXjXjXjX            r r       wXyXeX5X9XeX6X-XsXeX=XeX<X=X9X=.4 ",
"z P Z.0X~./.#X5X;X6X#X;X0X7X5X6X#XqX    r                 jXjXjXjXjXjX                r     6X,XqXhXaX4X<X<X5XqXaX;X<X;X;X8X;.4 ",
"/ D 8.0X}.-X X2X5X4X6X`.;XeX5X7X8XeX1X      y y y y y y                 y y y y y y       5XrXaXpXfXqX0X7X}.4XaXpXfXdXrXrX[.+.0 ",
"J o.;.tX].#X5X-X6XeX`.!. X9XeXeXqX;X3X7X    y y y y y y                 y y y y y y     '.rXhXhXhXsXtX6X,X,XeXiXgXgXfXdX$X}.@.a ",
"Q -.B 6X$X;XQ.6XeX5X4X<X;X7XeX0X0X7XtXeX                    sXyXwX<X                    eXeXaXjXjXfXeX:X_.6XfXhXhXgXgXsXeX_.+.u ",
"G t.R s.#X>XK./.5X8XeX9X;X0XrXeXeX5X,X7X                    iX2X0X7X                    rXdXaXdXsXdXeX,XXX-XiXjXfXdXfXhXaXrX=.4 ",
"j t.t.i.F.R.`.aXfXfXfXfXjXhXsXhX5X0XsXfXoXrX3XuXhXG.P.I.H.oX>XiXU.p.9.A.G.{.G.T.}.,X,X#XqXsXaX6XtX;X6X}.2Xj.`.yX0X7X8XyXyXdX=.5 ",
"e _ *.] y.+XfX=XJ.A.Z.q.j.d.t.h.w.B.R.<Xc.G.R.=Xj.o.-.R 9.0.o.3XP.v S L o.P _ ' 9.z.v.:XaX2XU.R.(.T.b.S.[.b.x.x.B._.T.|./.tX..= ",
"@ q V ` 7.Z.=XR.S.N.:.$.8.S.0.R ;.;._ F -.>.K X._ ..P :.X.=.>.-.%.R o.X...=.w.#.K I I $.Z.G.m.C.N.z.z.C.,.,.V.C.n.n.C.,.|.9Xv @ ",
". @ X % ! P 0 l o.c.F c h c j - a b ! Q Q 0 d d c 8 5 Y n D R z h m p j S O.w.=.W I k N k L X.;.:.;.@.X.X.X....... . .B ..j @ . "
};
