/* XPM */
static char *_d35a97ccce34d0ffec6b9e388b2150fPdrg6HO6yf4hD5cN[] = {
/* columns rows colors chars-per-pixel */
"64 69 168 2 ",
"   c #010102",
".  c #0B0700",
"X  c #01020A",
"o  c #0B0B0C",
"O  c #07081A",
"+  c #0A0C1D",
"@  c #050716",
"#  c #110F12",
"$  c #0E101F",
"%  c #141415",
"&  c #1A1713",
"*  c #1C1A15",
"=  c #151518",
"-  c #1B1B1B",
";  c #0E0F21",
":  c #0F1021",
">  c #121325",
",  c #151628",
"<  c #17182A",
"1  c #1A1B2C",
"2  c #1E1F31",
"3  c #1F2022",
"4  c #1F2130",
"5  c #222222",
"6  c #2B2B2B",
"7  c #2A2925",
"8  c #232435",
"9  c #262835",
"0  c #2E2D33",
"q  c #252638",
"w  c #272938",
"e  c #2A2C3B",
"r  c #2E303E",
"t  c #343334",
"y  c #3C3C3D",
"u  c #4D3200",
"i  c #593100",
"p  c #473C20",
"a  c #2E2F41",
"s  c #2F3141",
"d  c #333543",
"f  c #363845",
"g  c #3D3E42",
"h  c #363749",
"j  c #3B3C4C",
"k  c #3F4044",
"l  c #444445",
"z  c #484745",
"x  c #494846",
"c  c #42464F",
"v  c #40484A",
"b  c #4B4B4A",
"n  c #424455",
"m  c #4E4E56",
"M  c #454658",
"N  c #47485A",
"B  c #4A4C5B",
"V  c #475057",
"C  c #4D5055",
"Z  c #545456",
"A  c #545666",
"S  c #5A5B60",
"D  c #5F6062",
"F  c #5F616E",
"G  c #646466",
"H  c #6B6A6C",
"J  c #676975",
"K  c #6B6C70",
"L  c #727272",
"P  c #7E7E7E",
"I  c #F79000",
"U  c #FF9D00",
"Y  c #FF9F09",
"T  c #FCA40B",
"R  c #F9A810",
"E  c #FFA519",
"W  c #FFA91C",
"Q  c #FFB620",
"!  c #FDBA5F",
"~  c #F4C263",
"^  c #F9CA70",
"/  c #FED17D",
"(  c #7F7F81",
")  c #7D7F8C",
"_  c #7F8085",
"`  c #838383",
"'  c #8A8A8B",
"]  c #828388",
"[  c #878891",
"{  c #959595",
"}  c #939399",
"|  c #9D9D9D",
" . c #B7A98F",
".. c #B9AB91",
"X. c #9D9EA4",
"o. c #9FA2A7",
"O. c #9FA2AA",
"+. c #9FA8AD",
"@. c #9CA6B0",
"#. c #A3A3A4",
"$. c #A3A5AC",
"%. c #AAA7AF",
"&. c #A5A8AE",
"*. c #A9AAAC",
"=. c #A2A7B3",
"-. c #A6AAB2",
";. c #AAABB3",
":. c #A2A9B9",
">. c #AAA9B9",
",. c #AEB1B6",
"<. c #AFB2BA",
"1. c #B4B4B7",
"2. c #B2B4BB",
"3. c #BABABC",
"4. c #BCC2BE",
"5. c #FAD48D",
"6. c #FFD792",
"7. c #FFD69E",
"8. c #F8D89B",
"9. c #FFE0B1",
"0. c #FCE7BA",
"q. c #C0BEC1",
"w. c #BAC4C5",
"e. c #C0C1C5",
"r. c #C3C7CA",
"t. c #CBCBCB",
"y. c #CED1D6",
"u. c #D4D3D4",
"i. c #D7DADF",
"p. c #DDDDDD",
"a. c #D4D5D9",
"s. c #FAE6CA",
"d. c #FCEED1",
"f. c #FFF0D7",
"g. c #FFF3DD",
"h. c #E6E6E5",
"j. c #ECECEC",
"k. c #E8E6E5",
"l. c #F3EDED",
"z. c #F1F1EF",
"x. c #FBFFEC",
"c. c #F5EEF5",
"v. c gray95",
"b. c #F5F5F5",
"n. c #F6F6F6",
"m. c #FAF9F7",
"M. c #FEFEF5",
"N. c #FFFDF4",
"B. c #F6FEFD",
"V. c #F9F9F9",
"C. c #F8F8F8",
"Z. c gray98",
"A. c #FBFBFB",
"S. c #FBFEFA",
"D. c #FEFFFB",
"F. c #FDFEFA",
"G. c #FBFBFD",
"H. c #FFF9FF",
"J. c #FAFEFE",
"K. c gray99",
"L. c #FDFDFD",
"P. c #FFFFFD",
"I. c #FFFEFD",
"U. c #FEFEFE",
"Y. c white",
"T. c #FEFEFF",
"R. c #FDFDFE",
"E. c #FFFFFF",
/* pixels */
"Y.Y.Y.Y.Y.Y.Y.Y.Y.Y.Y.Y.Y.Y.Y.Y.Y.Y.Y.Y.Y.Y.Y.Y.Y.Y.Y.Y.Y.Y.Y.Y.Y.Y.Y.Y.Y.Y.Y.Y.Y.Y.Y.Y.Y.Y.Y.Y.Y.Y.Y.Y.Y.Y.Y.Y.Y.Y.Y.Y.Y.Y.Y.Y.",
"Y.Y.Y.Y.Y.Y.Y.Y.Y.Y.Y.Y.Y.Y.Y.Y.Y.Y.Y.Y.Y.Y.Y.Y.Y.Y.Y.Y.Y.Y.Y.Y.Y.Y.Y.Y.Y.Y.Y.Y.Y.Y.Y.Y.Y.Y.Y.Y.Y.Y.Y.Y.Y.Y.Y.Y.Y.Y.Y.Y.Y.Y.Y.Y.",
"Y.Y.Y.Y.Y.Y.Y.Y.Y.Y.Y.Y.Y.Y.Y.Y.Y.Y.Y.Y.Y.Y.Y.Y.Y.Y.Y.Y.Y.Y.Y.Y.Y.Y.Y.Y.Y.Y.Y.Y.Y.Y.Y.Y.Y.Y.Y.Y.Y.Y.Y.Y.Y.Y.Y.Y.Y.Y.Y.Y.Y.Y.Y.Y.",
"Y.Y.Y.Y.Y.Y.Y.Y.Y.Y.Y.Y.Y.Y.Y.Y.Y.Y.Y.Y.Y.Y.Y.Y.Y.Y.Y.Y.Y.Y.Y.Y.Y.Y.Y.Y.Y.Y.Y.Y.Y.Y.Y.Y.Y.Y.Y.Y.Y.Y.Y.Y.Y.Y.Y.Y.Y.Y.Y.Y.Y.Y.Y.Y.",
"Y.Y.Y.Y.Y.Y.Y.Y.Y.Y.Y.Y.Y.Y.Y.Y.Y.Y.Y.Y.Y.Y.Y.Y.Y.Y.Y.Y.Y.Y.Y.Y.Y.Y.Y.Y.Y.Y.Y.Y.Y.Y.Y.Y.Y.Y.Y.Y.Y.Y.Y.Y.Y.Y.Y.Y.Y.Y.Y.Y.Y.Y.Y.Y.",
"Y.Y.Y.Y.Y.Y.Y.Y.Y.Y.Y.Y.Y.Y.Y.Y.Y.Y.Y.Y.Y.Y.Y.Y.Y.Y.Y.Y.Y.Y.Y.Y.Y.Y.Y.Y.Y.Y.Y.Y.Y.Y.Y.Y.Y.Y.Y.Y.Y.Y.Y.Y.Y.Y.Y.Y.Y.Y.Y.Y.Y.Y.Y.Y.",
"Y.Y.Y.Y.Y.Y.Y.Y.Y.Y.Y.Y.Y.Y.Y.Y.Y.Y.Y.Y.Y.Y.Y.Y.Y.Y.Y.Y.Y.Y.Y.Y.Y.Y.Y.Y.Y.Y.Y.Y.Y.Y.Y.Y.Y.Y.Y.Y.Y.Y.Y.Y.Y.Y.Y.Y.Y.Y.Y.Y.Y.Y.Y.Y.",
"Y.Y.Y.Y.Y.Y.Y.Y.Y.Y.Y.Y.Y.Y.Y.Y.Y.Y.Y.Y.Y.Y.Y.Y.Y.Y.Y.Y.Y.Y.Y.Y.Y.Y.Y.Y.Y.Y.Y.Y.Y.Y.Y.Y.Y.Y.Y.Y.Y.Y.Y.Y.Y.Y.Y.Y.Y.Y.Y.Y.Y.Y.Y.Y.",
"Y.Y.Y.Y.Y.Y.Y.Y.Y.Y.Y.Y.Y.Y.Y.Y.K.Y.Y.K.Y.Y.K.Y.Y.Y.Y.Y.Y.Y.Y.Y.Y.Y.Y.Z.Y.Y.m.Y.Y.Y.Y.Y.Y.Y.Y.Y.Y.Y.Y.Y.Y.Y.Y.Y.Y.Y.Y.Y.Y.Y.Y.Y.",
"Y.Y.Y.Y.Y.Y.Y.Y.Y.Y.Y.Y.Y.Y.Y.Y.Y.Y.Y.Y.Y.Y.Y.Y.Y.Y.Y.Y.Y.Y.Y.Y.Y.K.Y.Y.Y.Y.Y.G.Y.Y.Y.Y.Y.Y.Y.Y.Y.Y.Y.Y.Y.Y.Y.Y.Y.Y.Y.Y.Y.Y.Y.Y.",
"Y.Y.Y.Y.Y.Y.Y.Y.Y.Y.Y.Y.Y.Y.Y.Y.Y.Y.Y.Y.Y.Y.Y.Y.Y.Y.Y.Y.Y.Y.Y.Y.Y.Y.Z.Y.Z.Y.Y.Y.Y.Y.Y.Y.Y.Y.Y.Y.Y.Y.Y.Y.Y.Y.Y.Y.Y.Y.Y.Y.Y.Y.Y.Y.",
"Y.Y.Y.Y.Y.Y.Y.Y.Y.Y.Y.Y.Y.Y.Y.Y.Y.K.Y.Y.Y.Y.K.Y.Y.Y.Y.Y.Y.Y.Y.Y.Z.Y.Y.Y.Y.Y.Z.Y.Y.Y.Y.Y.Y.Y.Y.Y.Y.Y.Y.Y.Y.Y.Y.Y.Y.Y.Y.Y.Y.Y.Y.Y.",
"Y.Y.Y.Y.Y.Y.Y.Y.Y.Y.Y.Y.Y.Y.Y.Y.Y.Y.Y.Y.H.Y.Y.Y.Z.Z.Y.Z.Z.Z.Z.Z.Z.K.Y.Z.D.Y.Z.Y.Y.Y.Y.Y.Y.Y.Y.Y.Y.Y.Y.Y.Y.Y.Y.Y.Y.Y.Y.Y.Y.Y.Y.Y.",
"Y.Y.Y.Y.Y.Y.Y.Y.Y.Y.Y.Y.Y.Y.Y.Y.Y.K.Y.Y.K.Y.Y.D.Y.Y.Y.Y.Y.Y.Y.Y.Y.Z.Y.Y.Y.G.Y.Y.Y.Y.Y.Y.Y.Y.Y.Y.Y.Y.Y.Y.Y.Y.Y.Y.Y.Y.Y.Y.Y.Y.Y.Y.",
"Y.Y.Y.Y.Y.Y.Y.Y.Y.Y.Y.Y.Y.Y.Y.Y.Y.K.Y.Y.K.Y.Y.v.` P P P P P ( P _ P | Y.Y.Y.Y.Y.Y.Y.Y.Y.Y.Y.Y.Y.Y.Y.Y.Y.Y.Y.Y.Y.Y.Y.Y.Y.Y.Y.Y.Y.",
"Y.Y.Y.Y.Y.Y.Y.Y.Y.Y.Y.Y.Y.Y.Y.Y.Y.K.Y.Y.Y.Y.Z.j.                    6 Y.Z.Y.G.Y.Y.Y.Y.Y.Y.Y.Y.Y.Y.Y.Y.Y.Y.Y.Y.Y.Y.Y.Y.Y.Y.Y.Y.Y.",
"Y.Y.Y.Y.Y.Y.Y.Y.Y.Y.Y.Y.Y.Y.Y.Y.Y.K.D.D.S.B.Y.l.# .             o   y Y.Y.H.Y.Y.Y.Y.Y.Y.Y.Y.Y.Y.Y.Y.Y.Y.Y.Y.Y.Y.Y.Y.Y.Y.Y.Y.Y.Y.",
"Y.Y.Y.Y.Y.Y.Y.Y.Y.Y.Y.Y.Y.Y.Y.Y.Y.D.m.H.H.H 7 t o   l y.r.t.t.e.% . o y 5 #.Y.Z.Y.Y.Y.Y.Y.Y.Y.Y.Y.Y.Y.Y.Y.Y.Y.Y.Y.Y.Y.Y.Y.Y.Y.Y.",
"Y.Y.Y.Y.Y.Y.Y.Y.Y.Y.Y.Y.Y.Y.Y.Y.S.D.K.V.K.v     .   Z Y.m.Y.Y.Z.-         ] Z.S.Y.Y.Y.Y.Y.Y.Y.Y.Y.Y.Y.Y.Y.Y.Y.Y.Y.Y.Y.Y.Y.Y.Y.Y.",
"Y.Y.Y.Y.Y.Y.Y.Y.Y.Y.Y.Y.Y.Y.Y.Y.M.K.K.f.g.n X . 5 * D p.a.j.Y.Z.t 5 5     ' Y.n.Y.Y.Y.Y.Y.Y.Y.Y.Y.Y.Y.Y.Y.Y.Y.Y.Y.Y.Y.Y.Y.Y.Y.Y.",
"Y.Y.Y.Y.Y.Y.Y.Y.Y.Y.Y.Y.Y.Y.Y.Y.M.D.8.R Q u X * j.Y.#.    | Y.Z.K.Y.3.    ' Y.K.Y.Y.Y.Y.Y.Y.Y.Y.Y.Y.Y.Y.Y.Y.Y.Y.Y.Y.Y.Y.Y.Y.Y.Y.",
"Y.Y.Y.Y.Y.Y.Y.Y.Y.Y.Y.Y.Y.Y.Y.Y.M.Y.7.I T i X & j.Y.*.    | Y.C.K.S.t.    ' D.Z.Y.Y.Y.Y.Y.Y.Y.Y.Y.Y.Y.Y.Y.Y.Y.Y.Y.Y.Y.Y.Y.Y.Y.Y.",
"Y.Y.Y.Y.Y.Y.Y.Y.Y.Y.Y.Y.Y.Y.Y.Y.D.G.s.^ / p X & j.Y.t.G G t.Y.H.#.{ L     ' Z.Y.Y.Y.Y.Y.Y.Y.Y.Y.Y.Y.Y.Y.Y.Y.Y.Y.Y.Y.Y.Y.Y.Y.Y.Y.",
"Y.Y.Y.Y.Y.Y.Y.Y.Y.Y.Y.Y.Y.Y.Y.Y.D.Y.Z.D.D.V X * v.m.Y.Y.Y.Y.Y.v.o     o   ] Y.Z.Y.Y.Y.Y.Y.Y.Y.Y.Y.Y.Y.Y.Y.Y.Y.Y.Y.Y.Y.Y.Y.Y.Y.Y.",
"Y.Y.Y.Y.Y.Y.Y.Y.Y.Y.Y.Y.Y.Y.Y.Y.Y.Y.D.m.Y.p X # Y.G.Y.Y.Y.Y.Y.Y.- .   . X ] D.Z.Y.Y.Y.Y.H.S.Y.Y.Y.Y.Y.Y.Y.Y.Y.Y.Y.Y.Y.Y.Y.Y.Y.Y.",
"Y.Y.Y.Y.Y.Y.Y.Y.Y.Y.Y.Y.Y.Y.Y.Y.m.D.D.H.Y.r.3.;.x b l b l b z l . X   X   ' Y.D.Z.Y.Y.Y.Y.Y.Y.Z.Y.Y.Y.Y.Y.Y.Y.Y.Y.Y.Y.Y.Y.Y.Y.Y.",
"Y.Y.Y.Y.Y.Y.Y.Y.Y.Y.Y.Y.Y.Y.Y.Y.Y.Y.Z.Y.Y.Y.Y.v.                      . . ] Y.C.Y.Y.Z.Y.Y.Y.Y.Y.Y.Y.Y.Y.Y.Y.Y.Y.Y.Y.Y.Y.Y.Y.Y.Y.",
"Y.Y.Y.Y.Y.Y.Y.Y.Y.Y.Y.Y.Y.Y.Y.Y.Y.Y.Y.S.Z.Y.D.k.3 % = = - # % # X         ` n.h.n.Y.G.Y.Y.Y.Y.Y.Y.Y.Y.Y.Y.Y.Y.Y.Y.Y.Y.Y.Y.Y.Y.Y.",
"Y.Y.Y.Y.Y.Y.Y.Y.Y.Y.Y.Y.Y.Y.Y.Y.Y.Z.Y.Y.Y.Y.Y.n.&.X.O.O.X.X.$.X.#           . o p.Z.Y.Y.Y.Y.Y.Y.Y.Y.Y.Y.Y.Y.Y.Y.Y.Y.Y.Y.Y.Y.Y.Y.",
"Y.Y.Y.Y.Y.Y.Y.Y.Y.Y.Y.Y.Y.Y.Y.Y.Y.G.Z.Y.Y.G.Y.Y.<.;.;.;.>.2.2.2.%           X   t.Y.Y.Y.Z.Y.Y.Y.Y.Y.Y.Y.Y.Y.Y.Y.Y.Y.Y.Y.Y.Y.Y.Y.",
"Y.Y.Y.Y.Y.Y.Y.Y.Y.Y.Y.Y.Y.Y.Y.Y.D.D.Y.Y.Z.j.h.i.-.$.-.$.;.] H K #               u.Y.Y.Y.D.Y.Y.Y.Y.Y.Y.Y.Y.Y.Y.Y.Y.Y.Y.Y.Y.Y.Y.Y.",
"Y.Y.Y.Y.Y.Y.Y.Y.Y.Y.Y.Y.Y.Y.Y.Y.D.Y.Z.Y.K.3.X.$.;.$.,.$.,.y                     t.Y.C.Y.Y.Y.Y.Y.Y.Y.Y.Y.Y.Y.Y.Y.Y.Y.Y.Y.Y.Y.Y.Y.",
"Y.Y.Y.Y.Y.Y.Y.Y.Y.Y.Y.Y.Y.Y.Y.Y.Y.H.Y.D.Y.e.$.-.*.$.&.&.<.k                     p.Y.Y.Y.Y.Y.Y.G.Y.Y.Z.Y.Y.Y.Z.Y.Y.Y.Y.Y.Y.Y.Y.Y.",
"Y.Y.Y.Y.Y.Y.Y.Y.Y.Y.Y.Y.Y.Y.Y.Y.Y.Y.D.Y.Y.w.$.>.&.-.;.o.2.k   X                 b Z L Y.Z.Y.Z.Y.Y.Y.Y.K.Y.Y.Y.Y.Y.Y.Y.Y.Y.Y.Y.Y.",
"Y.Y.Y.Y.Y.Y.Y.Y.Y.Y.Y.Y.Y.Y.Y.Y.Y.K.Y.Y.Y.q.$.-.-.-.&.$.2.g   .                     - Y.Y.Y.Z.Y.Y.Y.Y.Y.Y.Y.Y.Z.Y.Y.Y.Y.Y.Y.Y.Y.",
"Y.Y.Y.Y.Y.Y.Y.Y.Y.Y.Y.Y.Y.Y.Y.Y.Y.Y.Y.Y.Y.e.$.-.-.&.=.,.,.k   X                 o . 6 j.n.v.v.n.v.Y.Z.Y.Y.Y.Y.Y.Y.Y.Y.Y.Y.Y.Y.Y.",
"Y.Y.Y.Y.Y.Y.Y.Y.Y.Y.Y.Y.Y.Y.Y.Y.Y.K.Y.Y.Y.e.$.-.-.-.;.$.<.l X .                       - % = 5 o t.Y.n.Y.Y.Y.Y.Y.Y.Y.Y.Y.Y.Y.Y.Y.",
"Y.Y.Y.Y.Y.Y.Y.Y.Y.Y.Y.Y.Y.Y.Y.Y.Y.Y.D.Y.Y.w.$.-.-.-.-.O.2.y   X                             .   1.Y.Z.Y.G.Y.Y.Y.Y.Y.Y.Y.Y.Y.Y.Y.",
"Y.Y.Y.Y.Y.Y.Y.Y.Y.Y.Y.Y.Y.Y.Y.Y.Y.Y.Y.D.Y.e.$.-.&.&.-.-.2.S 0 0 .                     X   5 b y u.Y.Y.Y.Z.Y.Y.Y.Y.Y.Y.Y.Y.Y.Y.Y.",
"Y.Y.Y.Y.Y.Y.Y.Y.Y.Y.Y.Y.Y.Y.Y.Y.Y.K.Y.Y.Y.e.$.-.&.&.-.&.;.;.1.;.% X                   .   P Y.Y.Y.Y.D.Y.Y.Y.Y.Y.Y.Y.Y.Y.Y.Y.Y.Y.",
"Y.Y.Y.Y.Y.Y.Y.Y.Y.Y.Y.Y.Y.Y.Y.Y.H.V.B.Y.D.w.+.*.&.&.-.&.&.&.$.$.o X                 X     G Y.n.Y.Y.Y.Y.Y.Y.Y.Y.Y.Y.Y.Y.Y.Y.Y.Y.",
"Y.Y.Y.Y.Y.Y.Y.Y.Y.Y.Y.Y.Y.Y.Y.Y.M.x.M.H.H.q.$.%.;.&.-.;.&.-.&.$.H D G D H 0       . % { ' r.Y.Y.Y.Y.Y.Y.Y.Y.Y.Y.Y.Y.Y.Y.Y.Y.Y.Y.",
"Y.Y.Y.Y.Y.Y.Y.Y.Y.Y.Y.Y.Y.Y.Y.Y.H.S.D.H.Y.4.+.:.;.$.%.*.%.;.;.$.2.3.2.,.r.Z         6 D.Y.V.V.Y.Y.Y.Y.Y.Y.Y.Y.Y.Y.Y.Y.Y.Y.Y.Y.Y.",
"Y.Y.Y.Y.Y.Y.Y.Y.Y.Y.Y.Y.Y.Y.Y.Y.Y.H.Y.B.S.w.>.>.-.&.=.&.&.-.-.&.X.$.=.+.,.C X X     6 C.V.Y.Y.Y.Y.Y.Y.Y.Y.Y.Y.Y.Y.Y.Y.Y.Y.Y.Y.Y.",
"Y.Y.Y.Y.Y.Y.Y.Y.Y.Y.Y.Y.Y.Y.Y.Y.S.G.Y.Y.Y.c.l.k.;.*.*.*.$.*.*.*.>.>.-.=.-.X.' } - . X 6 = ` K.Y.Y.Y.Y.Y.Y.Y.Y.Y.Y.Y.Y.Y.Y.Y.Y.Y.",
"Y.Y.Y.Y.Y.Y.Y.Y.Y.Y.Y.Y.Y.Y.Y.Y.B.Y.Y.D.Y.Y.S.B.:.:.:.:.:.@.:.=.&.&.-.-.=.<.1.3.5   .     H Y.V.Y.Y.Y.Y.Y.Y.Y.Y.Y.Y.Y.Y.Y.Y.Y.Y.",
"Y.Y.Y.Y.Y.Y.Y.Y.Y.Y.Y.Y.Y.Y.Y.Y.K.D.M.K.K.d.0.s............. . .,.*.&.&.,.} _ ' = o . y 7 { K.K.Y.Y.Y.Y.Y.Y.Y.Y.Y.Y.Y.Y.Y.Y.Y.Y.",
"Y.Y.Y.Y.Y.Y.Y.Y.Y.Y.Y.Y.Y.Y.Y.Y.H.D.Y.K.m.~ T E W E E E E E E E *.#.*.-.2.m X X X   t K.Y.Y.Y.Y.Y.Y.Y.Y.Y.Y.Y.Y.Y.Y.Y.Y.Y.Y.Y.Y.",
"Y.Y.Y.Y.Y.Y.Y.Y.Y.Y.Y.Y.Y.Y.Y.Y.K.m.M.B.m.! U Y Y Y Y Y Y Y Y Y #.#.o.O.;.l         - Y.Y.Y.Y.Y.Y.Y.Y.Y.Y.Y.Y.Y.Y.Y.Y.Y.Y.Y.Y.Y.",
"Y.Y.Y.Y.Y.Y.Y.Y.Y.Y.Y.Y.Y.Y.Y.Y.B.H.Y.B.Y.9./ 6.6.5.5.5.5.5.5.5.a.a.a.y.i.$.( ` ] P { Y.Z.Y.Y.Y.Y.Y.Y.Y.Y.Y.Y.Y.Y.Y.Y.Y.Y.Y.Y.Y.",
"Y.Y.Y.Y.Y.Y.Y.Y.Y.Y.Y.Y.Y.Y.Y.Y.B.Y.Y.S.S.m.N.S.H.Y.Y.Y.Y.Y.Y.Y.m.Y.K.Y.Y.Y.Y.Y.Y.m.Y.Y.Y.Y.Z.K.Y.Y.Y.Y.Y.Y.Y.Y.Y.Y.Y.Y.Y.Y.Y.Y.",
"Y.Y.Y.Y.Y.Y.Y.Y.Y.Y.Y.Y.Y.Y.Y.Y.K.S.Y.Y.M.Y.Y.K.D.D.D.S.S.D.D.D.Y.D.Y.Y.V.Y.Y.m.D.Y.Y.n.Y.Y.Y.Y.Y.Y.Y.Y.Y.Y.Y.Y.Y.Y.Y.Y.Y.Y.Y.Y.",
"Y.Y.Y.Y.Y.Y.Y.Y.Y.Y.Y.Y.Y.Y.Y.Y.Y.M.Y.Y.m.D.Y.m.Y.Y.Y.Y.H.Y.H.Y.D.m.Y.Y.Y.Y.D.m.Y.Y.Z.Y.Y.Y.Y.Y.Y.Y.Y.Y.Y.Y.Y.Y.Y.Y.Y.Y.Y.Y.Y.Y.",
"Y.Y.Y.Y.Y.Y.Y.Y.Y.Y.Y.Y.Y.Y.Y.Y.H.M.M.Y.M.M.Y.Y.D.D.Y.D.D.D.D.D.Y.Y.Y.m.Y.Y.Y.Y.Y.Z.Y.Y.Y.Y.Y.Y.Y.Y.Y.Y.Y.Y.Y.Y.Y.Y.Y.Y.Y.Y.Y.Y.",
"Y.Y.Y.Y.Y.Y.Y.Y.Y.Y.Y.Y.Y.Y.Y.Y.Y.D.D.K.K.Y.Y.Y.Y.Y.Y.Y.Y.Y.Y.Y.Y.Y.Y.Z.m.Y.Y.Y.Y.Y.Y.Z.Y.Z.Y.Y.Y.Y.Y.Y.Y.Y.Y.Y.Y.Y.Y.Y.Y.Y.Y.Y.",
"Y.Y.Y.Y.Y.Y.Y.Y.Y.Y.Y.Y.Y.Y.Y.Y.B.Y.Y.Y.Y.Y.m.M.Y.Y.Y.K.Y.Y.Y.Y.Y.Y.Y.Y.Y.H.Y.Y.Z.Y.Y.Y.Y.Y.Y.Z.Y.Y.Y.Y.Y.Y.Y.Y.Y.Y.Y.Y.Y.Y.Y.Y.",
"Y.Y.Y.Y.Y.Y.Y.Y.Y.Y.Y.Y.Y.Y.Y.Y.Y.Y.Y.Y.Y.Y.Y.Y.Y.Y.Y.Y.Y.Y.Y.Y.Y.Y.Y.Y.Y.Y.Y.Y.Y.Y.Y.Y.Y.Y.Y.Y.Y.Y.Y.Y.Y.Y.Y.Y.Y.Y.Y.Y.Y.Y.Y.Y.",
"Y.Y.Y.Y.Y.Y.Y.Y.Y.Y.Y.Y.Y.Y.Y.Y.Y.Y.Y.Y.Y.Y.Y.Y.Y.Y.Y.Y.Y.Y.Y.Y.Y.Y.Y.Y.Y.Y.Y.Y.Y.Y.Y.Y.Y.Y.Y.Y.Y.Y.Y.Y.Y.Y.Y.Y.Y.Y.Y.Y.Y.Y.Y.Y.",
"Y.Y.Y.Y.Y.Y.Y.Y.Y.Y.Y.Y.Y.Y.Y.Y.Y.Y.Y.Y.Y.Y.Y.Y.Y.Y.Y.Y.Y.Y.Y.Y.Y.Y.Y.Y.Y.Y.Y.Y.Y.Y.Y.Y.Y.Y.Y.Y.Y.Y.Y.Y.Y.Y.Y.Y.Y.Y.Y.Y.Y.Y.Y.Y.",
"Y.Y.Y.Y.Y.Y.Y.Y.Y.Y.Y.Y.Y.Y.Y.Y.Y.Y.Y.Y.Y.Y.Y.Y.Y.Y.Y.Y.Y.Y.Y.Y.Y.Y.Y.Y.Y.Y.Y.Y.Y.Y.Y.Y.Y.Y.Y.Y.Y.Y.Y.Y.Y.Y.Y.Y.Y.Y.Y.Y.Y.Y.Y.Y.",
"Y.Y.Y.Y.Y.Y.Y.Y.Y.Y.Y.Y.Y.Y.Y.Y.Y.Y.Y.Y.Y.Y.Y.Y.Y.Y.Y.Y.Y.Y.Y.Y.Y.Y.Y.Y.Y.Y.Y.Y.Y.Y.Y.Y.Y.Y.Y.Y.Y.Y.Y.Y.Y.Y.Y.Y.Y.Y.Y.Y.Y.Y.Y.Y.",
"Y.H.Y.S.S.Y.Y.Z.H.S.Z.Y.G.S.S.H.Y.Y.Z.Y.G.Y.G.D.Y.m.Y.Y.G.D.Y.G.Y.Z.Y.Y.H.S.G.Y.Y.S.K.Y.H.Y.G.D.G.Y.Y.G.Z.Y.Y.D.Y.Z.Y.Y.Z.Y.Y.m.",
"Y.Y.Y.Y.Y.Y.Y.Y.Y.Y.Y.Y.Y.Y.Y.Y.Y.Y.Y.Y.Y.Y.Y.Y.Y.Y.Y.Y.Y.Y.Y.Y.Y.Y.Y.Y.Y.Y.Y.Y.Y.Y.Y.Y.Y.Y.Y.Y.Y.Y.Y.Y.Y.Y.Y.Y.Y.Y.Y.Y.Y.Y.Y.Y.",
"p.p.p.p.p.p.p.p.p.p.p.p.p.p.p.p.p.p.p.p.p.p.p.p.p.p.p.p.p.p.p.p.p.p.p.p.p.p.p.p.p.p.p.p.p.p.p.p.p.p.p.p.p.p.p.p.p.p.p.p.p.p.p.p.",
"> > > + > > $ > + : > > : > > > > > < > , > , > , > > > , > , > > , > > > , > > > > , > > > , > > > ; , > > > , , < > , 1 + 1 : ",
"> > 1 1 < 1 1 < d 9 < > 8 8 1 > > > > > : > : > > > > > > : > > > ; > > > > > > > > > > > ; ; ; ; ; ; ; ; O O ; + + O O + : > : ",
"+ 1 M A M M B M J [ J F ) B + > > > > : > > > > : > > > : > > > > > > > > > > > > > > > > 1 a j h j n j h d h h n N A A N M 4 $ ",
"> : q s 8 q q 4 r r d f r 1 > $ > > > > > > > > > > > > > > > > > > > > > > > > > > , ; ; , q h a a h a d e a d 9 q d d r d 1 $ ",
", ; + + + > : > + O + : ; ; > > > > > : > > > : > > > ; > > > > > > > > ; > > > > ; > > > ; ; O + + + ; + + + + : + + @ O ; = > "
};
