/* XPM */
static char *d25bf53c33934417f96e169cf2353159E7cytVzwSSInRUvx[] = {
/* columns rows colors chars-per-pixel */
"64 64 247 2 ",
"   c #295FBF",
".  c #2B63BE",
"X  c #2865BE",
"o  c #1C5DC3",
"O  c #1F5DC9",
"+  c #1D62C6",
"@  c #1F69CB",
"#  c #1D65C8",
"$  c #1F78DF",
"%  c #2B64C2",
"&  c #2B6BC3",
"*  c #2165CB",
"=  c #206ACB",
"-  c #2C6CCA",
";  c #2C65C7",
":  c #316DCB",
">  c #3069C9",
",  c #2C73CC",
"<  c #3272CD",
"1  c #2E6ED1",
"2  c #2368D7",
"3  c #326DD2",
"4  c #306CDA",
"5  c #2E74D3",
"6  c #2275DD",
"7  c #2C75DB",
"8  c #2C7BD9",
"9  c #3373D3",
"0  c #3374DB",
"q  c #337BDD",
"w  c #3A79DF",
"e  c #1E7BE9",
"r  c #2D76E2",
"t  c #2C7DE5",
"y  c #227AED",
"u  c #267BE6",
"i  c #337CE4",
"p  c #3779E4",
"a  c #267DF1",
"s  c #2D85DE",
"d  c #3185DE",
"f  c #2A97DE",
"g  c #3596DD",
"h  c #3996DD",
"j  c #3599DE",
"k  c #3999DE",
"l  c #3EA5DF",
"z  c #1F8BF6",
"x  c #1F8EF9",
"c  c #1E8BED",
"v  c #2C84E4",
"b  c #2D8CE4",
"n  c #2784E9",
"m  c #3383E3",
"M  c #3382EA",
"N  c #368BE9",
"B  c #3B8CEB",
"V  c #3887E6",
"C  c #2696E3",
"Z  c #2B96E4",
"A  c #259AE5",
"S  c #2A9AE5",
"D  c #259CEA",
"F  c #2B9CEB",
"G  c #2696EA",
"H  c #3396E2",
"J  c #359BE3",
"K  c #3A9DE4",
"L  c #3B9EEA",
"P  c #3796E9",
"I  c #2284F4",
"U  c #2E85F2",
"Y  c #218AF5",
"T  c #208EF9",
"R  c #2C89F4",
"E  c #328BF4",
"W  c #3289F6",
"Q  c #3B9DF4",
"!  c #3894F4",
"~  c #2191F7",
"^  c #1FBEE6",
"/  c #26A0E6",
"(  c #2BA2E5",
")  c #2BA2EB",
"_  c #27A8EA",
"`  c #34A1E5",
"'  c #3BA1E6",
"]  c #33A2EA",
"[  c #3CA2EB",
"{  c #35ACEC",
"}  c #3DAAEC",
"|  c #34ADE7",
" . c #29B7E8",
".. c #37B6EA",
"X. c #2BA7F4",
"o. c #3DA5F2",
"O. c #3DACF3",
"+. c #35ADFE",
"@. c #3AACFC",
"#. c #37A7F6",
"$. c #2EB3F5",
"%. c #34BCF5",
"&. c #36B4FE",
"*. c #39B3FF",
"=. c #36BAFD",
"-. c #38BAFE",
";. c #38B5F4",
":. c #4089E9",
">. c #409CE6",
",. c #439DEA",
"<. c #429BF4",
"1. c #41A4ED",
"2. c #41A9ED",
"3. c #43A2E7",
"4. c #41A6F3",
"5. c #42ABF4",
"6. c #43ACFA",
"7. c #45A8F8",
"8. c #44B1F5",
"9. c #45B3FC",
"0. c #4AB4FA",
"q. c #45BBFC",
"w. c #4BBBFC",
"e. c #48B6F7",
"r. c #54BDFE",
"t. c #42B0EF",
"y. c #28C6EC",
"u. c #37C4EC",
"i. c #2DC4FD",
"p. c #29C9F9",
"a. c #32C3F3",
"s. c #3BC5F4",
"d. c #38C9FB",
"f. c #3BD2F4",
"g. c #2CD8FB",
"h. c #5CC6EE",
"j. c #5CC8EF",
"k. c #43CCF5",
"l. c #4ECEF7",
"z. c #4CC2FE",
"x. c #44CCFB",
"c. c #4DCDFC",
"v. c #43C4F7",
"b. c #5BC7F1",
"n. c #56CBF3",
"m. c #5DCAF2",
"M. c #52C4FE",
"N. c #53CDFC",
"B. c #58C7F6",
"V. c #43D4FA",
"C. c #4CD3FB",
"Z. c #4AD8F8",
"A. c #52D2F5",
"S. c #53D4FB",
"D. c #5BD3FC",
"F. c #53DBFE",
"G. c #5DDCFD",
"H. c #5CD6F4",
"J. c #44CCEF",
"K. c #60C8EF",
"L. c #63CCF4",
"P. c #69CDF7",
"I. c #64CDFA",
"U. c #6ACEFA",
"Y. c #61C6F0",
"T. c #65D1F6",
"R. c #6BD4F6",
"E. c #6CDCF4",
"W. c #65D3FB",
"Q. c #6BD3FA",
"!. c #65DAFF",
"~. c #6BDBFE",
"^. c #71DBF6",
"/. c #7CDCF5",
"(. c #73D5FA",
"). c #7CD7FE",
"_. c #74DAFB",
"`. c #7DDDFC",
"'. c #70D4F6",
"]. c #5CE3F9",
"[. c #63E3FB",
"{. c #6AE3FE",
"}. c #6AEAFB",
"|. c #67E7F9",
" X c #74E3FC",
".X c #7EE2FA",
"XX c #73EAFD",
"oX c #7DEAFD",
"OX c #78E4F5",
"+X c #7CEBF6",
"@X c #81DEFB",
"#X c #88DCF8",
"$X c #93E1ED",
"%X c #81E3FB",
"&X c #8BE4FC",
"*X c #83EAFC",
"=X c #8CECFC",
"-X c #84E4F6",
";X c #93E5FC",
":X c #9AE5FE",
">X c #93EBFE",
",X c #9CEBFD",
"<X c #96E9F5",
"1X c #85F3FC",
"2X c #8BF3FC",
"3X c #8DFAFD",
"4X c #8AF1F6",
"5X c #94F5FD",
"6X c #9AF3FD",
"7X c #93FCFD",
"8X c #9CFCFB",
"9X c #9CFEF7",
"0X c #A2EDFD",
"qX c #ACEEFD",
"wX c #AAECF6",
"eX c #B5EDFD",
"rX c #B8EEFA",
"tX c #A4FEF4",
"yX c #ABFCF4",
"uX c #A2F4FD",
"iX c #ABF4FE",
"pX c #A3FDFC",
"aX c #ACFDFD",
"sX c #BDF4F4",
"dX c #B5FDF5",
"fX c #B3F4FE",
"gX c #BAF4FD",
"hX c #B3FDFD",
"jX c #BBFDFD",
"kX c #B9F8F5",
"lX c #A6FFEF",
"zX c #CDFDF6",
"xX c #C3F5FD",
"cX c #C3FDFD",
"vX c #CBFEFD",
"bX c #C4FBF6",
"nX c #D4FEFD",
"mX c #DCFDFD",
"MX c #D4FAF8",
"NX c #CAF1F7",
"BX c #E3FEFE",
"VX c #EBFDFE",
"CX c #FDFEF6",
"ZX c #F2FEFC",
"AX c #FBFEFD",
"SX c #F8FBFB",
"DX c #FCFFEF",
/* pixels */
"AXAXCXsX1XoXoX{. X{.~.~.!.{.{.!.{.{.{.{.{.{.{.!.~.~.~.~.~.~.~.{. X~.~.~.{.{.~.~.!.~.~.~.~.Q.W.!.G.W.!.!.W.!.!.~.Q.^.oX+XsXAXAXCX",
"AXAXsX6XuX&X X XE.E.~.W.T.m.m.n.m.m.m.m.m.n.m.m.m.m.m.b.j.j.m.m.m.m.L.D.m.m.m.m.m.m.m.b.b.b.b.b.b.b.b.b.m.I.W.W.!.`.&X6X6XrXAXAX",
"CXgX=X>XuX,X-XOX`._._.~.W.I.D.m.m.m.m.j.m.m.m.h.h.b.h.h.j.j.j.j.m.B.D.m.B.m.n.m.h.b.b.h.b.h.h.b.m.m.b.B.U.Q.(.(./.&X,X:X2XoXwXZX",
"sX-XoX=X>X8X>X&X.X`._._.R.U.I.I.m.m.m.L.m.m.L.j.h.h.h.m.j.m.m.L.W.m.m.m.m.m.m.m.j.h.L.L.b.b.b.L.I.I.I.Q.Q.(./.@X<X,X6X;X>XXXE.qX",
"[.XXXX%X<X<X6X0X&X-X-X.X.X~.T.L.m.m.j.m.m.m.h.h.h.h.m.j.m.L.L.T.Q.L.K.h.m.m.j.j.h.h.h.j.h.h.h.h.b.L.L.R.(./.#X&X0X>X>X=X XOXOXZ.",
"i.n.OXoX-X=X,X,XuX,X>X&X-X.X_.'.R.L.j.j.j.h.j.L.L.m.m.m.L.T.T.Q.L.T.L.L.b.h.h.h.h.h.h.h.h.h.L.L.P.R././.@X#X>X,X6X>X&X.XXX^.A.i.",
"&._ A.XX{.=X$X>XqXiX,X;X#X@X.X`.'.R.L.L.L.h.h.Y.h.m.L.m.T.T.T.L.L.L.P.P.K.K.K.h.h.Y.K.K.K.L.U.(.(.`.#X&X,X,X,X0X=X-XoX~. XS._ =.",
"+.D _ S.XX.X%XuXrXgXfX0X#X#X@X`.`.(.(.(.P.Y.Y.Y.m.m.m.T.T.W.T.R.L.L.L.P.P.P.L.L.P.P.P.P.U.(.(.).).@X#X0XiXiXwX<X=X%X_.}.S._ A &.",
"@.G D X.n.*X&X,X0XqXgXgX0X&X&XOX`._._.(.Q.U.Q.U.T.T.Q.Q.Q.Q.W.W.U.I.P.I.P.U.U.U.Q.U.Q.Q.Q._.(.(.@X#X;XqXxXxX0X=X@XOX{.A.| ) F +.",
"&.C ) J } ~.&X>X,XeXwXrXxXiX&X#X#X@X).(.(.(.(._.R._.E.R.~.R.R.Q.Q.R.R.Q.T.W.Q.Q.(.U.U.(._.).@X@X;X%XqXxXgXfXiX&X.X Xm.| ( ] C *.",
"+.f [ 4.X.;.W.%X:X0XrXxXxXcXfX:X&X#X)./.(._._._.`.`.`.`.).).).`.).@X).).).).).).(.(.(._.`..X%X&X;XqXxXxXxXfX0X:XoXb.{ ] J J S &.",
"+.S >.7.@.F } Q.;X>XgXNXgXbXnXgXiXiX,X,X:X>X>X>X>X>X>X=X=X=X=X>X;X=X>X&X=X=X=X=X,X>X>X>X,X,X0X0XqXvXvXgXsXeX:X=XW...F o.J H S &.",
"@.S J [ 4.o.) O.!.;XiXeXxXvXzXBXBXBXmXMXmXmXmXmXBXBXmXBXmXBXmXmXmXmXmXmXmXmXmXmXnXnXnXmXmXmXmXBXBXvXxXcXeXeX;XD.O.;.} ' K H C *.",
"*.C H L K [ O.X.9.(.0XgXxXNXmXVXAXAXAXAXZXAXAXAXVXZXZXZXZXZXZXZXSXSXZXZXZXZXZXZXZXZXZXZXZXZXAXAXAXnXjXxXgX:XU.8.#.} t.' K H G &.",
"-.C H 1.' K o.o.@.q.`.fXxXMXZXVXZXZXVXVXVXVXBXVXVXBXVXBXVXBXVXBXBXBXBXBXBXBXBXBXVXmXBXBXBXVXVXZXSXZXnXfX0X_.0.4.0.' [ 1.h H S @.",
"=.S g >.1.J K 3.O.9.M.%XMXZXVXZXBXBXBXmXmXmXmXnXnXmXnXnXnXnXnXnXnXnXmXnXnXmXnXnXnXnXnXnXmXmXmXBXZXSXSXxX^.B.0.6.' 2.o.J j j C -.",
"&.S H K 3.K J o.8.0.B.].vXAXZXBXmXmXnXvXvXnXvXvXvXvXvXvXvXcXvXvXvXvXvXvXvXvXvXvXvXvXvXvXvXvXmXmXVXVXAXgXD.r.0.8.1.L ' K k H S &.",
"=.S H K 3.' J 4.7.w.M.[.vXAXVXmXnXvXvXcXcXcXcXcXjXcXxXcXcXcXxXcXjXxXcXcXxXcXxXbXcXcXcXvXvXvXnXmXBXVXCXgXm.r.0.7.[ K 3.k k H S -.",
"=.S J h >.' ' [ 6.w.M.}.nXZXBXnXvXcXjXjXjXjXjXjXjXjXjXjXjXhXjXjXjXjXjXkXjXjXgXjXjXjXjXjXjXcXvXnXmXBXCXgXD.r.0.1.[ L L k K J / -.",
"&.F J J L ' L 4.5.w.M.}.vXZXmXvXcXjXjXhXhXhXhXhXhXhXhXhXhXhXhXhXhXhXhXhXhXhXhXhXhXjXhXhXjXjXcXvXmXmXAXhXW.r.9.4.1.L ' k K F D d.",
"&.F J h k ' [ [ O.0.M.{.nXVXnXcXcXhXhXaXaXhXhXaXhXaXhXaXaXhXaXhXhXhXaXdXhXaXhXyXaXhXhXhXhXjXcXvXnXnXZXhXD.r.9.1.' ' ' k ' ( / =.",
"&.S J h k ' [ L 7.0.M.{.vXVXnXcXjXjXaXaXaXaXaXaXaXaXaXaXaXaXaXaXaXaXaXaXaXaXaXaXaXaXaXaXhXhXjXcXnXnXZXhXD.r.9.5.K } ' ` ' ] / =.",
"-.S H h h K L [ 7.e.M.[.cXVXvXcXjXhXaXpXpXaXaXpXaXpXpXaXaXpXaXpXpXaXpXaXpXaXpXaXpXaXaXaXaXhXjXcXvXnXZXfXD.r.6.1.' } ' k ' ` / =.",
"-.C J h h K [ L 6.e.M.|.cXVXnXcXjXaXaXpXpXpXpXpXpXpXpXpXpXpXpXpXtXpXpXpXpXpXpXpXpXtXaXaXaXaXhXjXvXnXVXhXm.w.9.o.' 2.} k ' F S -.",
"*.Z j k g j [ 3.7.9.z.}.vXmXvXjXhXaXaXpXaXpXpXaX8XpXpX8XpXpXpXpXaXpX9XpX9X8XtXpXaXpX8XaXpXpXhXjXbXnXBXiXN.w.9.O.' 2.' j ' ] C =.",
"+.S j h j H [ 3.O.9.M.}.vXmXcXjXhXaXpXpXpXpX8X8X8XpXpXuX6XpXtX8XuX8XpXpXpXpXpXuXpXpXpXpXpXaXhXjXbXnXBXiXD.w.9.O.} } l ` ` J A &.",
"+.S j h k j L 1.5.0.M.}.vXmXcXjXaXaXpX8X8X8XpX8X8X8X8X8X6X9X8X9X6XpX8X6X8X8X8X6X8X8XpX8X8XpXaXhXbXnXBXyXS.w.0.O.2.} K K J J C -.",
"+.S H j K g K 2.6.w.M.}.bXmXcXhXpXpX8X8X8X7X8X7X8X6X8X8X9X8X8X9X8X9X8X9X8X7X8X8X8X8X8X8X8XpXpXaXjXvXBXiXS.z.q.8.t.' j j h H C @.",
"+.S j j K j ` 2.9.q.M.}.cXmXjXaXpX8X7X7X7X7X5X5X5X5X5X5X5X5X5X7X9X7X7X7X5X5X7X5X5X5X5X7X7X8XpXpXjXcXmXaXS.z.q.O.2.K g h h Z Z @.",
"&.S H k ` J ' 2.9.0.z.|.cXnXhXpX8X7X3X3X2X5X2X=X=X=X=X=X4X4X2X2X4X3X3X5X3X3X4X4X=X=X4X2X2X7X8X8XhXcXmXpXF.z.9.} [ K g h h H C *.",
"@.Z J k j ` } 2.6.0.w.|.cXnXaX8X7X7X3X3X*X=X%X=X*X&X&X&X&X=X1X=X1X1X2X2X4X&X=X4X*X=X*X*X1X2X5X8XaXjXMXtXS.z.9.} [ ' h g K H C &.",
"*.S J K ` ` 2.2.5.9.M.{.cXvXaX8X8X3X3XoX*X%X%X%X%X%X-X-X*X-X*X*X=X*X*X*X%X%X&X-X=X%X&X*X*X2X3X7XaXhXvXpXS.z.9.} [ 3.K g K H C &.",
"*./ ] j ] [ L 1.4.0.M.}.cXvXpX8X3X3X1X*X%X%X@X%X%X`.%X%X%X.X.X*X*X*X%X%X%X%X%X%X*XoX-XoX*X1X3X3X7XaXnXpXS.z.9.o.` [ [ K h H C &.",
"*.S ` ` [ [ [ [ 5.w.M.}.cXvXaX8X3X2X*X%X%X@X/.@X@X@X.X%X%X.X*X*X%X%X/.%X@X-X%X%X*X%X.X*X*X*X3X3X9XaXvXpXS.q.6.[ K [ [ K J H C &.",
"-.S ` ' 2.' K [ 5.w.M.}.cXvXpX8X3X1X*X%X@X).`.@X@X%X%XoX%X*X-X.X.X.X@X@X-X.X.X%X*XoX.X%X*X1X1X3X8XaXnXuXN.w.6.[ K L [ 1.J J A *.",
"-./ ` ' [ K L 3.O.q.N.}.jXvXaX7X3X2X%X.X%X@X@X@X@X%X%XoX.X*X-X@X/.@X%X%X.X.X.X-X-X*XoXoX.X*X1X3X8XhXvXuXS.w.6.o.[ J L 1.K J A &.",
"&.) ` k K K K [ O.q.M.|.cXvXpX8X3X2X%X%X@X@X@X%X%X.X.X*XoX-X.X@X@X@X%X%X%X%X%X%X%X.X.X.X*X*X2X3X8XhXvXuXN.q.6.[ [ J [ [ ' J / &.",
"-.) ' j K K [ 1.8.q.c.|.jXvXpX8X3X2X%X@X`.%X@X%X%X-X-X*X.X.X.X@X%X%X%X%X-X.X-X%X.X.X.X*X*X*X1X3X7XhXnXuXN.q.9.[ [ ' [ ' ` ] / &.",
"=.) ` h h K ' } 9.0.w.[.jXvXpX7X5X2X=X.X@X`..X%X*X%X%X*X-X.X`.%X%X@X%X.X%X.X%X%X.X.X%X%X*X*X1X3X9XhXnXuXc.q.6.o.o.o.[ ' ` ] / =.",
"-.S j g h h ` } 6.9.w.[.jXvXaX7X3X2X%X%X.X.X.X.X.X*X*X%X/.@X%X.X.X.X.X%X/.%X@X%X%X.X%X%X.X%X1X5X9XhXvXuXN.q.9.@.[ o.[ ` ` ] / =.",
"-.S h h J H K } 6.e.w.[.jXbXpX8X3X2X*X-X.X`.%X%XoX*X.X/.%X%X@X@X/..X%X.X%X.X%X.X%X/.`.%X.X-X2X2X8XaXMX8XC.q.e.#.o.} J ` ' ] D -.",
"&.S h h k H J } 7.8.w.!.jXcXpX7X3X=X-XoX%X.X%XoX*X-X.X.X@X@X@X%X%X%X`.%X.X/..X%X.X@X`.@X.X*X2X3X8XhXnXaXS.q.9.#.[ [ K K j ] D -.",
"*.f H h j K ' [ O.6.w.G.hXcXpX7X3X4X*X-X*X.XoXoX.X.X.X.X/./.%X%X%X%X.X/.@X-X@X@X%X`.@X`..X*X2X3X8XhXnXuXl.q.6.o.[ [ ' j k S D &.",
"*.C J h j J [ [ 4.0.w.G.jXvXpX8X5X1X*X*XoX*XoXoX.X.X/..X%X.X%X.X.X%X/..X.X@X@X`.@X@X@X%X.X*X2X3X8XjXnXuXC.9.O.o.[ ] ' j j H C &.",
"*.f k k J J [ L 4.6.r.].hXbXyXpX3X3X1XoX*XoX%X.X%X%X.X%X%X%X*X%X.X.X`..X@X@X@X@X@X`.%X.X%X*X3X7XtXhXnXuXN.9.O.o.J ' ' k k H A &.",
"*.S J h K K [ >.4.9.w.G.jXzXaXtX9X5X1X1X*X.X%X%X%X.X.XoX*X*X*X%X%X.X.X%X.X.X@X%X/..X.X%X*X2X5X8XtXhXnXuXC.q.9.o.[ K 3.K J H G @.",
"&.S J h K L ' L 4.0.M.].hXzXdXyX9X9X5X3X1XoX*X=X*X1X1X*X*X1X*X*X*X*X*X%X%X*X*X*X*X*X*X*X=X5X7X9XtXdXnXtXS.q.9.o.o.J K 3.H H S @.",
"*.S j h K ' L 3.4.0.M.D.kXzXdXdXyXtX8X3X3X3X2X2X1X3X2X3X3X2X3X2X2X2X5X2X2X2X2X5X2X2X2X2X2X8X9XtXtXdXMXuXA.q.9.o.[ L K >.K J C &.",
"*.S J j [ J ,.,.O.9.c.[.7XxXcXyXdXyXtX8X7X7X7X7X7X7X7X7X7X3X7X3X7X7X7X5X7X7X3X7X7X5X5X8X8X9XlXyXlXjXxX1XZ.v.9.@.>.L K ' K j C -.",
"*.S J K L K L ,.7.w.S.{.oX8XjXzXkXkXdXyXpXtX8XtXpXpXtX8X8XtXpXtX8X8X8X8X8X8X8X8X8X8X8XpXpXyXyXyXbXyX+XH.F.N.9.#.[ L ' [ K k C &.",
"-.Z h >.L K ' 1.0.z.F.~.XXoXtXMXmXmXmXnXmXnXnXvXvXvXcXvXcXvXvXvXvXvXvXvXvXvXcXvXvXzXvXvXzXzXzXzXkXOXZ.F.F.N.v.8.o.] ] [ ' ` G &.",
"*.H H ,.L ' [ 5.q.c.D.[.oX*X=XpX8X8X6X6X6X5X7X5X7X5X3X5X5X3X5X7X5X7X7X5X5X5X6X>X>X=X&X&X&X&X&X&XOX].F.G.N.C.x.q.{ #.[ o.L j G $.",
"*.S H ,.3.[ O.q.x.N.D.].|.*X*X].V.f.s.s.=.=.a.a.-.;.=.%.=.%.-.-.%.%.%.;.$.$.$.$.X.) ) X._ ) X.X...D.G.n.A.C.x.s.;.{ ] ' K g C &.",
"*.Z H K [ { ;.s.V.C.D.].|.|.D.;.6.O.o.! ! ! W W U W U R R W W W W U U U U U a v t u u u v b H P S 8.n.A.Z.l.x.x.v.%.( S H j A &.",
"*.Z H J { $.s.x.l.S.F.!.!.q.J Q P B N M M M t i r t t t t v t v i t r r 7 r 7 7 6 6 6 6 u 6 v v v d } N.Z.l.l.x.f.%. ./ S S G *.",
"*.S J J { %.V.V.C.C.!.D.w.#.! B N M M v M M i 7 q 0 7 q 7 7 r 0 r 7 7 7 7 7 6 6 5 7 7 0 0 7 7 q s v b } S.F.C.c.y.y. .{ ( f G *.",
"*.G L ..y.%.d.J.F.F.D.M.} P ! E V p M p i q 0 9 0 0 0 9 3 3 9 < 3 1 1 1 9 5 1 1 5 7 0 7 0 0 q q 9 m v f t.D.F.u.a.d...^ | S ) &.",
"=.S  . .i.d.u.x.J.G.N.o.] ! :.V M m m m m 9 9 5 , < < < , & & , - - - , , , , , 5 9 5 5 7 8 8 q w w d V [ e.c.V.d...a.i. . .D &.",
"i. .y.s.a.y.V.s.c.w.8.4.Q ! :.:.V M m p 9 3 - - % % . % : : < X & - , < , & & & > : 3 3 9 q w d p V V >.P H } x.J.k.u.s.i.y._ d.",
"p.y.a. .J.v.f.s.6.f g L Q P ! B B V w 0 3 > % % % X   % : 9 9 < 5 < : < ; % % % % > > > 3 0 p p N B B B M m H ] J.x.u.u.a.y.^ i.",
"#Xp.p.a.k.k.u.{ d N d N <.<.B B i 7 - ; > % X X . . & & X & , < < & % X X X X .   . % . ; * 1 4 q i V p 0 q d d ;.s.V.s.d.p.p.#X",
"AX@Xg.p.d.s.5.N s m M t M B p 3 3 > % X . . & X . & & & X X X X . . . X X . % . %     . . ; ; ; - 4 4 p p q i M b O.V.C.p.p.%XZX",
"CXAX#Xg.V.| c n b $ e y e 6 6 = * * + + * - @ = = # = * = = + o + + # * * # * * o o o o o O O O 2 2 2 6 2 r 6 u v n | f.f.#XAXCX",
"SXAXAX$Xp.$.S C I Y n n c Y Y Y I z z x ~ x ~ T T ~ ~ Y Y Y I I I I I Y Y I Y Y z I e I a a y y e e e y e y u u a n X.f.#XCXCXAX"
};
