/* XPM */
static char *_0559b00f61941cf869befc5ad5b2f940Z4oXHzoqUZFvnkZ[] = {
/* columns rows colors chars-per-pixel */
"64 64 244 2 ",
"   c #152531",
".  c #15344B",
"X  c #0D2952",
"o  c #183857",
"O  c #24455B",
"+  c #1A4F72",
"@  c #2B5372",
"#  c #32657D",
"$  c #3C7293",
"%  c #295FBE",
"&  c #2B63BE",
"*  c #2866BE",
"=  c #407C9F",
"-  c #1D5DC3",
";  c #1F5DC9",
":  c #1D62C6",
">  c #1E67CA",
",  c #1F78DF",
"<  c #2B64C2",
"1  c #2B6BC3",
"2  c #2165CA",
"3  c #2667C9",
"4  c #2C6CCA",
"5  c #3169C9",
"6  c #316DCB",
"7  c #2C73CC",
"8  c #3272CD",
"9  c #276AD5",
"0  c #326DD2",
"q  c #306CDA",
"w  c #2D74D3",
"e  c #2275DD",
"r  c #2C75DB",
"t  c #2C7BD9",
"y  c #3373D3",
"u  c #3374DB",
"i  c #337BDD",
"p  c #3A79DF",
"a  c #1E7AE9",
"s  c #2E76E2",
"d  c #267BE6",
"f  c #2C7DE6",
"g  c #227AED",
"h  c #3779E4",
"j  c #337CE4",
"k  c #267DF0",
"l  c #4A819F",
"z  c #678D99",
"x  c #5F86A3",
"c  c #6797AF",
"v  c #6DA6B3",
"b  c #2D85DE",
"n  c #358CD6",
"m  c #2A97DF",
"M  c #3595DD",
"N  c #3996DD",
"B  c #3599DE",
"V  c #3999DE",
"C  c #3FA5DF",
"Z  c #1E8BED",
"A  c #1F8BF5",
"S  c #1F8EF9",
"D  c #2C84E4",
"F  c #2886E8",
"G  c #3383E3",
"H  c #3887E6",
"J  c #3382EA",
"K  c #368BE9",
"L  c #3B8CEB",
"P  c #2596E3",
"I  c #259AE5",
"U  c #2A9AE4",
"Y  c #2896E8",
"T  c #259CEA",
"R  c #2A9DEB",
"E  c #3396E1",
"W  c #359BE3",
"Q  c #3A9DE4",
"!  c #3796E9",
"~  c #3B9EEA",
"^  c #2284F4",
"/  c #218AF6",
"(  c #2989F5",
")  c #328BF4",
"_  c #3289F6",
"`  c #2191F7",
"'  c #3994F4",
"]  c #3B9CF4",
"[  c #1FBFE6",
"{  c #2AA2EB",
"}  c #28A5E8",
"|  c #34A1E5",
" . c #3CA2E6",
".. c #34ADE7",
"X. c #33A2EA",
"o. c #3CA3EB",
"O. c #35ACEC",
"+. c #3DAAEC",
"@. c #29B7E8",
"#. c #37B6EA",
"$. c #2BA7F4",
"%. c #37A7F6",
"&. c #3DA5F2",
"*. c #3EACF3",
"=. c #35ADFE",
"-. c #3AACFC",
";. c #2DB3F5",
":. c #38B5F4",
">. c #34BCF5",
",. c #36B4FE",
"<. c #39B3FE",
"1. c #36BAFD",
"2. c #39BAFE",
"3. c #4193EF",
"4. c #429DE8",
"5. c #43A2E7",
"6. c #41A4EC",
"7. c #41A9ED",
"8. c #42B0EF",
"9. c #41A5F3",
"0. c #42ABF4",
"q. c #45A8F8",
"w. c #43ACFA",
"e. c #44B1F5",
"r. c #48B6F6",
"t. c #45B3FC",
"y. c #49B4FA",
"u. c #45BBFC",
"i. c #4BBBFC",
"p. c #54BDFE",
"a. c #28C6EC",
"s. c #37C4EC",
"d. c #2AC8FA",
"f. c #32C3F3",
"g. c #3BC5F4",
"h. c #38C9FA",
"j. c #2BD8FB",
"k. c #3AD2F4",
"l. c #45CCEF",
"z. c #5CC6EE",
"x. c #5CC8EF",
"c. c #43C4F7",
"v. c #43CCF5",
"b. c #4ECEF7",
"n. c #4CC2FE",
"m. c #44CCFB",
"M. c #4DCDFC",
"N. c #5BC7F1",
"B. c #59C7F6",
"V. c #56CBF3",
"C. c #5DCAF2",
"Z. c #53C4FE",
"A. c #53CDFC",
"S. c #43D4FB",
"D. c #4CD3FB",
"F. c #4AD8F8",
"G. c #52D2F5",
"H. c #5CD6F4",
"J. c #53D3FB",
"K. c #5BD4FC",
"L. c #53DBFE",
"P. c #5DDCFD",
"I. c #60C9EF",
"U. c #60C6F0",
"Y. c #63CCF4",
"T. c #69CDF7",
"R. c #64CDFA",
"E. c #6BCEFA",
"W. c #64D1F6",
"Q. c #6BD4F6",
"!. c #6CDCF4",
"~. c #65D3FB",
"^. c #6BD3FA",
"/. c #65DAFF",
"(. c #6BDBFE",
"). c #76DBF6",
"_. c #73D5FA",
"`. c #7CD7FE",
"'. c #74DAFB",
"]. c #7CDDFC",
"[. c #5DE3F9",
"{. c #63E3FB",
"}. c #66E7F9",
"|. c #6AE3FE",
" X c #6AEAFB",
".X c #78E4F5",
"XX c #7CEBF6",
"oX c #74E3FC",
"OX c #7EE2FA",
"+X c #73EAFD",
"@X c #7DEAFD",
"#X c #82BCD9",
"$X c #81DEFB",
"%X c #88DEF9",
"&X c #84E4F6",
"*X c #81E3FB",
"=X c #8BE4FC",
"-X c #83EAFC",
";X c #8CECFC",
":X c #96E9F5",
">X c #93E5FC",
",X c #9AE6FE",
"<X c #93EBFE",
"1X c #9CEBFD",
"2X c #8AF0F6",
"3X c #85F3FC",
"4X c #8BF3FC",
"5X c #8DFAFD",
"6X c #9CFEF6",
"7X c #94F5FD",
"8X c #9AF3FD",
"9X c #93FCFD",
"0X c #9CFCFB",
"qX c #A6FEEF",
"wX c #A2EDFD",
"eX c #ACEEFD",
"rX c #B5EDFC",
"tX c #B9EEFA",
"yX c #A4FEF4",
"uX c #ACFCF4",
"iX c #A2F4FD",
"pX c #ABF4FE",
"aX c #A3FDFC",
"sX c #ACFDFD",
"dX c #BBF7F5",
"fX c #B5FDF5",
"gX c #B2F4FE",
"hX c #BAF4FD",
"jX c #B3FDFD",
"kX c #BBFDFD",
"lX c #CAF0F7",
"zX c #C4FBF6",
"xX c #CDFEF6",
"cX c #C3F5FD",
"vX c #C3FDFD",
"bX c #CBFEFD",
"nX c #D4FAF8",
"mX c #D4FEFD",
"MX c #DCFDFD",
"NX c #E3FDFE",
"BX c #EBFDFE",
"VX c #F1FEF6",
"CX c #F2FEFC",
"ZX c #FBFEFC",
/* pixels */
"  . O o 3X@X@X|.|.oX|.(././.|.|./.|.|.{.|.|.{.(.(.(.(.^.(.(.(.(.oX|.(.(.|.|.(.|./.(.(.(.(./.~./.~.~.(./././././.^.'.+X3X@ x .   ",
". # v 8XiX=X+XoX!.!.(.~.W.C.C.V.C.C.C.C.C.C.C.C.C.C.C.C.x.x.C.C.C.C.Y.K.C.C.C.C.C.C.C.C.N.N.p.N.x.V.N.C.C.Y.T.~.~.].>X8X8X+ o . ",
"z #X4X<XiX1X&X.X].'.'.(.~.~.C.B.C.Y.C.C.C.C.C.z.z.N.N.z.x.x.x.C.C.C.A.C.C.B.V.N.x.C.N.z.z.z.z.N.C.B.C.C.T.^._._..X=X1X,X4X-X+ O ",
"c &X@X<X<X8X:X;XOX`.'.'._.~.R.R.H.C.C.C.C.Y.C.z.z.z.z.C.C.C.C.C.R.Y.C.C.C.Y.C.C.C.U.U.I.z.N.N.Y.Y.R.R.~.^._.].$X,X:X8X>X;X X!.o ",
"[..X.X*X:X4X8XwX=X&X&XOXOX'.W.C.Y.x.x.x.C.U.x.z.z.z.x.x.x.W.Y.W.~.Y.I.z.N.C.x.C.z.x.x.x.z.z.z.N.N.Y.T.Q._.).$X>XwX7X<X;XoX)..X[.",
"d.G.oX@X*X:X1X1XiX1X<X=XOXOX'._.W.W.x.x.x.x.C.U.U.C.Y.C.C.Y.W.W.W.T.W.I.N.z.z.z.z.z.z.x.z.U.Y.U.T.^._.).%X%X:XwX:X<X=XOXoX!.D.d.",
",.} J.oX|.;X>X<XeXpX1X>X&X$X].]._.Q.T.Y.U.x.z.U.C.C.C.C.W.W.W.T.U.W.T.T.Y.I.U.z.z.U.U.I.I.Y.E._.`.].%X:X,X1XwXwX;X=X@X(.oXb.} ,.",
"=.P O.D.+X@X$XwXtXhXrXwX%X%X$X].`.)._.^.^.U.U.U.Y.C.C.W.~.!.~.T.Y.Y.Y.T.T.T.Y.I.T.T.T.T.T._._._.`.].%X:XpXpXwX:X=X*X'.}.L.O.I ,.",
"-.T T O.C.*X=X1XiXeXtXhXwX=X%X.X`.'.'.^.^.^.^.E.W.W.^.^.^.~.~.~.E.T.R.R.R.E.E.E.^.E.E.~.^.'.'.`.$X=X=XpXcXhX1X;XOXoX|.J...{ T =.",
"=.T R X.+.(.-X>X,XrXgXrXvXpX=X%X%X$X`._._._._.'.!._.(.!.!._.Q.^.Q.^.Q.Q.Q.^.^.^._.E._._._.`.$X$X%X=XeXlXhXhXpX=XOXoXV...| | P <.",
"=.m  .o.$.<.R.;X,XwXhXcXzXvXrX,X>X%X$X).`.'.'.'.].].`.`.`.].`.`.`.$X`.`.`.`.`.`._._._.'.].OX*X=X,XeXcXcXcXgXwX,X@XV.+.{ W W P <.",
"=.P 4.q.-.R +.~.>X:XrXlXcXvXbXhXpXwXwX,X>X<X<X<X<X<X<X;X;X;X;X<X>X;X>X;X;X-X;X;X<X,X<X<X1X1XwXwXpXbXcXdXcXrX,X;X~.#.X.o.Q W U <.",
"-.U W o.9.&.{ *./.,XeXrXcXbXxXMXNXNXMXMXMXMXMXMXNXMXNXMXMXNXMXMXMXNXMXMXMXMXMXMXmXmXmXMXMXmXNXMXNXcXvXvXtXrX>XK.*.e.8. .W E P ,.",
"<.Y E  .Q 6.*.$.2.^.wXhXcXlXMXBXZXZXZXZXZXZXZXZXCXCXCXCXCXCXCXCXCXCXCXCXCXCXCXCXCXCXCXCXCXZXZXZXZXmXkXcXhX,XE.e.%.+.+. .E E Y <.",
"2.P E 6.Q Q &.*.-.i.].gXhXnXCXBXCXBXBXBXBXNXNXNXNXBXBXNXBXNXBXBXNXNXNXNXNXNXNXNXNXNXNXNXNXNXBXCXZXBXmXhXeXQ.u.9.t.| | 6.B V R <.",
"1.P M 4.6.| W 5.0.w.Z.%XmXCXCXVXBXNXNXMXMXMXMXMXmXmXmXMXmXmXmXmXMXmXmXMXmXmXmXMXmXmXmXmXMXMXNXNXCXZXZXcX.Xp.y.w.C 7.&.~ N B P ,.",
",.U E Q 6. .W 6.q.p.Z.[.vXZXBXNXNXmXmXbXbXmXbXbXbXbXbXbXbXbXbXbXbXbXbXbXbXbXbXbXbXbXbXbXbXbXMXMXBXBXZXhXK.p.y.q.6.Q  .Q Q M U <.",
"2.U E Q 4. .Q 6.q.i.Z.}.bXZXBXMXmXbXbXvXvXvXvXvXvXvXvXkXvXvXcXvXcXkXvXvXvXcXkXzXvXbXvXvXbXbXmXMXNXBXZXhXY.p.y.q.o.~  .V N E U 2.",
"2.I W E 4. .X.&.0.i.Z.{.bXZXNXmXbXvXvXkXkXkXkXkXjXkXkXkXkXjXkXjXkXkXfXkXkXkXfXkXkXkXkXvXkXvXbXmXMXNXZXhXK.p.y.7.o.Q o.V V U { 2.",
"1.R W N Q Q ~ 6.0.p.Z.|.bXCXMXbXvXkXjXjXjXjXjXjXjXjXjXjXjXjXjXjXjXhXjXhXjXjXhXjXjXjXjXjXkXkXvXbXnXMXZXhXK.p.y.9.o.~ 5.V W { } 1.",
",.R Q N Q  .o.4.9.y.Z. XmXBXmXvXkXkXjXsXjXjXsXsXjXsXsXsXjXsXjXsXsXsXjXjXjXsXjXjXsXjXjXjXjXkXvXbXmXmXZXjXK.p.t.6. . . .B  .| } 1.",
",.U W N V Q o.o.*.y.Z. XbXBXmXvXkXjXsXsXsXsXsXsXsXsXsXjXsXsXsXsXsXsXsXsXsXsXsXsXsXsXsXsXjXjXkXvXmXmXCXjXK.p.t.0. .+. .| o.X.} 1.",
",.U W E V Q o.~ w.y.M.{.bXBXbXvXkXjXsXaXsXaXsXaXaXsXsXsXaXaXaXsXaXsXyXsXaXsXsXsXaXsXsXsXsXjXkXvXbXmXBXgXA.p.*.6. .+. .W  .X.I 1.",
"2.P E N V W ~ o.q.y.Z.{.bXNXmXvXkXjXsXaXaXaXaXaXaXaXaXaXaXaXsXaXaXaXaXaXaXaXyXaXaXaXaXsXsXsXjXkXmXmXBXjXK.p.w.7.+.5. .B  .X.I ,.",
"<.U N N M B o.4.w.t.n. XbXMXbXkXjXsXsXaXaXaXaXaXaXaXaXaXaXaXaXaXaXaX0XyX8X6XaXaXaXaXaXaXaXsXjXkXvXmXNXpXJ.i.w.0. .+. .|  .X.I 2.",
",.U B V B M o.5.*.t.Z. XbXMXvXkXjXsXaXaXaXaXaX0X0X0XaX0XyX0X0X8XaXaXaXaXaXaXaXaXaXaXaXaXaXsXsXkXzXmXBXpXK.i.t.0.+.+. .B W W I ,.",
"<.P M N V W Q 7.0.y.Z. XbXMXvXkXsXsXaX0X0XaX0X0X0XaX0X8X6X8X0X6X0XaX8X0X0X0X0X8X0X0XaX0XaXaXsXjXzXbXNXuXA.i.t.0.7.+.| C W W I <.",
"=.U m V V W Q 7.w.i.Z. XbXmXvXjXaXaX0X0X9X0X0X0X0X0X0X0X0X0X0X6X8X6X6X6X0X9X0X6X0X0X0X0X0X0XaXjXvXbXNXaXJ.n.i.#.7. .B V N B P -.",
"=.U W N W B | 7.t.u.Z.}.vXmXkXsXaX0X0X9X9X9X7X7X7X2X7X7X7X7X6X4X6X9X9X9X7X9X9X7X7X7X7X9X7X0XaXaXkXbXMXsXJ.n.u.*.7.W B N M E U -.",
"<.U N V | W  .7.t.y.p.}.vXmXjXaX0X9X5X5X7X4X4X;X;X;X2X;X2X:X4X4X2X5X5X7X5X5X2X2X;X4X2X4X5X9X0XaXjXkXnXaXL.n.t.*.6.V B N E E P =.",
"-.Y W V W | +.7.w.y.p.{.vXmXjX0X9X9X5X3X-X-X;X*X=X;X=X=X=X=X3X;X2X3X4X4X4X=X2X&X-X;X-X-X3X4X9X9XsXkXnXaXJ.n.t.+.o. .N N W E P <.",
"<.U W Q W | 7.7.0.t.n. XvXbXsX0X0X5X5X@X-X*X*X*X*X*X*X*X-X-X-X-X;X-X-X-X*X*X=X=X=X=X*X-X-X4X7X9XaXkXbXaXJ.n.t.+.o.5.Q E Q E P ,.",
"<.} X.B X.o.o.~ 9.y.Z. XvXbXsX0X5X5X-X-X*X*X*X$X*X].OX*X*XOX-X-X-X-X&X&XOX*X*X*X-XOX-X*X-X3X5X5X6XsXmXaXJ.i.t.o.X.6.o.Q N W m =.",
"<.I |  .o.o.~ 6.9.t.Z. XvXbXaX0X5X5X-X*X$X$X$X].$XOX*X*X-XOX*X*X*XOX].$X$X&X*XOX-X*XXX*X-X3X5X5X9XsXmX0XL.u.w.o.Q o.o.~ W W P =.",
",.U |  .7. .~ o.0.i.A. XvXbXaX0X5X3X-X*X$X].$X$X*X*X*XOX*X-X*XOXOXOX*X$X*XOX*XOX-X@X@XOXOX-X5X5X0XsXbXiXJ.i.w.6.Q ~ o.o.Q W I ,.",
",.} |  .o.Q Q 6.*.u.A. XvXbXaX6X5X3X*X*X$X$X$X$X$X*X*X@X@X*X&X$X].$X*X*XOXOX&X*X-X*X@XOX@X-X3X5X6XjXmXiXA.i.w.&.o.Q ~ o.| W I ,.",
"2.{ | V Q Q ~ 5.e.u.A.{.kXbXsX0X5X4X-X*X*X].$X*X$X&XOX@X@X*X&X$X$X*X*X*X*XOX&X*X*XOXOX-X-X-X4X5X0XjXmXiXJ.u.w.&.o.Q o.o.| | } ,.",
"2.} X.V N Q ~ 7.*.r.A.{.vXbXaX9X7X4X*X$X$X$X$X*X*X*X*X-X&X].].*X$X*X*X*X*X*X*X*XOXOXOX*X-X-X3X5X6XsXmXiXM.t.w.o.o.~ o.o. .U I 2.",
"2.} W N N Q  .7.0.t.n.{.kXbXaX6X5X;X-X*X$X].OX*X*X*X-X*X&X.X$X*X*X].&X].*XOX*X*XOXOXOX*X*X-X3X5X6XjXbX8XM.u.t.*.o.o.o.X.W | } 2.",
"2.I V N M W | +.0.u.n./.kXbXaX9X7X4X*X*XOX].*X*X@X-X-X&X].&X].OXOX&XOXOXOX$X&X$X*XOX*X*XOX-X;X5X0XjXmXiXA.u.t.%.&.*.o.X.W | } 2.",
",.U E N V E W +.w.e.p.}.kXvXaX9X5X3X-X*XOX*XOX*X3X@XOXOX$X*X*X$X].OX*XOXOXOX*XOX*X*X].$X*X*X2X5X0XjXbXaXJ.u.e.%.o.o.B  .| o.} 1.",
"<.U V N V W Q o.w.e.i./.kXvXaX0X5X4X&X-X*XOX*X@X&X*XOXOX$X$X].*XOX*X*X*XOX&X*X&X].].].$XOX-X4X5X0XjXmXiXJ.u.t.&.&.o.| W B | T 2.",
",.m E N W W o.o.-.0.i./.jXvXaX9X5X2X-X&X*X@X@X@XXX$XOXOX].$XOX*X&XOX].].&X].$X$X$X$XOX$XOX-X4X9X0XjXmXiXb.u.t.%.o.o.| V W E I ,.",
"<.U V N N Q o. .0.e.i.[.jXbXaX0X7X4X-X@X-X-XOX@X].OXOXOXOXOX*XOXOXOX].OX].$X$X].$X$X$XOXOX-X3X5XaXjXmXiXM.u.*.&.| o.o.V W U P ,.",
",.P Q N W Q o. .9.w.p.P.jXbXsXaX5X5X3X@X@XOXOXOXOX*XOXOX*X*X*X*XOXOX].*X$X].$X$X].].*X].*X-X4X9XaXjXmXiXb.u.*.&.~ Q 5.V N E U ,.",
"<.P V N V Q o.~ 9.e.n.P.jXxXuXyX9X7X3X3X-X-X*X*X-X*XOXOX-X-X-X-X*XOXOX*XOX*X*X$XOX*X*X*X-X4X7X6XyXjXnXiXM.u.w.&.~ Q o.Q E E R =.",
"<.U W N Q Q  .Q 9.y.Z.P.gXxXfXuXyX6X7X5X3X@X-X4X3X-X-X3X-X3X-X-X-X-X;X*X*X-X-X-X-X-X-X-X;X7X9X6XyXfXnXyXb.n.t.&.o.Q  .5.E E Y -.",
"<.U Q N Q o.~  .9.r.Z.P.dXxXfXfXuXyX6X5X5X5X4X4X4X3X5X5X5X4X4X5X4X4X4X4X4X4X4X7X4X4X3X4X5X0X6XyXyXfXxXiXJ.u.t.&.o.~ Q 5.E W P =.",
"<.P Q B  .W 4.4.0.y.M.{.0XvXvXuXfXqXqX6X9X9X9X9X9X9X9X9X9X5X9X5X9X9X9X7X9X9X5X9X9X5X9X9X6X0XyXyXqXzXkX;XD.c.t.%.5.~ Q  .Q B P ,.",
"<.U V Q ~ ~ o.4.q.u.J.|.oX0XvXlXdXfXdXsXaXaX0XaXaXaXaX0XaX0XaXaX0X6X6X0X6X0X0X6X0X0XaXaXaXuXuXuXzXsXXXH.L.M.u.%.o.]  .o.Q V T ,.",
"<.U V 4.Q Q o.o.y.n.L.(.+X@XyXnXMXMXMXMXmXmXbXbXbXbXbXvXvXbXbXbXbXbXbXbXbXbXbXbXbXxXbXmXbXxXxXxXdX.XF.L.P.A.u.:.o.X.o.o. .W T ,.",
"<.U N 4.Q o.o.e.u.M.J.{.+X-X7X0X0X0X8X8X8X8X0X7X9X5X7X7X7X5X7X5X7X9X9X7X7X7X<X<X<X<X=X=X=X=X=X=X.XL.[.P.A.D.m.u.O.%.| 9.4.B T ;.",
",.U E 4.4.o.*.r.m.D.K.P. X=X-X[.S.k.g.>.>.1.1.f.2.>.>.:.1.1.1.1.>.>.>.;.;.;.;.;.{ { R { } } O.O.#.J.P.V.G.D.m.g.:.:.| Q Q B P ,.",
"<.U E Q +.O.2.c.M.D.K.[.}.}.V.2.w.-.] ] ' ' ' _ _ _ _ ( ) ) _ _ _ _ _ _ _ k f F F d d F D D F ! U e.V.G.G.b.M.k.c.:.} U E M Y ,.",
"-.U E W O.#.h.m.v.L.K./.P.c.| 3.L ! K J J J j f s f f f d f J J j s s s r s r r e e d e d d b D G b 7.L.F.b.M.m.g.>.@.} U m T <.",
"<.U W W O.>.h.S.D.J.P.~.i.%.] L K K D J J j j r u u u r t r r r r r e q r r e e r r q r u r r i b D D +.D.L.D.M.a.a.@.O.} P Y <.",
"-.R ~ @.a.f.h.v.L.L.K.Z.+.! ! _ H J h j j i u y u u u y 0 0 y 8 0 0 4 0 w w 7 9 w r y r u s i i t G D b 8.K.L.s.a.h.#.@.@.U R ,.",
"f.I ..@.d.h.#.h.l.P.A.&.] ' H H G G J G i u w w 7 8 y 8 7 1 4 7 3 4 7 7 7 7 w 7 w y w w y t t t p i G N o.e.M.F.m.#.f.d.@.@.T 2.",
"d.@.a.h.f.f.m.l.M.u.e.q.3.' 3.3.H H h p u y 4 4 & * & < 5 6 8 * 1 7 7 8 4 1 1 1 6 6 0 u u i p G p H H 3.L U O.m.l.v.s.g.d.[ } h.",
"d.d.s.>.g.l.k.s.0.E m ~ &.! L J L H h u 6 5 < < < & & < 6 8 y 8 y 8 8 6 4 < < & < < 5 5 0 u h h L L L L H G E o.l.m.s.s.f.f.[ d.",
"$ d.d.f.c.v.s.:.b K b K 9.3.' L i t 4 3 5 < * * * & 1 & * 1 7 7 8 1 < * & & * & & < % % 3 3 9 q t G J h h p i b O.v.v.g.h.d.a.+ ",
"# c j.d.k.g.0.K b G J j j L h q 0 4 < < & & 1 1 < 1 1 1 * * * * & & & % & & & & < & & % % < 5 9 5 q q h u u G J D :.v.D.d.d.V o ",
". @ l j.k.:.P b b , a d a e e 2 9 2 : : 2 2 2 > > > 2 3 > 2 : - - : ; 2 2 2 2 : : - - - ; ; ; ; ; 9 9 e e e d d F F ..S.j.z = . ",
"  . X o d.$.R Z / / ^ F Z / / ` ^ ^ A ` ` ` S S S ` ` ` A ^ / ( ^ / / / / / / ` ^ ^ g d ^ k g g g a a g a g d d k F @.k.n $ .   "
};
